<svg width="143" height="74" viewBox="0 0 143 74" fill="none" xmlns="http://www.w3.org/2000/svg">
<path d="M84.4117 25.192C83.6543 25.192 82.9503 25.0533 82.2997 24.776C81.6597 24.4987 81.105 24.1147 80.6357 23.624C80.177 23.1227 79.841 22.5413 79.6277 21.88L81.4357 21.096C81.7237 21.7787 82.1397 22.3173 82.6837 22.712C83.2277 23.096 83.841 23.288 84.5237 23.288C84.9077 23.288 85.2383 23.2293 85.5157 23.112C85.8037 22.984 86.0223 22.8133 86.1717 22.6C86.3317 22.3867 86.4117 22.1307 86.4117 21.832C86.4117 21.48 86.305 21.192 86.0917 20.968C85.889 20.7333 85.5797 20.552 85.1637 20.424L82.8757 19.688C81.9477 19.4 81.249 18.968 80.7797 18.392C80.3103 17.816 80.0757 17.1387 80.0757 16.36C80.0757 15.6773 80.241 15.0747 80.5717 14.552C80.913 14.0293 81.3823 13.624 81.9797 13.336C82.5877 13.0373 83.281 12.888 84.0597 12.888C84.7743 12.888 85.4303 13.016 86.0277 13.272C86.625 13.5173 87.137 13.864 87.5637 14.312C88.001 14.7493 88.3263 15.2667 88.5397 15.864L86.7477 16.664C86.513 16.0667 86.161 15.608 85.6917 15.288C85.2223 14.9573 84.6783 14.792 84.0597 14.792C83.697 14.792 83.377 14.856 83.0997 14.984C82.8223 15.1013 82.6037 15.272 82.4437 15.496C82.2943 15.7093 82.2197 15.9653 82.2197 16.264C82.2197 16.5947 82.3263 16.888 82.5397 17.144C82.753 17.3893 83.0783 17.5813 83.5157 17.72L85.7077 18.408C86.657 18.7173 87.3663 19.144 87.8357 19.688C88.3157 20.232 88.5557 20.904 88.5557 21.704C88.5557 22.3867 88.3797 22.9893 88.0277 23.512C87.6757 24.0347 87.1903 24.4453 86.5717 24.744C85.953 25.0427 85.233 25.192 84.4117 25.192ZM89.715 25V13.08H94.163C94.9737 13.08 95.6884 13.2293 96.307 13.528C96.9364 13.816 97.427 14.2427 97.779 14.808C98.131 15.3627 98.307 16.04 98.307 16.84C98.307 17.6293 98.1257 18.3067 97.763 18.872C97.411 19.4267 96.9257 19.8533 96.307 20.152C95.6884 20.4507 94.9737 20.6 94.163 20.6H91.891V25H89.715ZM91.891 18.68H94.195C94.5897 18.68 94.931 18.6053 95.219 18.456C95.507 18.296 95.731 18.0773 95.891 17.8C96.051 17.5227 96.131 17.2027 96.131 16.84C96.131 16.4667 96.051 16.1467 95.891 15.88C95.731 15.6027 95.507 15.3893 95.219 15.24C94.931 15.08 94.5897 15 94.195 15H91.891V18.68ZM105.162 25.192C104.287 25.192 103.471 25.0373 102.714 24.728C101.957 24.4187 101.295 23.9867 100.73 23.432C100.165 22.8773 99.722 22.2267 99.402 21.48C99.0927 20.7227 98.938 19.9067 98.938 19.032C98.938 18.1467 99.0927 17.3307 99.402 16.584C99.7114 15.8373 100.149 15.1867 100.714 14.632C101.279 14.0773 101.941 13.6507 102.698 13.352C103.455 13.0427 104.277 12.888 105.162 12.888C106.047 12.888 106.869 13.0427 107.626 13.352C108.383 13.6613 109.045 14.0933 109.61 14.648C110.175 15.192 110.613 15.8373 110.922 16.584C111.242 17.3307 111.402 18.1467 111.402 19.032C111.402 19.9067 111.242 20.7227 110.922 21.48C110.602 22.2267 110.159 22.8773 109.594 23.432C109.029 23.9867 108.367 24.4187 107.61 24.728C106.863 25.0373 106.047 25.192 105.162 25.192ZM105.162 23.208C105.749 23.208 106.287 23.1067 106.778 22.904C107.269 22.6907 107.695 22.3973 108.058 22.024C108.431 21.6507 108.714 21.208 108.906 20.696C109.109 20.184 109.21 19.6293 109.21 19.032C109.21 18.4347 109.109 17.8853 108.906 17.384C108.714 16.872 108.431 16.4293 108.058 16.056C107.695 15.672 107.269 15.3787 106.778 15.176C106.287 14.9733 105.749 14.872 105.162 14.872C104.586 14.872 104.053 14.9733 103.562 15.176C103.071 15.3787 102.639 15.672 102.266 16.056C101.903 16.4293 101.621 16.872 101.418 17.384C101.215 17.8853 101.114 18.4347 101.114 19.032C101.114 19.6293 101.215 20.184 101.418 20.696C101.621 21.208 101.903 21.6507 102.266 22.024C102.639 22.3973 103.071 22.6907 103.562 22.904C104.053 23.1067 104.586 23.208 105.162 23.208ZM112.537 25V13.08H116.969C117.78 13.08 118.494 13.2293 119.113 13.528C119.742 13.816 120.233 14.2427 120.585 14.808C120.937 15.3627 121.113 16.04 121.113 16.84C121.113 17.6613 120.916 18.36 120.521 18.936C120.137 19.512 119.614 19.9387 118.953 20.216L121.689 25H119.225L116.297 19.768L117.705 20.6H114.713V25H112.537ZM114.713 18.68H117.001C117.396 18.68 117.737 18.6053 118.025 18.456C118.313 18.296 118.537 18.0773 118.697 17.8C118.857 17.5227 118.937 17.2027 118.937 16.84C118.937 16.4667 118.857 16.1467 118.697 15.88C118.537 15.6027 118.313 15.3893 118.025 15.24C117.737 15.08 117.396 15 117.001 15H114.713V18.68ZM124.115 25V15H121.027V13.08H129.347V15H126.307V25H124.115ZM134.13 25.192C133.373 25.192 132.669 25.0533 132.018 24.776C131.378 24.4987 130.824 24.1147 130.354 23.624C129.896 23.1227 129.56 22.5413 129.346 21.88L131.154 21.096C131.442 21.7787 131.858 22.3173 132.402 22.712C132.946 23.096 133.56 23.288 134.242 23.288C134.626 23.288 134.957 23.2293 135.234 23.112C135.522 22.984 135.741 22.8133 135.89 22.6C136.05 22.3867 136.13 22.1307 136.13 21.832C136.13 21.48 136.024 21.192 135.81 20.968C135.608 20.7333 135.298 20.552 134.882 20.424L132.594 19.688C131.666 19.4 130.968 18.968 130.498 18.392C130.029 17.816 129.794 17.1387 129.794 16.36C129.794 15.6773 129.96 15.0747 130.29 14.552C130.632 14.0293 131.101 13.624 131.698 13.336C132.306 13.0373 133 12.888 133.778 12.888C134.493 12.888 135.149 13.016 135.746 13.272C136.344 13.5173 136.856 13.864 137.282 14.312C137.72 14.7493 138.045 15.2667 138.258 15.864L136.466 16.664C136.232 16.0667 135.88 15.608 135.41 15.288C134.941 14.9573 134.397 14.792 133.778 14.792C133.416 14.792 133.096 14.856 132.818 14.984C132.541 15.1013 132.322 15.272 132.162 15.496C132.013 15.7093 131.938 15.9653 131.938 16.264C131.938 16.5947 132.045 16.888 132.258 17.144C132.472 17.3893 132.797 17.5813 133.234 17.72L135.426 18.408C136.376 18.7173 137.085 19.144 137.554 19.688C138.034 20.232 138.274 20.904 138.274 21.704C138.274 22.3867 138.098 22.9893 137.746 23.512C137.394 24.0347 136.909 24.4453 136.29 24.744C135.672 25.0427 134.952 25.192 134.13 25.192Z" fill="white"/>
<path d="M43.8907 49V31.12H55.5307V33.64H46.7227V39.016H54.5707V41.536H46.7227V49H43.8907ZM56.7063 49V31.12H68.4904V33.64H59.5383V38.776H68.0104V41.296H59.5383V46.48H68.4904V49H56.7063ZM76.1844 49.288C75.0644 49.288 74.0244 49.08 73.0644 48.664C72.1044 48.232 71.2884 47.648 70.6164 46.912C69.9444 46.176 69.4484 45.328 69.1284 44.368L71.5284 43.36C71.9604 44.464 72.5924 45.312 73.4244 45.904C74.2564 46.496 75.2164 46.792 76.3044 46.792C76.9444 46.792 77.5044 46.696 77.9844 46.504C78.4644 46.296 78.8324 46.008 79.0884 45.64C79.3604 45.272 79.4964 44.848 79.4964 44.368C79.4964 43.712 79.3124 43.192 78.9444 42.808C78.5764 42.424 78.0324 42.12 77.3124 41.896L73.9524 40.84C72.6084 40.424 71.5844 39.792 70.8804 38.944C70.1764 38.08 69.8244 37.072 69.8244 35.92C69.8244 34.912 70.0724 34.032 70.5684 33.28C71.0644 32.512 71.7444 31.912 72.6084 31.48C73.4884 31.048 74.4884 30.832 75.6084 30.832C76.6804 30.832 77.6564 31.024 78.5364 31.408C79.4164 31.776 80.1684 32.288 80.7924 32.944C81.4324 33.6 81.8964 34.36 82.1844 35.224L79.8324 36.256C79.4804 35.312 78.9284 34.584 78.1764 34.072C77.4404 33.56 76.5844 33.304 75.6084 33.304C75.0164 33.304 74.4964 33.408 74.0484 33.616C73.6004 33.808 73.2484 34.096 72.9924 34.48C72.7524 34.848 72.6324 35.28 72.6324 35.776C72.6324 36.352 72.8164 36.864 73.1844 37.312C73.5524 37.76 74.1124 38.096 74.8644 38.32L77.9844 39.304C79.4084 39.736 80.4804 40.36 81.2004 41.176C81.9204 41.976 82.2804 42.976 82.2804 44.176C82.2804 45.168 82.0164 46.048 81.4884 46.816C80.9764 47.584 80.2644 48.192 79.3524 48.64C78.4404 49.072 77.3844 49.288 76.1844 49.288ZM87.4275 49V33.64H82.6755V31.12H94.9155V33.64H90.2355V49H87.4275ZM95.8329 49V31.12H98.6649V49H95.8329ZM105.924 49L99.588 31.12H102.636L107.82 46.384H107.22L112.38 31.12H115.428L109.092 49H105.924ZM113.552 49L119.84 31.12H123.344L129.632 49H126.608L125.24 44.992H117.968L116.576 49H113.552ZM118.784 42.472H124.376L121.208 33.112H122L118.784 42.472ZM130.553 49V31.12H133.385V46.48H141.113V49H130.553Z" fill="white"/>
<path d="M46.4077 54.51H49.5157V54.138H45.7897V53.55H50.2297V55.098H46.4077V54.51ZM46.0057 54.51H46.7317C46.6917 54.698 46.6477 54.894 46.5997 55.098C46.5557 55.302 46.5097 55.498 46.4617 55.686C46.4177 55.874 46.3737 56.042 46.3297 56.19L45.6097 56.106C45.6577 55.962 45.7057 55.8 45.7537 55.62C45.8017 55.436 45.8477 55.248 45.8917 55.056C45.9397 54.864 45.9777 54.682 46.0057 54.51ZM46.2637 55.446H50.0377V56.046H46.0837L46.2637 55.446ZM49.8517 55.446H50.5777C50.5777 55.446 50.5757 55.478 50.5717 55.542C50.5717 55.606 50.5677 55.66 50.5597 55.704C50.5277 56.104 50.4917 56.41 50.4517 56.622C50.4117 56.834 50.3517 56.98 50.2717 57.06C50.2077 57.132 50.1377 57.182 50.0617 57.21C49.9897 57.242 49.9057 57.262 49.8097 57.27C49.7257 57.278 49.6157 57.284 49.4797 57.288C49.3437 57.292 49.1997 57.29 49.0477 57.282C49.0437 57.178 49.0217 57.066 48.9817 56.946C48.9457 56.822 48.8997 56.716 48.8437 56.628C48.9717 56.64 49.0917 56.648 49.2037 56.652C49.3197 56.656 49.4057 56.656 49.4617 56.652C49.5097 56.652 49.5497 56.65 49.5817 56.646C49.6137 56.638 49.6417 56.622 49.6657 56.598C49.7097 56.558 49.7457 56.458 49.7737 56.298C49.8017 56.134 49.8277 55.88 49.8517 55.536V55.446ZM47.6377 53.688H48.3397V57.54H47.6377V53.688ZM47.4937 55.662L48.0517 55.908C47.9157 56.076 47.7597 56.238 47.5837 56.394C47.4077 56.55 47.2177 56.696 47.0137 56.832C46.8097 56.968 46.5997 57.09 46.3837 57.198C46.1677 57.306 45.9497 57.398 45.7297 57.474C45.6977 57.418 45.6557 57.354 45.6037 57.282C45.5517 57.214 45.4957 57.146 45.4357 57.078C45.3797 57.01 45.3277 56.954 45.2797 56.91C45.4917 56.85 45.7037 56.776 45.9157 56.688C46.1277 56.6 46.3317 56.502 46.5277 56.394C46.7237 56.286 46.9037 56.17 47.0677 56.046C47.2357 55.922 47.3777 55.794 47.4937 55.662ZM46.0237 52.368H47.9137V52.92H46.0237V52.368ZM48.4117 52.368H50.7397V52.92H48.4117V52.368ZM46.0537 51.852L46.7257 52.038C46.6457 52.234 46.5477 52.43 46.4317 52.626C46.3197 52.818 46.1997 53 46.0717 53.172C45.9477 53.34 45.8217 53.488 45.6937 53.616C45.6537 53.576 45.5977 53.532 45.5257 53.484C45.4537 53.436 45.3797 53.39 45.3037 53.346C45.2317 53.298 45.1677 53.258 45.1117 53.226C45.3077 53.062 45.4877 52.858 45.6517 52.614C45.8197 52.366 45.9537 52.112 46.0537 51.852ZM48.5017 51.852L49.1797 52.026C49.0677 52.326 48.9197 52.612 48.7357 52.884C48.5517 53.156 48.3617 53.384 48.1657 53.568C48.1257 53.528 48.0677 53.482 47.9917 53.43C47.9197 53.378 47.8457 53.328 47.7697 53.28C47.6977 53.232 47.6337 53.194 47.5777 53.166C47.7737 53.01 47.9517 52.816 48.1117 52.584C48.2757 52.352 48.4057 52.108 48.5017 51.852ZM46.2517 52.8L46.8217 52.56C46.9017 52.676 46.9817 52.808 47.0617 52.956C47.1417 53.1 47.1997 53.224 47.2357 53.328L46.6237 53.604C46.5957 53.496 46.5437 53.366 46.4677 53.214C46.3957 53.062 46.3237 52.924 46.2517 52.8ZM48.8557 52.8L49.4437 52.584C49.5397 52.696 49.6377 52.822 49.7377 52.962C49.8377 53.102 49.9117 53.226 49.9597 53.334L49.3357 53.574C49.2957 53.466 49.2297 53.34 49.1377 53.196C49.0457 53.052 48.9517 52.92 48.8557 52.8ZM51.9037 57V56.49L53.1277 55.182C53.3677 54.926 53.5557 54.72 53.6917 54.564C53.8317 54.404 53.9317 54.264 53.9917 54.144C54.0557 54.024 54.0877 53.898 54.0877 53.766C54.0877 53.55 54.0217 53.384 53.8897 53.268C53.7577 53.148 53.5877 53.088 53.3797 53.088C53.1637 53.088 52.9777 53.15 52.8217 53.274C52.6657 53.394 52.5577 53.57 52.4977 53.802L51.8737 53.622C51.9217 53.386 52.0177 53.182 52.1617 53.01C52.3057 52.834 52.4817 52.698 52.6897 52.602C52.9017 52.506 53.1297 52.458 53.3737 52.458C53.6577 52.458 53.9057 52.512 54.1177 52.62C54.3297 52.724 54.4937 52.87 54.6097 53.058C54.7297 53.246 54.7897 53.464 54.7897 53.712C54.7897 53.876 54.7577 54.036 54.6937 54.192C54.6337 54.344 54.5397 54.506 54.4117 54.678C54.2837 54.846 54.1197 55.036 53.9197 55.248L52.8397 56.4H54.8737V57H51.9037ZM56.4556 57L57.9856 55.02L58.1056 55.098C58.0496 55.158 57.9876 55.206 57.9196 55.242C57.8556 55.278 57.7856 55.304 57.7096 55.32C57.6376 55.336 57.5596 55.344 57.4756 55.344C57.2076 55.344 56.9676 55.284 56.7556 55.164C56.5436 55.04 56.3756 54.872 56.2516 54.66C56.1316 54.444 56.0716 54.2 56.0716 53.928C56.0716 53.644 56.1376 53.392 56.2696 53.172C56.4016 52.952 56.5816 52.778 56.8096 52.65C57.0376 52.522 57.2976 52.458 57.5896 52.458C57.8856 52.458 58.1456 52.522 58.3696 52.65C58.5976 52.778 58.7756 52.954 58.9036 53.178C59.0356 53.398 59.1016 53.65 59.1016 53.934C59.1016 54.086 59.0856 54.236 59.0536 54.384C59.0216 54.532 58.9656 54.686 58.8856 54.846C58.8056 55.002 58.6936 55.174 58.5496 55.362L57.3016 57H56.4556ZM57.5896 54.75C57.7456 54.75 57.8836 54.714 58.0036 54.642C58.1236 54.57 58.2196 54.472 58.2916 54.348C58.3636 54.224 58.3996 54.082 58.3996 53.922C58.3996 53.758 58.3636 53.614 58.2916 53.49C58.2196 53.362 58.1216 53.264 57.9976 53.196C57.8776 53.124 57.7416 53.088 57.5896 53.088C57.4376 53.088 57.2996 53.124 57.1756 53.196C57.0556 53.264 56.9596 53.362 56.8876 53.49C56.8156 53.614 56.7796 53.758 56.7796 53.922C56.7796 54.082 56.8136 54.224 56.8816 54.348C56.9536 54.472 57.0516 54.57 57.1756 54.642C57.2996 54.714 57.4376 54.75 57.5896 54.75ZM62.4231 54.174V55.218H63.4791V54.174H62.4231ZM61.7451 53.544H64.2051V55.842H61.7451V53.544ZM60.4191 52.104H65.5731V57.534H64.7871V52.842H61.1691V57.534H60.4191V52.104ZM60.8451 56.538H65.2311V57.21H60.8451V56.538ZM71.5971 52.932C71.5731 52.968 71.5371 53.024 71.4891 53.1C71.4451 53.176 71.4111 53.246 71.3871 53.31C71.3031 53.498 71.1991 53.708 71.0751 53.94C70.9551 54.172 70.8171 54.406 70.6611 54.642C70.5091 54.874 70.3471 55.092 70.1751 55.296C69.9511 55.548 69.7031 55.798 69.4311 56.046C69.1631 56.29 68.8791 56.516 68.5791 56.724C68.2831 56.928 67.9791 57.104 67.6671 57.252L67.0491 56.604C67.3731 56.48 67.6871 56.324 67.9911 56.136C68.2951 55.948 68.5771 55.744 68.8371 55.524C69.0971 55.304 69.3211 55.09 69.5091 54.882C69.6411 54.73 69.7651 54.568 69.8811 54.396C70.0011 54.224 70.1071 54.054 70.1991 53.886C70.2911 53.714 70.3591 53.556 70.4031 53.412C70.3631 53.412 70.2911 53.412 70.1871 53.412C70.0831 53.412 69.9611 53.412 69.8211 53.412C69.6851 53.412 69.5411 53.412 69.3891 53.412C69.2371 53.412 69.0911 53.412 68.9511 53.412C68.8151 53.412 68.6951 53.412 68.5911 53.412C68.4871 53.412 68.4131 53.412 68.3691 53.412C68.2851 53.412 68.1971 53.416 68.1051 53.424C68.0131 53.428 67.9251 53.434 67.8411 53.442C67.7611 53.446 67.6991 53.45 67.6551 53.454V52.602C67.7151 52.606 67.7891 52.612 67.8771 52.62C67.9651 52.628 68.0531 52.634 68.1411 52.638C68.2331 52.642 68.3091 52.644 68.3691 52.644C68.4211 52.644 68.5031 52.644 68.6151 52.644C68.7271 52.644 68.8551 52.644 68.9991 52.644C69.1431 52.644 69.2911 52.644 69.4431 52.644C69.5991 52.644 69.7471 52.644 69.8871 52.644C70.0311 52.644 70.1551 52.644 70.2591 52.644C70.3631 52.644 70.4391 52.644 70.4871 52.644C70.6191 52.644 70.7391 52.636 70.8471 52.62C70.9591 52.604 71.0451 52.586 71.1051 52.566L71.5971 52.932ZM70.2531 54.798C70.4091 54.922 70.5751 55.066 70.7511 55.23C70.9271 55.394 71.1011 55.564 71.2731 55.74C71.4451 55.916 71.6031 56.086 71.7471 56.25C71.8951 56.41 72.0191 56.55 72.1191 56.67L71.4351 57.264C71.2871 57.06 71.1171 56.848 70.9251 56.628C70.7371 56.408 70.5371 56.19 70.3251 55.974C70.1171 55.754 69.9051 55.546 69.6891 55.35L70.2531 54.798ZM77.8431 52.5C77.8431 52.592 77.8751 52.67 77.9391 52.734C78.0031 52.794 78.0811 52.824 78.1731 52.824C78.2611 52.824 78.3371 52.794 78.4011 52.734C78.4651 52.67 78.4971 52.592 78.4971 52.5C78.4971 52.412 78.4651 52.336 78.4011 52.272C78.3371 52.208 78.2611 52.176 78.1731 52.176C78.0811 52.176 78.0031 52.208 77.9391 52.272C77.8751 52.336 77.8431 52.412 77.8431 52.5ZM77.4771 52.5C77.4771 52.372 77.5071 52.256 77.5671 52.152C77.6311 52.048 77.7151 51.964 77.8191 51.9C77.9271 51.836 78.0451 51.804 78.1731 51.804C78.3011 51.804 78.4171 51.836 78.5211 51.9C78.6251 51.964 78.7071 52.048 78.7671 52.152C78.8311 52.256 78.8631 52.372 78.8631 52.5C78.8631 52.628 78.8311 52.746 78.7671 52.854C78.7071 52.958 78.6251 53.042 78.5211 53.106C78.4171 53.166 78.3011 53.196 78.1731 53.196C78.0451 53.196 77.9271 53.166 77.8191 53.106C77.7151 53.042 77.6311 52.958 77.5671 52.854C77.5071 52.746 77.4771 52.628 77.4771 52.5ZM76.6491 52.266C76.6451 52.294 76.6391 52.34 76.6311 52.404C76.6231 52.468 76.6151 52.536 76.6071 52.608C76.5991 52.676 76.5951 52.736 76.5951 52.788C76.5951 52.908 76.5951 53.04 76.5951 53.184C76.5951 53.328 76.5951 53.472 76.5951 53.616C76.5951 53.756 76.5951 53.884 76.5951 54C76.5951 54.08 76.5951 54.192 76.5951 54.336C76.5951 54.48 76.5951 54.642 76.5951 54.822C76.5951 55.002 76.5951 55.19 76.5951 55.386C76.5951 55.578 76.5951 55.766 76.5951 55.95C76.5951 56.13 76.5951 56.294 76.5951 56.442C76.5951 56.586 76.5951 56.7 76.5951 56.784C76.5951 56.956 76.5431 57.092 76.4391 57.192C76.3391 57.296 76.1831 57.348 75.9711 57.348C75.8631 57.348 75.7531 57.346 75.6411 57.342C75.5291 57.338 75.4191 57.332 75.3111 57.324C75.2031 57.316 75.0971 57.306 74.9931 57.294L74.9211 56.55C75.0491 56.574 75.1731 56.592 75.2931 56.604C75.4171 56.616 75.5151 56.622 75.5871 56.622C75.6671 56.622 75.7231 56.606 75.7551 56.574C75.7871 56.538 75.8051 56.482 75.8091 56.406C75.8091 56.37 75.8091 56.292 75.8091 56.172C75.8131 56.052 75.8151 55.91 75.8151 55.746C75.8151 55.582 75.8151 55.408 75.8151 55.224C75.8151 55.04 75.8151 54.864 75.8151 54.696C75.8151 54.528 75.8151 54.382 75.8151 54.258C75.8151 54.134 75.8151 54.048 75.8151 54C75.8151 53.928 75.8151 53.82 75.8151 53.676C75.8151 53.528 75.8151 53.372 75.8151 53.208C75.8151 53.044 75.8151 52.904 75.8151 52.788C75.8151 52.708 75.8091 52.614 75.7971 52.506C75.7851 52.394 75.7731 52.314 75.7611 52.266H76.6491ZM73.7091 53.22C73.8011 53.232 73.8971 53.244 73.9971 53.256C74.0971 53.264 74.1951 53.268 74.2911 53.268C74.3391 53.268 74.4351 53.268 74.5791 53.268C74.7271 53.268 74.9031 53.268 75.1071 53.268C75.3111 53.268 75.5291 53.268 75.7611 53.268C75.9971 53.268 76.2331 53.268 76.4691 53.268C76.7091 53.268 76.9311 53.268 77.1351 53.268C77.3431 53.268 77.5231 53.268 77.6751 53.268C77.8271 53.268 77.9331 53.268 77.9931 53.268C78.0771 53.268 78.1751 53.264 78.2871 53.256C78.4031 53.248 78.5031 53.238 78.5871 53.226V54.012C78.4951 54.004 78.3951 54 78.2871 54C78.1791 53.996 78.0831 53.994 77.9991 53.994C77.9391 53.994 77.8331 53.994 77.6811 53.994C77.5331 53.994 77.3551 53.994 77.1471 53.994C76.9431 53.994 76.7231 53.994 76.4871 53.994C76.2511 53.994 76.0151 53.994 75.7791 53.994C75.5431 53.994 75.3231 53.994 75.1191 53.994C74.9151 53.994 74.7391 53.994 74.5911 53.994C74.4471 53.994 74.3471 53.994 74.2911 53.994C74.2031 53.994 74.1051 53.996 73.9971 54C73.8931 54.004 73.7971 54.01 73.7091 54.018V53.22ZM75.2391 54.846C75.1711 54.982 75.0891 55.128 74.9931 55.284C74.8971 55.44 74.7931 55.596 74.6811 55.752C74.5731 55.908 74.4671 56.054 74.3631 56.19C74.2591 56.322 74.1651 56.432 74.0811 56.52L73.4331 56.076C73.5331 55.984 73.6351 55.876 73.7391 55.752C73.8471 55.624 73.9511 55.49 74.0511 55.35C74.1551 55.21 74.2491 55.07 74.3331 54.93C74.4211 54.79 74.4971 54.656 74.5611 54.528L75.2391 54.846ZM77.8191 54.51C77.8951 54.606 77.9791 54.72 78.0711 54.852C78.1671 54.984 78.2631 55.126 78.3591 55.278C78.4551 55.426 78.5451 55.572 78.6291 55.716C78.7131 55.856 78.7851 55.98 78.8451 56.088L78.1371 56.472C78.0731 56.344 77.9991 56.206 77.9151 56.058C77.8351 55.91 77.7511 55.762 77.6631 55.614C77.5751 55.466 77.4871 55.328 77.3991 55.2C77.3151 55.068 77.2371 54.956 77.1651 54.864L77.8191 54.51ZM80.3451 54.222C80.4171 54.226 80.5091 54.232 80.6211 54.24C80.7331 54.244 80.8491 54.248 80.9691 54.252C81.0931 54.256 81.2071 54.258 81.3111 54.258C81.4111 54.258 81.5351 54.258 81.6831 54.258C81.8311 54.258 81.9911 54.258 82.1631 54.258C82.3391 54.258 82.5191 54.258 82.7031 54.258C82.8911 54.258 83.0771 54.258 83.2611 54.258C83.4451 54.258 83.6191 54.258 83.7831 54.258C83.9471 54.258 84.0931 54.258 84.2211 54.258C84.3531 54.258 84.4571 54.258 84.5331 54.258C84.6731 54.258 84.8051 54.254 84.9291 54.246C85.0531 54.234 85.1551 54.226 85.2351 54.222V55.164C85.1671 55.16 85.0651 55.154 84.9291 55.146C84.7931 55.138 84.6611 55.134 84.5331 55.134C84.4571 55.134 84.3531 55.134 84.2211 55.134C84.0891 55.134 83.9411 55.134 83.7771 55.134C83.6131 55.134 83.4391 55.134 83.2551 55.134C83.0751 55.134 82.8911 55.134 82.7031 55.134C82.5151 55.134 82.3331 55.134 82.1571 55.134C81.9851 55.134 81.8251 55.134 81.6771 55.134C81.5331 55.134 81.4111 55.134 81.3111 55.134C81.1391 55.134 80.9631 55.138 80.7831 55.146C80.6031 55.15 80.4571 55.156 80.3451 55.164V54.222ZM89.1139 52.326C89.1539 52.398 89.2019 52.504 89.2579 52.644C89.3179 52.78 89.3779 52.93 89.4379 53.094C89.5019 53.254 89.5619 53.41 89.6179 53.562C89.6739 53.71 89.7159 53.834 89.7439 53.934L88.9879 54.198C88.9639 54.102 88.9239 53.982 88.8679 53.838C88.8159 53.69 88.7599 53.538 88.6999 53.382C88.6399 53.222 88.5799 53.07 88.5199 52.926C88.4599 52.782 88.4079 52.664 88.3639 52.572L89.1139 52.326ZM91.8559 52.806C91.8199 52.878 91.7879 52.956 91.7599 53.04C91.7359 53.124 91.7159 53.202 91.6999 53.274C91.6439 53.49 91.5679 53.732 91.4719 54C91.3799 54.268 91.2679 54.536 91.1359 54.804C91.0079 55.068 90.8599 55.31 90.6919 55.53C90.4839 55.806 90.2499 56.058 89.9899 56.286C89.7339 56.51 89.4659 56.706 89.1859 56.874C88.9059 57.042 88.6219 57.18 88.3339 57.288L87.6619 56.616C87.9379 56.536 88.2179 56.424 88.5019 56.28C88.7899 56.136 89.0659 55.962 89.3299 55.758C89.5979 55.554 89.8319 55.324 90.0319 55.068C90.1839 54.876 90.3219 54.642 90.4459 54.366C90.5739 54.09 90.6819 53.796 90.7699 53.484C90.8619 53.168 90.9239 52.856 90.9559 52.548L91.8559 52.806ZM87.4459 52.698C87.4899 52.79 87.5439 52.91 87.6079 53.058C87.6759 53.206 87.7439 53.362 87.8119 53.526C87.8799 53.69 87.9419 53.848 87.9979 54C88.0579 54.148 88.1059 54.274 88.1419 54.378L87.3679 54.66C87.3439 54.58 87.3099 54.482 87.2659 54.366C87.2259 54.25 87.1779 54.124 87.1219 53.988C87.0699 53.852 87.0159 53.718 86.9599 53.586C86.9039 53.454 86.8519 53.334 86.8039 53.226C86.7559 53.118 86.7139 53.03 86.6779 52.962L87.4459 52.698ZM98.2099 53.004C98.1819 53.06 98.1559 53.128 98.1319 53.208C98.1119 53.284 98.0939 53.356 98.0779 53.424C98.0459 53.568 98.0039 53.732 97.9519 53.916C97.8999 54.1 97.8379 54.29 97.7659 54.486C97.6939 54.682 97.6079 54.876 97.5079 55.068C97.4119 55.26 97.3019 55.44 97.1779 55.608C96.9979 55.844 96.7879 56.068 96.5479 56.28C96.3079 56.488 96.0399 56.676 95.7439 56.844C95.4479 57.008 95.1219 57.148 94.7659 57.264L94.1119 56.55C94.5079 56.454 94.8499 56.336 95.1379 56.196C95.4299 56.052 95.6839 55.892 95.8999 55.716C96.1159 55.536 96.3039 55.344 96.4639 55.14C96.5959 54.972 96.7079 54.79 96.7999 54.594C96.8959 54.398 96.9739 54.2 97.0339 54C97.0979 53.8 97.1419 53.616 97.1659 53.448C97.1059 53.448 97.0059 53.448 96.8659 53.448C96.7299 53.448 96.5679 53.448 96.3799 53.448C96.1959 53.448 96.0019 53.448 95.7979 53.448C95.5979 53.448 95.4039 53.448 95.2159 53.448C95.0279 53.448 94.8579 53.448 94.7059 53.448C94.5579 53.448 94.4459 53.448 94.3699 53.448C94.2339 53.448 94.0999 53.45 93.9679 53.454C93.8399 53.458 93.7359 53.464 93.6559 53.472V52.626C93.7199 52.63 93.7939 52.636 93.8779 52.644C93.9619 52.652 94.0499 52.66 94.1419 52.668C94.2339 52.672 94.3119 52.674 94.3759 52.674C94.4359 52.674 94.5259 52.674 94.6459 52.674C94.7659 52.674 94.9039 52.674 95.0599 52.674C95.2159 52.674 95.3779 52.674 95.5459 52.674C95.7179 52.674 95.8879 52.674 96.0559 52.674C96.2239 52.674 96.3819 52.674 96.5299 52.674C96.6779 52.674 96.8059 52.674 96.9139 52.674C97.0259 52.674 97.1039 52.674 97.1479 52.674C97.2079 52.674 97.2819 52.672 97.3699 52.668C97.4579 52.66 97.5399 52.646 97.6159 52.626L98.2099 53.004ZM100.658 53.748C100.726 53.76 100.806 53.768 100.898 53.772C100.99 53.776 101.068 53.778 101.132 53.778H103.88C103.952 53.778 104.03 53.776 104.114 53.772C104.198 53.768 104.276 53.76 104.348 53.748V54.504C104.272 54.496 104.192 54.49 104.108 54.486C104.024 54.482 103.948 54.48 103.88 54.48H101.132C101.068 54.48 100.99 54.482 100.898 54.486C100.806 54.49 100.726 54.496 100.658 54.504V53.748ZM102.068 56.82V54.162H102.854V56.82H102.068ZM100.352 56.376C100.428 56.384 100.51 56.392 100.598 56.4C100.686 56.408 100.768 56.412 100.844 56.412H104.162C104.246 56.412 104.326 56.408 104.402 56.4C104.482 56.388 104.554 56.38 104.618 56.376V57.162C104.554 57.15 104.474 57.142 104.378 57.138C104.286 57.134 104.214 57.132 104.162 57.132H100.844C100.772 57.132 100.692 57.134 100.604 57.138C100.516 57.142 100.432 57.15 100.352 57.162V56.376ZM111.08 52.932C111.056 52.968 111.02 53.024 110.972 53.1C110.928 53.176 110.894 53.246 110.87 53.31C110.786 53.498 110.682 53.708 110.558 53.94C110.438 54.172 110.3 54.406 110.144 54.642C109.992 54.874 109.83 55.092 109.658 55.296C109.434 55.548 109.186 55.798 108.914 56.046C108.646 56.29 108.362 56.516 108.062 56.724C107.766 56.928 107.462 57.104 107.15 57.252L106.532 56.604C106.856 56.48 107.17 56.324 107.474 56.136C107.778 55.948 108.06 55.744 108.32 55.524C108.58 55.304 108.804 55.09 108.992 54.882C109.124 54.73 109.248 54.568 109.364 54.396C109.484 54.224 109.59 54.054 109.682 53.886C109.774 53.714 109.842 53.556 109.886 53.412C109.846 53.412 109.774 53.412 109.67 53.412C109.566 53.412 109.444 53.412 109.304 53.412C109.168 53.412 109.024 53.412 108.872 53.412C108.72 53.412 108.574 53.412 108.434 53.412C108.298 53.412 108.178 53.412 108.074 53.412C107.97 53.412 107.896 53.412 107.852 53.412C107.768 53.412 107.68 53.416 107.588 53.424C107.496 53.428 107.408 53.434 107.324 53.442C107.244 53.446 107.182 53.45 107.138 53.454V52.602C107.198 52.606 107.272 52.612 107.36 52.62C107.448 52.628 107.536 52.634 107.624 52.638C107.716 52.642 107.792 52.644 107.852 52.644C107.904 52.644 107.986 52.644 108.098 52.644C108.21 52.644 108.338 52.644 108.482 52.644C108.626 52.644 108.774 52.644 108.926 52.644C109.082 52.644 109.23 52.644 109.37 52.644C109.514 52.644 109.638 52.644 109.742 52.644C109.846 52.644 109.922 52.644 109.97 52.644C110.102 52.644 110.222 52.636 110.33 52.62C110.442 52.604 110.528 52.586 110.588 52.566L111.08 52.932ZM109.736 54.798C109.892 54.922 110.058 55.066 110.234 55.23C110.41 55.394 110.584 55.564 110.756 55.74C110.928 55.916 111.086 56.086 111.23 56.25C111.378 56.41 111.502 56.55 111.602 56.67L110.918 57.264C110.77 57.06 110.6 56.848 110.408 56.628C110.22 56.408 110.02 56.19 109.808 55.974C109.6 55.754 109.388 55.546 109.172 55.35L109.736 54.798ZM113.882 52.398C113.982 52.414 114.09 52.426 114.206 52.434C114.322 52.438 114.428 52.44 114.524 52.44C114.6 52.44 114.72 52.44 114.884 52.44C115.048 52.44 115.232 52.44 115.436 52.44C115.64 52.44 115.844 52.44 116.048 52.44C116.252 52.44 116.432 52.44 116.588 52.44C116.748 52.44 116.864 52.44 116.936 52.44C117.04 52.44 117.148 52.438 117.26 52.434C117.372 52.426 117.48 52.414 117.584 52.398V53.172C117.48 53.164 117.372 53.158 117.26 53.154C117.148 53.15 117.04 53.148 116.936 53.148C116.864 53.148 116.748 53.148 116.588 53.148C116.432 53.148 116.252 53.148 116.048 53.148C115.844 53.148 115.64 53.148 115.436 53.148C115.232 53.148 115.048 53.148 114.884 53.148C114.724 53.148 114.606 53.148 114.53 53.148C114.426 53.148 114.314 53.15 114.194 53.154C114.078 53.158 113.974 53.164 113.882 53.172V52.398ZM113.186 53.934C113.274 53.942 113.368 53.95 113.468 53.958C113.572 53.966 113.67 53.97 113.762 53.97C113.814 53.97 113.918 53.97 114.074 53.97C114.23 53.97 114.418 53.97 114.638 53.97C114.858 53.97 115.094 53.97 115.346 53.97C115.602 53.97 115.856 53.97 116.108 53.97C116.364 53.97 116.602 53.97 116.822 53.97C117.042 53.97 117.228 53.97 117.38 53.97C117.536 53.97 117.64 53.97 117.692 53.97C117.756 53.97 117.842 53.968 117.95 53.964C118.062 53.956 118.158 53.946 118.238 53.934V54.714C118.166 54.706 118.078 54.702 117.974 54.702C117.87 54.698 117.776 54.696 117.692 54.696C117.64 54.696 117.536 54.696 117.38 54.696C117.228 54.696 117.042 54.696 116.822 54.696C116.602 54.696 116.364 54.696 116.108 54.696C115.856 54.696 115.602 54.696 115.346 54.696C115.094 54.696 114.858 54.696 114.638 54.696C114.418 54.696 114.23 54.696 114.074 54.696C113.918 54.696 113.814 54.696 113.762 54.696C113.674 54.696 113.576 54.698 113.468 54.702C113.364 54.706 113.27 54.712 113.186 54.72V53.934ZM116.258 54.348C116.258 54.74 116.224 55.092 116.156 55.404C116.088 55.712 115.99 55.99 115.862 56.238C115.79 56.374 115.694 56.514 115.574 56.658C115.454 56.802 115.316 56.938 115.16 57.066C115.004 57.194 114.836 57.302 114.656 57.39L113.954 56.88C114.166 56.796 114.37 56.676 114.566 56.52C114.762 56.364 114.92 56.198 115.04 56.022C115.192 55.79 115.294 55.534 115.346 55.254C115.398 54.974 115.424 54.674 115.424 54.354L116.258 54.348ZM119.561 55.29C119.821 55.234 120.085 55.158 120.353 55.062C120.625 54.962 120.879 54.856 121.115 54.744C121.351 54.628 121.549 54.524 121.709 54.432C121.905 54.312 122.097 54.178 122.285 54.03C122.477 53.878 122.653 53.726 122.813 53.574C122.973 53.422 123.103 53.28 123.203 53.148L123.797 53.73C123.681 53.862 123.527 54.008 123.335 54.168C123.147 54.324 122.943 54.482 122.723 54.642C122.503 54.798 122.283 54.94 122.063 55.068C121.927 55.152 121.771 55.238 121.595 55.326C121.419 55.41 121.233 55.494 121.037 55.578C120.845 55.658 120.651 55.734 120.455 55.806C120.263 55.878 120.083 55.942 119.915 55.998L119.561 55.29ZM121.637 54.9L122.453 54.744V56.88C122.453 56.948 122.453 57.026 122.453 57.114C122.457 57.202 122.463 57.282 122.471 57.354C122.479 57.43 122.487 57.488 122.495 57.528H121.607C121.615 57.488 121.619 57.43 121.619 57.354C121.623 57.282 121.627 57.202 121.631 57.114C121.635 57.026 121.637 56.948 121.637 56.88V54.9ZM130.199 52.212C130.251 52.284 130.305 52.37 130.361 52.47C130.421 52.57 130.479 52.67 130.535 52.77C130.591 52.87 130.637 52.958 130.673 53.034L130.193 53.244C130.129 53.12 130.055 52.98 129.971 52.824C129.887 52.664 129.805 52.526 129.725 52.41L130.199 52.212ZM130.907 51.942C130.959 52.018 131.015 52.108 131.075 52.212C131.139 52.312 131.199 52.412 131.255 52.512C131.311 52.608 131.357 52.69 131.393 52.758L130.913 52.962C130.853 52.838 130.777 52.698 130.685 52.542C130.597 52.386 130.513 52.252 130.433 52.14L130.907 51.942ZM126.671 55.134C126.739 54.966 126.803 54.79 126.863 54.606C126.927 54.418 126.983 54.226 127.031 54.03C127.079 53.83 127.121 53.632 127.157 53.436C127.197 53.24 127.225 53.046 127.241 52.854L128.117 53.034C128.101 53.09 128.083 53.156 128.063 53.232C128.043 53.308 128.025 53.382 128.009 53.454C127.993 53.526 127.981 53.586 127.973 53.634C127.953 53.738 127.925 53.864 127.889 54.012C127.853 54.16 127.811 54.318 127.763 54.486C127.715 54.65 127.665 54.816 127.613 54.984C127.565 55.148 127.515 55.3 127.463 55.44C127.391 55.632 127.305 55.832 127.205 56.04C127.109 56.248 127.005 56.448 126.893 56.64C126.785 56.832 126.679 57.004 126.575 57.156L125.735 56.802C125.927 56.554 126.105 56.28 126.269 55.98C126.437 55.68 126.571 55.398 126.671 55.134ZM129.635 55.008C129.575 54.848 129.509 54.678 129.437 54.498C129.365 54.318 129.289 54.138 129.209 53.958C129.129 53.778 129.051 53.608 128.975 53.448C128.899 53.288 128.829 53.15 128.765 53.034L129.563 52.776C129.623 52.892 129.693 53.032 129.773 53.196C129.853 53.36 129.933 53.534 130.013 53.718C130.093 53.898 130.171 54.078 130.247 54.258C130.323 54.438 130.391 54.6 130.451 54.744C130.503 54.876 130.559 55.032 130.619 55.212C130.683 55.392 130.747 55.58 130.811 55.776C130.879 55.968 130.941 56.156 130.997 56.34C131.057 56.524 131.107 56.69 131.147 56.838L130.259 57.126C130.207 56.89 130.147 56.65 130.079 56.406C130.011 56.162 129.939 55.922 129.863 55.686C129.791 55.45 129.715 55.224 129.635 55.008ZM135.137 56.868C135.149 56.808 135.159 56.74 135.167 56.664C135.179 56.584 135.185 56.504 135.185 56.424C135.185 56.38 135.185 56.292 135.185 56.16C135.185 56.028 135.185 55.868 135.185 55.68C135.185 55.492 135.185 55.29 135.185 55.074C135.185 54.854 135.185 54.632 135.185 54.408C135.185 54.184 135.185 53.974 135.185 53.778C135.185 53.578 135.185 53.404 135.185 53.256C135.185 53.104 135.185 52.994 135.185 52.926C135.185 52.79 135.177 52.672 135.161 52.572C135.149 52.472 135.141 52.418 135.137 52.41H136.031C136.027 52.418 136.019 52.474 136.007 52.578C135.995 52.678 135.989 52.796 135.989 52.932C135.989 53 135.989 53.102 135.989 53.238C135.989 53.37 135.989 53.524 135.989 53.7C135.989 53.872 135.989 54.056 135.989 54.252C135.989 54.448 135.989 54.642 135.989 54.834C135.989 55.022 135.989 55.202 135.989 55.374C135.989 55.542 135.989 55.686 135.989 55.806C135.989 55.926 135.989 56.014 135.989 56.07C136.153 55.998 136.323 55.9 136.499 55.776C136.675 55.652 136.847 55.508 137.015 55.344C137.187 55.176 137.339 54.996 137.471 54.804L137.933 55.464C137.769 55.68 137.569 55.892 137.333 56.1C137.101 56.308 136.861 56.498 136.613 56.67C136.365 56.842 136.127 56.986 135.899 57.102C135.835 57.138 135.783 57.17 135.743 57.198C135.703 57.23 135.669 57.258 135.641 57.282L135.137 56.868ZM132.359 56.778C132.623 56.594 132.839 56.372 133.007 56.112C133.175 55.852 133.299 55.596 133.379 55.344C133.423 55.212 133.455 55.05 133.475 54.858C133.499 54.662 133.517 54.454 133.529 54.234C133.541 54.01 133.547 53.79 133.547 53.574C133.551 53.354 133.553 53.152 133.553 52.968C133.553 52.848 133.547 52.746 133.535 52.662C133.527 52.574 133.515 52.492 133.499 52.416H134.381C134.377 52.424 134.371 52.458 134.363 52.518C134.359 52.574 134.353 52.642 134.345 52.722C134.341 52.798 134.339 52.878 134.339 52.962C134.339 53.138 134.337 53.344 134.333 53.58C134.329 53.812 134.321 54.05 134.309 54.294C134.297 54.538 134.279 54.77 134.255 54.99C134.231 55.206 134.199 55.39 134.159 55.542C134.067 55.882 133.929 56.198 133.745 56.49C133.565 56.778 133.347 57.036 133.091 57.264L132.359 56.778Z" fill="white"/>
<path d="M42.5637 25V24.34C42.5637 23.38 42.8103 22.4467 43.3037 21.54C43.8103 20.6333 44.6503 19.62 45.8237 18.5C46.237 18.1 46.6303 17.7 47.0037 17.3C47.377 16.8867 47.6837 16.4867 47.9237 16.1C48.1637 15.7 48.2903 15.32 48.3037 14.96C48.317 14.2667 48.157 13.7533 47.8237 13.42C47.5037 13.0867 47.0437 12.92 46.4437 12.92C45.8703 12.92 45.4437 13.1267 45.1637 13.54C44.8837 13.9533 44.7437 14.5333 44.7437 15.28H42.6237C42.6237 13.8933 42.977 12.8133 43.6837 12.04C44.3903 11.2667 45.3103 10.88 46.4437 10.88C47.217 10.88 47.9037 11.04 48.5037 11.36C49.117 11.68 49.597 12.1467 49.9437 12.76C50.2903 13.3733 50.4503 14.1267 50.4237 15.02C50.4103 15.6467 50.2637 16.2267 49.9837 16.76C49.7037 17.2933 49.3303 17.8133 48.8637 18.32C48.4103 18.8133 47.8903 19.34 47.3037 19.9C46.6903 20.5 46.1437 21.0733 45.6637 21.62C45.197 22.1667 44.9237 22.64 44.8437 23.04H50.1837V25H42.5637ZM55.508 25.2C54.8147 25.2 54.148 25.0133 53.508 24.64C52.8814 24.2667 52.3747 23.7933 51.988 23.22L53.588 22C53.828 22.3733 54.1014 22.6733 54.408 22.9C54.728 23.1133 55.0947 23.22 55.508 23.22C56.4147 23.22 57.0814 22.8067 57.508 21.98C57.9347 21.14 58.1614 19.9067 58.188 18.28C57.9614 18.6133 57.6414 18.88 57.228 19.08C56.8147 19.2667 56.3947 19.36 55.968 19.36C55.2214 19.36 54.548 19.1933 53.948 18.86C53.3614 18.5133 52.8947 18.0333 52.548 17.42C52.2147 16.7933 52.048 16.0533 52.048 15.2C52.048 14.3333 52.208 13.5733 52.528 12.92C52.848 12.2533 53.3014 11.7333 53.888 11.36C54.4747 10.9733 55.1547 10.78 55.928 10.78C56.5147 10.78 57.068 10.88 57.588 11.08C58.1214 11.2667 58.588 11.6067 58.988 12.1C59.4014 12.58 59.7214 13.2667 59.948 14.16C60.188 15.0533 60.2947 16.2 60.268 17.6C60.2147 20.2267 59.7814 22.1533 58.968 23.38C58.168 24.5933 57.0147 25.2 55.508 25.2ZM55.988 17.44C56.6147 17.44 57.1014 17.2333 57.448 16.82C57.7947 16.3933 57.9547 15.8467 57.928 15.18C57.9014 14.42 57.7214 13.84 57.388 13.44C57.068 13.0267 56.628 12.82 56.068 12.82C55.4947 12.82 55.0414 13.04 54.708 13.48C54.388 13.92 54.228 14.4933 54.228 15.2C54.228 15.8667 54.388 16.4067 54.708 16.82C55.0414 17.2333 55.468 17.44 55.988 17.44ZM65.3704 25.154C64.7077 25.154 64.199 25.0327 63.8444 24.79C63.499 24.5473 63.3264 24.062 63.3264 23.334V19.624H62.0384V18.266H63.3264V15.9H64.8944V18.266H66.7564V19.624H64.8944V22.928C64.8944 23.2453 64.969 23.46 65.1184 23.572C65.277 23.684 65.501 23.74 65.7904 23.74C65.9677 23.74 66.145 23.712 66.3224 23.656C66.509 23.6 66.6537 23.544 66.7564 23.488V24.93C66.5884 24.9953 66.3784 25.0467 66.1264 25.084C65.8744 25.1307 65.6224 25.154 65.3704 25.154ZM68.4191 25V15.018H70.0011V19.064C70.1504 18.8027 70.3744 18.5787 70.6731 18.392C70.9717 18.196 71.3311 18.098 71.7511 18.098C72.4511 18.098 73.0204 18.322 73.4591 18.77C73.9071 19.218 74.1311 19.876 74.1311 20.744V25H72.5491V21.122C72.5491 20.59 72.4417 20.1933 72.2271 19.932C72.0124 19.6613 71.7231 19.526 71.3591 19.526C70.9577 19.526 70.6311 19.666 70.3791 19.946C70.1271 20.2167 70.0011 20.6227 70.0011 21.164V25H68.4191Z" fill="white"/>
<path d="M25.3043 0V12.8459L11.8745 23.94C8.13764 27.9106 10.3175 33.3798 11.8745 35.6181C-1.20491 30.4798 -1.8881 21.6273 2.53207 18.101L25.3043 0Z" fill="white"/>
<path d="M0.000146866 65.3848V52.5389L13.4299 41.4447C17.1668 37.4742 14.987 32.005 13.4299 29.7667C26.5094 34.905 27.1925 43.7575 22.7724 47.2838L0.000146866 65.3848Z" fill="white"/>
</svg>
