<svg width="208" height="204" viewBox="0 0 208 204" fill="none" xmlns="http://www.w3.org/2000/svg" xmlns:xlink="http://www.w3.org/1999/xlink">
<circle cx="103.695" cy="103.349" r="100" fill="#00BE8A"/>
<use xlink:href="#stroke0_1243_591" transform="translate(206.348 100.005) scale(0.018254) rotate(82.7093)"/>
<use xlink:href="#stroke0_1243_591" transform="translate(208.687 107.9) scale(0.0213712) rotate(148.639)"/>
<use xlink:href="#stroke0_1243_591" transform="translate(199.942 107.754) scale(0.0190032) rotate(-14.9113)"/>
<use xlink:href="#stroke0_1243_591" transform="translate(200.579 115.945) scale(0.0171934) rotate(-92.3335)"/>
<use xlink:href="#stroke0_1243_591" transform="translate(202.867 119.254) scale(0.015322) rotate(-138.661)"/>
<use xlink:href="#stroke0_1243_591" transform="translate(200.162 116.381) scale(0.011658) rotate(-11.8587)"/>
<use xlink:href="#stroke0_1243_591" transform="translate(202.034 121.843) scale(0.00941702) rotate(-125.843)"/>
<use xlink:href="#stroke0_1243_591" transform="translate(204.217 123.082) scale(0.0108522) rotate(176.501)"/>
<use xlink:href="#stroke0_1243_591" transform="translate(199.457 121.947) scale(0.0105374) rotate(-18.8963)"/>
<use xlink:href="#stroke0_1243_591" transform="translate(200.673 122.315) scale(0.0118386) rotate(25.9292)"/>
<use xlink:href="#stroke0_1243_591" transform="translate(196.19 125.496) scale(0.0214597) rotate(-20.8742)"/>
<use xlink:href="#stroke0_1243_591" transform="translate(201.849 128.725) scale(0.00936986) rotate(95.2857)"/>
<use xlink:href="#stroke0_1243_591" transform="translate(197.076 131.188) scale(0.0111727) rotate(-33.6079)"/>
<use xlink:href="#stroke0_1243_591" transform="translate(196.587 132.053) scale(0.011626) rotate(-13.7564)"/>
<use xlink:href="#stroke0_1243_591" transform="translate(197.087 133.76) scale(0.00923147) rotate(-2.29816)"/>
<use xlink:href="#stroke0_1243_591" transform="translate(195.92 137.906) scale(0.00996769) rotate(-77.6706)"/>
<use xlink:href="#stroke0_1243_591" transform="translate(196.161 135.398) scale(0.0144412) rotate(25.5658)"/>
<use xlink:href="#stroke0_1243_591" transform="translate(192.176 137.264) scale(0.0244839) rotate(3.00331)"/>
<use xlink:href="#stroke0_1243_591" transform="translate(197.072 144.059) scale(0.00977169) rotate(131.602)"/>
<use xlink:href="#stroke0_1243_591" transform="translate(198.291 144.226) scale(0.0221312) rotate(107.338)"/>
<use xlink:href="#stroke0_1243_591" transform="translate(196.104 146.693) scale(0.0211502) rotate(92.9521)"/>
<use xlink:href="#stroke0_1243_591" transform="translate(192.842 152.966) scale(0.00966308) rotate(159.302)"/>
<use xlink:href="#stroke0_1243_591" transform="translate(188.693 151.426) scale(0.0123809) rotate(10.7419)"/>
<use xlink:href="#stroke0_1243_591" transform="translate(188.051 153.429) scale(0.00919148) rotate(12.8494)"/>
<use xlink:href="#stroke0_1243_591" transform="translate(189.815 158.356) scale(0.00935594) rotate(-174.059)"/>
<use xlink:href="#stroke0_1243_591" transform="translate(185.815 159.986) scale(0.0109741) rotate(-96.5619)"/>
<use xlink:href="#stroke0_1243_591" transform="translate(188.867 158.81) scale(0.0108587) rotate(118.378)"/>
<use xlink:href="#stroke0_1243_591" transform="translate(183.574 159.887) scale(0.0102731) rotate(-15.1621)"/>
<use xlink:href="#stroke0_1243_591" transform="translate(186.546 167.893) scale(0.0238029) rotate(-167.311)"/>
<use xlink:href="#stroke0_1243_591" transform="translate(180.605 168.926) scale(0.0144221) rotate(-114.33)"/>
<use xlink:href="#stroke0_1243_591" transform="translate(181.923 165.475) scale(0.0101579) rotate(74.5582)"/>
<use xlink:href="#stroke0_1243_591" transform="translate(177.521 166.213) scale(0.0136696) rotate(11.2311)"/>
<use xlink:href="#stroke0_1243_591" transform="translate(174.922 170.269) scale(0.0131251) rotate(-37.2673)"/>
<use xlink:href="#stroke0_1243_591" transform="translate(174.619 167.264) scale(0.0236239) rotate(34.1314)"/>
<use xlink:href="#stroke0_1243_591" transform="translate(171.541 172.798) scale(0.0130936) rotate(1.61126)"/>
<use xlink:href="#stroke0_1243_591" transform="translate(169.313 175.541) scale(0.0121422) rotate(-27.7506)"/>
<use xlink:href="#stroke0_1243_591" transform="translate(170.368 183.096) scale(0.0205518) rotate(-139.558)"/>
<use xlink:href="#stroke0_1243_591" transform="translate(167.904 177.529) scale(0.0106638) rotate(40.0469)"/>
<use xlink:href="#stroke0_1243_591" transform="translate(165.084 185.644) scale(0.0181422) rotate(-119.716)"/>
<use xlink:href="#stroke0_1243_591" transform="translate(160.922 185.155) scale(0.0154734) rotate(-79.7553)"/>
<use xlink:href="#stroke0_1243_591" transform="translate(160.906 179.337) scale(0.024553) rotate(41.2104)"/>
<use xlink:href="#stroke0_1243_591" transform="translate(159.66 190.994) scale(0.0173659) rotate(-153.826)"/>
<use xlink:href="#stroke0_1243_591" transform="translate(158.774 189.764) scale(0.0115869) rotate(162.671)"/>
<use xlink:href="#stroke0_1243_591" transform="translate(156.293 185.653) scale(0.0207785) rotate(70.1778)"/>
<use xlink:href="#stroke0_1243_591" transform="translate(151.841 187.933) scale(0.0147405) rotate(49.5856)"/>
<use xlink:href="#stroke0_1243_591" transform="translate(144.248 194.335) scale(0.0209323) rotate(-65.6346)"/>
<use xlink:href="#stroke0_1243_591" transform="translate(143.77 198.926) scale(0.0217547) rotate(-114.172)"/>
<use xlink:href="#stroke0_1243_591" transform="translate(138.037 191.931) scale(0.0243012) rotate(-2.30548)"/>
<use xlink:href="#stroke0_1243_591" transform="translate(142.526 196.467) scale(0.0150219) rotate(128.636)"/>
<use xlink:href="#stroke0_1243_591" transform="translate(137.855 195.296) scale(0.00937591) rotate(65.4112)"/>
<use xlink:href="#stroke0_1243_591" transform="translate(137.341 200.605) scale(0.0143175) rotate(-175.085)"/>
<use xlink:href="#stroke0_1243_591" transform="translate(127.525 199.836) scale(0.0212999) rotate(-54.3392)"/>
<use xlink:href="#stroke0_1243_591" transform="translate(129.301 196.381) scale(0.0163582) rotate(41.273)"/>
<use xlink:href="#stroke0_1243_591" transform="translate(124.248 203.643) scale(0.0172859) rotate(-98.9189)"/>
<use xlink:href="#stroke0_1243_591" transform="translate(121.641 203.114) scale(0.013685) rotate(-82.5139)"/>
<use xlink:href="#stroke0_1243_591" transform="translate(124.527 199.832) scale(0.0139832) rotate(95.0123)"/>
<use xlink:href="#stroke0_1243_591" transform="translate(121.496 197.104) scale(0.023952) rotate(72.9788)"/>
<use xlink:href="#stroke0_1243_591" transform="translate(115.699 207.188) scale(0.01977) rotate(-141.664)"/>
<use xlink:href="#stroke0_1243_591" transform="translate(113.267 205.223) scale(0.00978641) rotate(-147.826)"/>
<use xlink:href="#stroke0_1243_591" transform="translate(112.576 201.178) scale(0.0105763) rotate(80.8982)"/>
<use xlink:href="#stroke0_1243_591" transform="translate(112.23 202.702) scale(0.0137472) rotate(123.465)"/>
<use xlink:href="#stroke0_1243_591" transform="translate(104.78 199.677) scale(0.0171039) rotate(18.7219)"/>
<use xlink:href="#stroke0_1243_591" transform="translate(101.939 207.787) scale(0.0194553) rotate(-116.271)"/>
<use xlink:href="#stroke0_1243_591" transform="translate(98.5073 204.84) scale(0.0124715) rotate(-83.9562)"/>
<use xlink:href="#stroke0_1243_591" transform="translate(96.8255 201.551) scale(0.0117904) rotate(-0.370976)"/>
<use xlink:href="#stroke0_1243_591" transform="translate(95.2684 204.966) scale(0.0106275) rotate(-94.3663)"/>
<use xlink:href="#stroke0_1243_591" transform="translate(97.1628 205.755) scale(0.0170593) rotate(-175.021)"/>
<use xlink:href="#stroke0_1243_591" transform="translate(96.4184 202.97) scale(0.0215097) rotate(136.129)"/>
<use xlink:href="#stroke0_1243_591" transform="translate(89.7073 206.568) scale(0.0202504) rotate(-157.243)"/>
<use xlink:href="#stroke0_1243_591" transform="translate(85.5316 199.565) scale(0.0101508) rotate(46.661)"/>
<use xlink:href="#stroke0_1243_591" transform="translate(80.0599 201.809) scale(0.0145404) rotate(-52.1702)"/>
<use xlink:href="#stroke0_1243_591" transform="translate(80.6564 203.334) scale(0.0112387) rotate(-119.926)"/>
<use xlink:href="#stroke0_1243_591" transform="translate(79.7123 195.794) scale(0.0190078) rotate(54.3093)"/>
<use xlink:href="#stroke0_1243_591" transform="translate(77.3489 202.52) scale(0.0141396) rotate(-154.367)"/>
<use xlink:href="#stroke0_1243_591" transform="translate(73.2877 201.17) scale(0.0095916) rotate(-108.947)"/>
<use xlink:href="#stroke0_1243_591" transform="translate(75.5022 199.64) scale(0.0140824) rotate(159.41)"/>
<use xlink:href="#stroke0_1243_591" transform="translate(69.483 201.874) scale(0.0199589) rotate(-130.821)"/>
<use xlink:href="#stroke0_1243_591" transform="translate(64.4569 199.556) scale(0.0161992) rotate(-95.9545)"/>
<use xlink:href="#stroke0_1243_591" transform="translate(65.107 193.214) scale(0.00910598) rotate(43.4926)"/>
<use xlink:href="#stroke0_1243_591" transform="translate(63.6202 191.037) scale(0.015127) rotate(49.7801)"/>
<use xlink:href="#stroke0_1243_591" transform="translate(57.2333 190.078) scale(0.0203446) rotate(0.719046)"/>
<use xlink:href="#stroke0_1243_591" transform="translate(60.876 193.119) scale(0.0126766) rotate(148.499)"/>
<use xlink:href="#stroke0_1243_591" transform="translate(54.8862 194.768) scale(0.0166683) rotate(-119.628)"/>
<use xlink:href="#stroke0_1243_591" transform="translate(54.1546 186.366) scale(0.0149302) rotate(52.9547)"/>
<use xlink:href="#stroke0_1243_591" transform="translate(54.2076 188.863) scale(0.0102479) rotate(136.417)"/>
<use xlink:href="#stroke0_1243_591" transform="translate(44.3471 188.906) scale(0.0234982) rotate(-64.7523)"/>
<use xlink:href="#stroke0_1243_591" transform="translate(44.541 186.03) scale(0.0103709) rotate(-48.7837)"/>
<use xlink:href="#stroke0_1243_591" transform="translate(45.4106 187.666) scale(0.0122807) rotate(-135.315)"/>
<use xlink:href="#stroke0_1243_591" transform="translate(46.2563 184.364) scale(0.0101187) rotate(154.744)"/>
<use xlink:href="#stroke0_1243_591" transform="translate(40.8683 180.832) scale(0.0105158) rotate(-1.97676)"/>
<use xlink:href="#stroke0_1243_591" transform="translate(44.7585 183.361) scale(0.0207115) rotate(162.904)"/>
<use xlink:href="#stroke0_1243_591" transform="translate(41.0998 175.263) scale(0.0208155) rotate(86.6919)"/>
<use xlink:href="#stroke0_1243_591" transform="translate(33.2495 178.116) scale(0.0122729) rotate(-70.4978)"/>
<use xlink:href="#stroke0_1243_591" transform="translate(35.7129 177.548) scale(0.00938834) rotate(-169.242)"/>
<use xlink:href="#stroke0_1243_591" transform="translate(32.6829 168.346) scale(0.0233925) rotate(45.7915)"/>
<use xlink:href="#stroke0_1243_591" transform="translate(32.5891 172.918) scale(0.00909603) rotate(170.319)"/>
<use xlink:href="#stroke0_1243_591" transform="translate(28.9016 168.128) scale(0.0112069) rotate(32.7126)"/>
<use xlink:href="#stroke0_1243_591" transform="translate(29.827 171.647) scale(0.0133398) rotate(-162.977)"/>
<use xlink:href="#stroke0_1243_591" transform="translate(24.5863 161.17) scale(0.0244119) rotate(28.4045)"/>
<use xlink:href="#stroke0_1243_591" transform="translate(24.6144 166.809) scale(0.0112456) rotate(-138.276)"/>
<use xlink:href="#stroke0_1243_591" transform="translate(25.9672 166.527) scale(0.0245666) rotate(-173.955)"/>
<use xlink:href="#stroke0_1243_591" transform="translate(23.3711 160.909) scale(0.0123031) rotate(169.978)"/>
<use xlink:href="#stroke0_1243_591" transform="translate(17.4754 155.205) scale(0.0136723) rotate(2.24714)"/>
<use xlink:href="#stroke0_1243_591" transform="translate(19.6377 159.052) scale(0.0167326) rotate(-153.467)"/>
<use xlink:href="#stroke0_1243_591" transform="translate(19.4076 153.25) scale(0.00976881) rotate(127.072)"/>
<use xlink:href="#stroke0_1243_591" transform="translate(15.1694 147.725) scale(0.0168711) rotate(29.7735)"/>
<use xlink:href="#stroke0_1243_591" transform="translate(13.1304 147.981) scale(0.0103625) rotate(-2.01095)"/>
<use xlink:href="#stroke0_1243_591" transform="translate(10.0175 150.336) scale(0.0202318) rotate(-84.3048)"/>
<use xlink:href="#stroke0_1243_591" transform="translate(13.8962 147.126) scale(0.0102705) rotate(-167.596)"/>
<use xlink:href="#stroke0_1243_591" transform="translate(9.08718 143.332) scale(0.0116287) rotate(-43.1633)"/>
<use xlink:href="#stroke0_1243_591" transform="translate(11.1071 138.084) scale(0.0144156) rotate(46.8643)"/>
<use xlink:href="#stroke0_1243_591" transform="translate(10.6345 141.944) scale(0.0111639) rotate(-138.46)"/>
<use xlink:href="#stroke0_1243_591" transform="translate(10.4419 140.046) scale(0.010452) rotate(-157.207)"/>
<use xlink:href="#stroke0_1243_591" transform="translate(13.6449 132.572) scale(0.0235349) rotate(107.456)"/>
<use xlink:href="#stroke0_1243_591" transform="translate(5.16183 131.016) scale(0.0122294) rotate(-20.3655)"/>
<use xlink:href="#stroke0_1243_591" transform="translate(10.1244 129.949) scale(0.0120116) rotate(127.975)"/>
<use xlink:href="#stroke0_1243_591" transform="translate(2.38469 127.584) scale(0.0193796) rotate(-44.6919)"/>
<use xlink:href="#stroke0_1243_591" transform="translate(7.0362 128.267) scale(0.01474) rotate(-147.907)"/>
<use xlink:href="#stroke0_1243_591" transform="translate(6.54318 116.419) scale(0.0236588) rotate(56.394)"/>
<use xlink:href="#stroke0_1243_591" transform="translate(5.5142 121.287) scale(0.00970671) rotate(-147.612)"/>
<use xlink:href="#stroke0_1243_591" transform="translate(6.00375 113.278) scale(0.016891) rotate(67.2273)"/>
<use xlink:href="#stroke0_1243_591" transform="translate(3.85462 110.631) scale(0.0154571) rotate(39.0902)"/>
<use xlink:href="#stroke0_1243_591" transform="translate(3.0891 116.277) scale(0.0224619) rotate(-126.877)"/>
<use xlink:href="#stroke0_1243_591" transform="translate(8.58794 109.462) scale(0.0218312) rotate(158.235)"/>
<use xlink:href="#stroke0_1243_591" transform="translate(1.38809 102.43) scale(0.0134514) rotate(-5.56297)"/>
<use xlink:href="#stroke0_1243_591" transform="translate(7.80572 100.831) scale(0.0175099) rotate(119.57)"/>
<use xlink:href="#stroke0_1243_591" transform="translate(5.33752 95.4045) scale(0.0170501) rotate(70.338)"/>
<use xlink:href="#stroke0_1243_591" transform="translate(0.869987 97.4492) scale(0.0126827) rotate(-64.2944)"/>
<use xlink:href="#stroke0_1243_591" transform="translate(6.81307 92.2166) scale(0.0139862) rotate(94.0931)"/>
<use xlink:href="#stroke0_1243_591" transform="translate(6.98459 92.9138) scale(0.0116433) rotate(149.69)"/>
<use xlink:href="#stroke0_1243_591" transform="translate(2.30404 90.0902) scale(0.0104905) rotate(-38.926)"/>
<use xlink:href="#stroke0_1243_591" transform="translate(7.80759 89.9295) scale(0.013281) rotate(162.973)"/>
<use xlink:href="#stroke0_1243_591" transform="translate(6.82138 88.683) scale(0.0121611) rotate(-169.473)"/>
<use xlink:href="#stroke0_1243_591" transform="translate(6.2674 82.5433) scale(0.00924258) rotate(66.1336)"/>
<use xlink:href="#stroke0_1243_591" transform="translate(5.31103 86.286) scale(0.0166291) rotate(-126.713)"/>
<use xlink:href="#stroke0_1243_591" transform="translate(3.34983 79.8911) scale(0.0125383) rotate(-42.9312)"/>
<use xlink:href="#stroke0_1243_591" transform="translate(8.68589 82.5888) scale(0.024185) rotate(-150.549)"/>
<use xlink:href="#stroke0_1243_591" transform="translate(8.10809 68.0911) scale(0.0225828) rotate(42.5558)"/>
<use xlink:href="#stroke0_1243_591" transform="translate(8.5044 68.0025) scale(0.0112194) rotate(36.1318)"/>
<use xlink:href="#stroke0_1243_591" transform="translate(9.29584 65.0521) scale(0.0150998) rotate(37.8237)"/>
<use xlink:href="#stroke0_1243_591" transform="translate(13.0606 67.4682) scale(0.0106487) rotate(153.48)"/>
<use xlink:href="#stroke0_1243_591" transform="translate(7.56706 61.8896) scale(0.0208459) rotate(-16.4078)"/>
<use xlink:href="#stroke0_1243_591" transform="translate(14.0952 66.2108) scale(0.0223951) rotate(-143.835)"/>
<use xlink:href="#stroke0_1243_591" transform="translate(14.8665 56.3396) scale(0.00957449) rotate(61.972)"/>
<use xlink:href="#stroke0_1243_591" transform="translate(16.5023 59.29) scale(0.0122395) rotate(-167.214)"/>
<use xlink:href="#stroke0_1243_591" transform="translate(17.3204 52.9664) scale(0.0110457) rotate(76.8677)"/>
<use xlink:href="#stroke0_1243_591" transform="translate(19.6755 51.6717) scale(0.0133438) rotate(98.5413)"/>
<use xlink:href="#stroke0_1243_591" transform="translate(16.3496 53.3598) scale(0.00946615) rotate(-96.2812)"/>
<use xlink:href="#stroke0_1243_591" transform="translate(20.8651 50.8459) scale(0.00928999) rotate(145.72)"/>
<use xlink:href="#stroke0_1243_591" transform="translate(17.5993 52.9129) scale(0.0233482) rotate(-108.18)"/>
<use xlink:href="#stroke0_1243_591" transform="translate(20.8398 48.0465) scale(0.0102584) rotate(-109.367)"/>
<use xlink:href="#stroke0_1243_591" transform="translate(25.17 45.7981) scale(0.0103592) rotate(163.551)"/>
<use xlink:href="#stroke0_1243_591" transform="translate(24.8574 41.2465) scale(0.00922715) rotate(75.3798)"/>
<use xlink:href="#stroke0_1243_591" transform="translate(25.5339 39.9847) scale(0.00910934) rotate(64.0779)"/>
<use xlink:href="#stroke0_1243_591" transform="translate(24.5828 43.2529) scale(0.0131879) rotate(-111.474)"/>
<use xlink:href="#stroke0_1243_591" transform="translate(25.9949 43.5676) scale(0.0244478) rotate(-113.834)"/>
<use xlink:href="#stroke0_1243_591" transform="translate(32.4474 35.312) scale(0.011271) rotate(122.873)"/>
<use xlink:href="#stroke0_1243_591" transform="translate(31.8828 38.0543) scale(0.0157456) rotate(-140.061)"/>
<use xlink:href="#stroke0_1243_591" transform="translate(30.9724 35.0829) scale(0.0149545) rotate(-93.7349)"/>
<use xlink:href="#stroke0_1243_591" transform="translate(35.525 29.1392) scale(0.00914612) rotate(63.6475)"/>
<use xlink:href="#stroke0_1243_591" transform="translate(36.7515 27.3608) scale(0.0112154) rotate(63.0934)"/>
<use xlink:href="#stroke0_1243_591" transform="translate(41.3611 29.5921) scale(0.0166141) rotate(152.907)"/>
<use xlink:href="#stroke0_1243_591" transform="translate(43.6508 26.668) scale(0.016452) rotate(135.238)"/>
<use xlink:href="#stroke0_1243_591" transform="translate(40.3339 21.3914) scale(0.0153306) rotate(22.2525)"/>
<use xlink:href="#stroke0_1243_591" transform="translate(46.4999 19.3552) scale(0.0193006) rotate(75.447)"/>
<use xlink:href="#stroke0_1243_591" transform="translate(43.9272 16.2699) scale(0.0227958) rotate(12.3951)"/>
<use xlink:href="#stroke0_1243_591" transform="translate(48.5588 22.0572) scale(0.0127096) rotate(-122.97)"/>
<use xlink:href="#stroke0_1243_591" transform="translate(49.1985 16.3203) scale(0.0128566) rotate(-0.0495247)"/>
<use xlink:href="#stroke0_1243_591" transform="translate(50.4999 16.548) scale(0.00913988) rotate(-32.2248)"/>
<use xlink:href="#stroke0_1243_591" transform="translate(58.6364 16.7244) scale(0.0169771) rotate(139.804)"/>
<use xlink:href="#stroke0_1243_591" transform="translate(54.13 14.3368) scale(0.0107887) rotate(-31.096)"/>
<use xlink:href="#stroke0_1243_591" transform="translate(54.3532 13.8126) scale(0.0184786) rotate(-46.8913)"/>
<use xlink:href="#stroke0_1243_591" transform="translate(62.4387 14.7824) scale(0.00927) rotate(-178.003)"/>
<use xlink:href="#stroke0_1243_591" transform="translate(60.2011 15.9212) scale(0.0211325) rotate(-98.0035)"/>
<use xlink:href="#stroke0_1243_591" transform="translate(63.8822 13.0768) scale(0.0124753) rotate(-95.4093)"/>
<use xlink:href="#stroke0_1243_591" transform="translate(64.4474 10.5083) scale(0.014621) rotate(-56.5387)"/>
<use xlink:href="#stroke0_1243_591" transform="translate(70.6324 7.02869) scale(0.0109117) rotate(60.2578)"/>
<use xlink:href="#stroke0_1243_591" transform="translate(72.3648 10.9897) scale(0.0107997) rotate(-154.905)"/>
<use xlink:href="#stroke0_1243_591" transform="translate(74.9906 9.62045) scale(0.00969978) rotate(172.396)"/>
<use xlink:href="#stroke0_1243_591" transform="translate(72.6523 9.53071) scale(0.0126546) rotate(-83.2701)"/>
<use xlink:href="#stroke0_1243_591" transform="translate(78.9075 4.92252) scale(0.012572) rotate(84.2302)"/>
<use xlink:href="#stroke0_1243_591" transform="translate(77.9985 8.83614) scale(0.0101576) rotate(-115.277)"/>
<use xlink:href="#stroke0_1243_591" transform="translate(78.556 4.10516) scale(0.0111439) rotate(-2.96774)"/>
<use xlink:href="#stroke0_1243_591" transform="translate(81.3683 7.9388) scale(0.0105067) rotate(-114.158)"/>
<use xlink:href="#stroke0_1243_591" transform="translate(87.0246 2.53691) scale(0.0160714) rotate(87.4735)"/>
<use xlink:href="#stroke0_1243_591" transform="translate(83.1262 5.58379) scale(0.0180613) rotate(-61.4157)"/>
<use xlink:href="#stroke0_1243_591" transform="translate(87.4419 5.66449) scale(0.0106169) rotate(-74.7565)"/>
<use xlink:href="#stroke0_1243_591" transform="translate(90.2301 -1.21612) scale(0.0236487) rotate(21.0332)"/>
<use xlink:href="#stroke0_1243_591" transform="translate(94.2391 -0.364505) scale(0.0178784) rotate(21.57)"/>
<use xlink:href="#stroke0_1243_591" transform="translate(93.9005 3.55637) scale(0.0229777) rotate(-44.9069)"/>
<use xlink:href="#stroke0_1243_591" transform="translate(105.605 0.969974) scale(0.0162433) rotate(98.439)"/>
<use xlink:href="#stroke0_1243_591" transform="translate(108.465 1.74019) scale(0.0157174) rotate(106.973)"/>
<use xlink:href="#stroke0_1243_591" transform="translate(111.621 2.44249) scale(0.016345) rotate(122.676)"/>
<use xlink:href="#stroke0_1243_591" transform="translate(106.717 3.09684) scale(0.0169268) rotate(-36.7917)"/>
<use xlink:href="#stroke0_1243_591" transform="translate(110.043 4.29789) scale(0.0132065) rotate(-51.475)"/>
<use xlink:href="#stroke0_1243_591" transform="translate(116.828 5.62672) scale(0.00980759) rotate(172.04)"/>
<use xlink:href="#stroke0_1243_591" transform="translate(118.439 2.89444) scale(0.009548) rotate(98.0416)"/>
<use xlink:href="#stroke0_1243_591" transform="translate(118.941 1.86872) scale(0.0110389) rotate(57.6744)"/>
<use xlink:href="#stroke0_1243_591" transform="translate(120.312 9.10256) scale(0.017555) rotate(-130.944)"/>
<use xlink:href="#stroke0_1243_591" transform="translate(120.444 6.84019) scale(0.0127748) rotate(-72.0814)"/>
<use xlink:href="#stroke0_1243_591" transform="translate(128.067 5.2502) scale(0.0122258) rotate(127.34)"/>
<use xlink:href="#stroke0_1243_591" transform="translate(127.939 10.2385) scale(0.0177397) rotate(-139.347)"/>
<use xlink:href="#stroke0_1243_591" transform="translate(134.265 5.5515) scale(0.0178056) rotate(110.835)"/>
<use xlink:href="#stroke0_1243_591" transform="translate(134.222 9.09255) scale(0.00929036) rotate(179.514)"/>
<use xlink:href="#stroke0_1243_591" transform="translate(132.484 6.52448) scale(0.00976161) rotate(-4.75868)"/>
<use xlink:href="#stroke0_1243_591" transform="translate(134.087 10.3219) scale(0.00937189) rotate(-90.6725)"/>
<use xlink:href="#stroke0_1243_591" transform="translate(135.022 7.00033) scale(0.014664) rotate(-3.73643)"/>
<use xlink:href="#stroke0_1243_591" transform="translate(139.569 11.9811) scale(0.00946978) rotate(-136.408)"/>
<use xlink:href="#stroke0_1243_591" transform="translate(137.476 8.33496) scale(0.022053) rotate(-13.6667)"/>
<use xlink:href="#stroke0_1243_591" transform="translate(141.829 10.6863) scale(0.0134083) rotate(-16.3761)"/>
<use xlink:href="#stroke0_1243_591" transform="translate(145.664 16.3415) scale(0.0158855) rotate(-115.366)"/>
<use xlink:href="#stroke0_1243_591" transform="translate(150.144 12.6613) scale(0.00907262) rotate(89.5213)"/>
<use xlink:href="#stroke0_1243_591" transform="translate(152.001 15.7688) scale(0.00940333) rotate(166.557)"/>
<use xlink:href="#stroke0_1243_591" transform="translate(149.262 14.43) scale(0.0109412) rotate(-22.5857)"/>
<use xlink:href="#stroke0_1243_591" transform="translate(150.407 20.4299) scale(0.0209264) rotate(-91.4559)"/>
<use xlink:href="#stroke0_1243_591" transform="translate(162.193 20.8165) scale(0.0236588) rotate(156.517)"/>
<use xlink:href="#stroke0_1243_591" transform="translate(159.111 17.6939) scale(0.0105495) rotate(33.651)"/>
<use xlink:href="#stroke0_1243_591" transform="translate(164.495 21.6982) scale(0.014701) rotate(134.884)"/>
<use xlink:href="#stroke0_1243_591" transform="translate(161.886 18.4061) scale(0.0229386) rotate(25.6974)"/>
<use xlink:href="#stroke0_1243_591" transform="translate(165.511 28.0874) scale(0.0128824) rotate(-124.531)"/>
<use xlink:href="#stroke0_1243_591" transform="translate(165.168 26.6988) scale(0.00936085) rotate(-50.3596)"/>
<use xlink:href="#stroke0_1243_591" transform="translate(168 23.0891) scale(0.0227436) rotate(28.8986)"/>
<use xlink:href="#stroke0_1243_591" transform="translate(175.316 31.1286) scale(0.0151569) rotate(150.187)"/>
<use xlink:href="#stroke0_1243_591" transform="translate(178.308 29.1215) scale(0.0228874) rotate(95.9826)"/>
<use xlink:href="#stroke0_1243_591" transform="translate(178.791 38.1763) scale(0.0174426) rotate(-170.278)"/>
<use xlink:href="#stroke0_1243_591" transform="translate(175.352 34.3069) scale(0.0176093) rotate(-8.02783)"/>
<use xlink:href="#stroke0_1243_591" transform="translate(181.54 36.5474) scale(0.0120251) rotate(77.7036)"/>
<use xlink:href="#stroke0_1243_591" transform="translate(178.812 39.9539) scale(0.0111833) rotate(-39.7277)"/>
<use xlink:href="#stroke0_1243_591" transform="translate(187.04 40.7663) scale(0.0188603) rotate(114.599)"/>
<use xlink:href="#stroke0_1243_591" transform="translate(182.054 45.2584) scale(0.0112802) rotate(-69.3056)"/>
<use xlink:href="#stroke0_1243_591" transform="translate(183.997 47.8839) scale(0.0108607) rotate(-101.405)"/>
<use xlink:href="#stroke0_1243_591" transform="translate(187.642 45.741) scale(0.00918928) rotate(87.6419)"/>
<use xlink:href="#stroke0_1243_591" transform="translate(185.975 45.7222) scale(0.014939) rotate(21.9924)"/>
<use xlink:href="#stroke0_1243_591" transform="translate(186.562 52.6499) scale(0.011915) rotate(-88.2983)"/>
<use xlink:href="#stroke0_1243_591" transform="translate(185.95 56.4585) scale(0.0235492) rotate(-82.5137)"/>
<use xlink:href="#stroke0_1243_591" transform="translate(190.268 53.8302) scale(0.00946947) rotate(11.9482)"/>
<use xlink:href="#stroke0_1243_591" transform="translate(198.388 58.8093) scale(0.0241308) rotate(140.938)"/>
<use xlink:href="#stroke0_1243_591" transform="translate(195.995 58.4846) scale(0.0116679) rotate(80.3335)"/>
<use xlink:href="#stroke0_1243_591" transform="translate(194.655 65.2865) scale(0.0123546) rotate(-122.576)"/>
<use xlink:href="#stroke0_1243_591" transform="translate(194.7 66.932) scale(0.0110777) rotate(-116.117)"/>
<use xlink:href="#stroke0_1243_591" transform="translate(200.744 70.0269) scale(0.0211521) rotate(174.914)"/>
<use xlink:href="#stroke0_1243_591" transform="translate(196.337 67.3526) scale(0.0102251) rotate(11.1721)"/>
<use xlink:href="#stroke0_1243_591" transform="translate(198.069 73.0407) scale(0.0098387) rotate(-122.957)"/>
<use xlink:href="#stroke0_1243_591" transform="translate(194.646 70.8033) scale(0.0219586) rotate(-14.9261)"/>
<use xlink:href="#stroke0_1243_591" transform="translate(202.068 82.2473) scale(0.0235942) rotate(-153.853)"/>
<use xlink:href="#stroke0_1243_591" transform="translate(204.787 78.8618) scale(0.0171366) rotate(112.85)"/>
<use xlink:href="#stroke0_1243_591" transform="translate(207.232 84.0456) scale(0.0233991) rotate(138.667)"/>
<use xlink:href="#stroke0_1243_591" transform="translate(203.107 89.0335) scale(0.0114566) rotate(-153.463)"/>
<use xlink:href="#stroke0_1243_591" transform="translate(203.851 85.3654) scale(0.0152257) rotate(65.313)"/>
<use xlink:href="#stroke0_1243_591" transform="translate(205.463 90.6227) scale(0.0106921) rotate(130.003)"/>
<use xlink:href="#stroke0_1243_591" transform="translate(203.172 95.161) scale(0.0109088) rotate(-138.015)"/>
<use xlink:href="#stroke0_1243_591" transform="translate(201.111 93.3459) scale(0.0101045) rotate(-20.5814)"/>
<use xlink:href="#stroke0_1243_591" transform="translate(208.973 98.6572) scale(0.0235294) rotate(150.428)"/>
<use xlink:href="#stroke0_1243_591" transform="translate(205.237 102.754) scale(0.012587) rotate(-162.776)"/>
<use xlink:href="#stroke0_1243_591" transform="translate(204.373 104.106) scale(0.00972774) rotate(-158.049)"/>
<use xlink:href="#stroke0_1243_591" transform="translate(205.376 104.997) scale(0.0108018) rotate(175.029)"/>
<path d="M42.712 129.96L65.944 101.976H36.28V95.736H75.16V102.024L51.976 129.96H42.712ZM116.961 130.008C111.969 130.008 108.097 128.504 105.345 125.496C102.593 122.456 101.217 118.216 101.217 112.776C101.217 106.856 102.929 102.52 106.353 99.768C109.809 97.016 114.625 95.64 120.801 95.64H140.145V101.88H121.329C117.841 101.88 115.073 102.472 113.025 103.656C111.009 104.808 109.761 106.84 109.281 109.752H131.697C135.249 109.752 138.049 110.648 140.097 112.44C142.145 114.2 143.169 116.648 143.169 119.784C143.169 123.016 142.145 125.528 140.097 127.32C138.049 129.112 135.249 130.008 131.697 130.008H116.961ZM117.489 123.768H130.209C131.969 123.768 133.329 123.448 134.289 122.808C135.249 122.136 135.729 121.144 135.729 119.832C135.729 118.552 135.249 117.592 134.289 116.952C133.329 116.312 131.969 115.992 130.209 115.992H109.281C110.017 121.176 112.753 123.768 117.489 123.768Z" fill="#FFEC5F"/>
<path d="M83.3769 114.22H93.7969V115.68H83.3769V114.22ZM83.3769 119.04H93.8969V120.46H83.3769V119.04ZM83.2169 123.86H93.7969V125.32H83.2169V123.86ZM82.4369 114.22H83.9569V120.38C83.9569 121.247 83.9102 122.173 83.8169 123.16C83.7369 124.147 83.5635 125.147 83.2969 126.16C83.0302 127.16 82.6302 128.127 82.0969 129.06C81.5769 129.993 80.8835 130.833 80.0169 131.58C79.9502 131.473 79.8435 131.347 79.6969 131.2C79.5635 131.053 79.4235 130.913 79.2769 130.78C79.1302 130.66 78.9969 130.567 78.8769 130.5C79.6902 129.78 80.3302 129.007 80.7969 128.18C81.2769 127.34 81.6302 126.473 81.8569 125.58C82.0969 124.687 82.2502 123.8 82.3169 122.92C82.3969 122.027 82.4369 121.18 82.4369 120.38V114.22ZM93.1369 114.22H94.7169V129.34C94.7169 129.873 94.6369 130.28 94.4769 130.56C94.3169 130.84 94.0502 131.047 93.6769 131.18C93.2902 131.313 92.7502 131.393 92.0569 131.42C91.3635 131.46 90.4835 131.48 89.4169 131.48C89.3902 131.32 89.3369 131.147 89.2569 130.96C89.1902 130.773 89.1102 130.58 89.0169 130.38C88.9369 130.193 88.8569 130.033 88.7769 129.9C89.3369 129.913 89.8702 129.927 90.3769 129.94C90.8969 129.94 91.3435 129.94 91.7169 129.94C92.1035 129.927 92.3702 129.92 92.5169 129.92C92.7569 129.907 92.9169 129.86 92.9969 129.78C93.0902 129.687 93.1369 129.533 93.1369 129.32V114.22ZM150.545 114.52H163.665V131.24H162.065V116.02H152.085V131.34H150.545V114.52ZM151.585 121.44H162.745V122.92H151.585V121.44ZM151.545 128.54H162.765V130.04H151.545V128.54Z" fill="white"/>
<mask id="path-5-outside-1_1243_591" maskUnits="userSpaceOnUse" x="46.3125" y="65.959" width="110" height="20" fill="black">
<rect fill="white" x="46.3125" y="65.959" width="110" height="20"/>
<path d="M47.0375 83.959V79.719C47.0375 78.3857 47.4108 77.3523 48.1575 76.619C48.9042 75.8857 49.9908 75.519 51.4175 75.519H57.9975C59.2642 75.519 59.8975 74.979 59.8975 73.899C59.8975 72.819 59.2642 72.279 57.9975 72.279H47.3575V69.679H58.6175C60.0042 69.679 61.0775 70.0523 61.8375 70.799C62.6108 71.5456 62.9975 72.579 62.9975 73.899C62.9975 75.219 62.6108 76.2523 61.8375 76.999C61.0775 77.7457 60.0042 78.119 58.6175 78.119H51.8575C51.2842 78.119 50.8508 78.2657 50.5575 78.559C50.2775 78.839 50.1375 79.239 50.1375 79.759V81.379H62.6175V83.959H47.0375ZM76.5655 84.059C73.9921 84.059 71.9855 83.4523 70.5455 82.239C69.1188 81.0123 68.4055 79.199 68.4055 76.799C68.4055 74.4123 69.1188 72.6123 70.5455 71.399C71.9855 70.1723 73.9921 69.559 76.5655 69.559H79.1655C81.7521 69.559 83.7588 70.1723 85.1855 71.399C86.6121 72.6123 87.3255 74.4123 87.3255 76.799C87.3255 79.199 86.6121 81.0123 85.1855 82.239C83.7588 83.4523 81.7521 84.059 79.1655 84.059H76.5655ZM71.6655 76.799C71.6655 78.2523 72.0188 79.359 72.7255 80.119L80.5655 72.299C80.0855 72.2057 79.5455 72.159 78.9455 72.159H76.7855C75.1055 72.159 73.8321 72.5257 72.9655 73.259C72.0988 73.9923 71.6655 75.1723 71.6655 76.799ZM76.7855 81.459H78.9455C80.6255 81.459 81.8988 81.0923 82.7655 80.359C83.6321 79.6123 84.0655 78.4257 84.0655 76.799C84.0655 75.3457 83.7055 74.239 82.9855 73.479L75.1255 81.319C75.6188 81.4123 76.1721 81.459 76.7855 81.459ZM92.7328 83.959V79.719C92.7328 78.3857 93.1061 77.3523 93.8528 76.619C94.5995 75.8857 95.6861 75.519 97.1128 75.519H103.693C104.959 75.519 105.593 74.979 105.593 73.899C105.593 72.819 104.959 72.279 103.693 72.279H93.0528V69.679H104.313C105.699 69.679 106.773 70.0523 107.533 70.799C108.306 71.5456 108.693 72.579 108.693 73.899C108.693 75.219 108.306 76.2523 107.533 76.999C106.773 77.7457 105.699 78.119 104.313 78.119H97.5528C96.9795 78.119 96.5461 78.2657 96.2528 78.559C95.9728 78.839 95.8328 79.239 95.8328 79.759V81.379H108.313V83.959H92.7328ZM120.661 83.979C118.581 83.979 116.967 83.3523 115.821 82.099C114.674 80.8323 114.101 79.0657 114.101 76.799C114.101 74.3323 114.814 72.5257 116.241 71.379C117.681 70.2323 119.687 69.659 122.261 69.659H130.321V72.259H122.481C121.027 72.259 119.874 72.5057 119.021 72.999C118.181 73.479 117.661 74.3257 117.461 75.539H126.801C128.281 75.539 129.447 75.9123 130.301 76.659C131.154 77.3923 131.581 78.4123 131.581 79.719C131.581 81.0657 131.154 82.1123 130.301 82.859C129.447 83.6057 128.281 83.979 126.801 83.979H120.661ZM120.881 81.379H126.181C126.914 81.379 127.481 81.2457 127.881 80.979C128.281 80.699 128.481 80.2857 128.481 79.739C128.481 79.2057 128.281 78.8057 127.881 78.539C127.481 78.2723 126.914 78.139 126.181 78.139H117.461C117.767 80.299 118.907 81.379 120.881 81.379ZM141.728 67.079L143.248 67.479C142.874 68.4523 142.434 69.4057 141.928 70.339C141.434 71.259 140.894 72.119 140.308 72.919C139.721 73.7057 139.114 74.399 138.488 74.999C138.394 74.919 138.268 74.819 138.108 74.699C137.961 74.5657 137.801 74.439 137.628 74.319C137.468 74.199 137.321 74.1057 137.188 74.039C137.828 73.479 138.428 72.839 138.988 72.119C139.561 71.3857 140.081 70.5923 140.548 69.739C141.014 68.8723 141.408 67.9857 141.728 67.079ZM141.428 69.579H154.328V71.019H140.688L141.428 69.579ZM140.448 74.099H153.868V75.519H141.948V80.239H140.448V74.099ZM137.148 79.499H155.268V80.939H137.148V79.499ZM146.428 70.339H147.968V85.559H146.428V70.339Z"/>
</mask>
<path d="M47.0375 83.959V79.719C47.0375 78.3857 47.4108 77.3523 48.1575 76.619C48.9042 75.8857 49.9908 75.519 51.4175 75.519H57.9975C59.2642 75.519 59.8975 74.979 59.8975 73.899C59.8975 72.819 59.2642 72.279 57.9975 72.279H47.3575V69.679H58.6175C60.0042 69.679 61.0775 70.0523 61.8375 70.799C62.6108 71.5456 62.9975 72.579 62.9975 73.899C62.9975 75.219 62.6108 76.2523 61.8375 76.999C61.0775 77.7457 60.0042 78.119 58.6175 78.119H51.8575C51.2842 78.119 50.8508 78.2657 50.5575 78.559C50.2775 78.839 50.1375 79.239 50.1375 79.759V81.379H62.6175V83.959H47.0375ZM76.5655 84.059C73.9921 84.059 71.9855 83.4523 70.5455 82.239C69.1188 81.0123 68.4055 79.199 68.4055 76.799C68.4055 74.4123 69.1188 72.6123 70.5455 71.399C71.9855 70.1723 73.9921 69.559 76.5655 69.559H79.1655C81.7521 69.559 83.7588 70.1723 85.1855 71.399C86.6121 72.6123 87.3255 74.4123 87.3255 76.799C87.3255 79.199 86.6121 81.0123 85.1855 82.239C83.7588 83.4523 81.7521 84.059 79.1655 84.059H76.5655ZM71.6655 76.799C71.6655 78.2523 72.0188 79.359 72.7255 80.119L80.5655 72.299C80.0855 72.2057 79.5455 72.159 78.9455 72.159H76.7855C75.1055 72.159 73.8321 72.5257 72.9655 73.259C72.0988 73.9923 71.6655 75.1723 71.6655 76.799ZM76.7855 81.459H78.9455C80.6255 81.459 81.8988 81.0923 82.7655 80.359C83.6321 79.6123 84.0655 78.4257 84.0655 76.799C84.0655 75.3457 83.7055 74.239 82.9855 73.479L75.1255 81.319C75.6188 81.4123 76.1721 81.459 76.7855 81.459ZM92.7328 83.959V79.719C92.7328 78.3857 93.1061 77.3523 93.8528 76.619C94.5995 75.8857 95.6861 75.519 97.1128 75.519H103.693C104.959 75.519 105.593 74.979 105.593 73.899C105.593 72.819 104.959 72.279 103.693 72.279H93.0528V69.679H104.313C105.699 69.679 106.773 70.0523 107.533 70.799C108.306 71.5456 108.693 72.579 108.693 73.899C108.693 75.219 108.306 76.2523 107.533 76.999C106.773 77.7457 105.699 78.119 104.313 78.119H97.5528C96.9795 78.119 96.5461 78.2657 96.2528 78.559C95.9728 78.839 95.8328 79.239 95.8328 79.759V81.379H108.313V83.959H92.7328ZM120.661 83.979C118.581 83.979 116.967 83.3523 115.821 82.099C114.674 80.8323 114.101 79.0657 114.101 76.799C114.101 74.3323 114.814 72.5257 116.241 71.379C117.681 70.2323 119.687 69.659 122.261 69.659H130.321V72.259H122.481C121.027 72.259 119.874 72.5057 119.021 72.999C118.181 73.479 117.661 74.3257 117.461 75.539H126.801C128.281 75.539 129.447 75.9123 130.301 76.659C131.154 77.3923 131.581 78.4123 131.581 79.719C131.581 81.0657 131.154 82.1123 130.301 82.859C129.447 83.6057 128.281 83.979 126.801 83.979H120.661ZM120.881 81.379H126.181C126.914 81.379 127.481 81.2457 127.881 80.979C128.281 80.699 128.481 80.2857 128.481 79.739C128.481 79.2057 128.281 78.8057 127.881 78.539C127.481 78.2723 126.914 78.139 126.181 78.139H117.461C117.767 80.299 118.907 81.379 120.881 81.379ZM141.728 67.079L143.248 67.479C142.874 68.4523 142.434 69.4057 141.928 70.339C141.434 71.259 140.894 72.119 140.308 72.919C139.721 73.7057 139.114 74.399 138.488 74.999C138.394 74.919 138.268 74.819 138.108 74.699C137.961 74.5657 137.801 74.439 137.628 74.319C137.468 74.199 137.321 74.1057 137.188 74.039C137.828 73.479 138.428 72.839 138.988 72.119C139.561 71.3857 140.081 70.5923 140.548 69.739C141.014 68.8723 141.408 67.9857 141.728 67.079ZM141.428 69.579H154.328V71.019H140.688L141.428 69.579ZM140.448 74.099H153.868V75.519H141.948V80.239H140.448V74.099ZM137.148 79.499H155.268V80.939H137.148V79.499ZM146.428 70.339H147.968V85.559H146.428V70.339Z" fill="white"/>
<path d="M47.0375 83.959H46.8375V84.159H47.0375V83.959ZM47.3575 72.279H47.1575V72.479H47.3575V72.279ZM47.3575 69.679V69.479H47.1575V69.679H47.3575ZM61.8375 70.799L61.6973 70.9417L61.6986 70.9429L61.8375 70.799ZM61.8375 76.999L61.6986 76.8551L61.6973 76.8563L61.8375 76.999ZM50.5575 78.559L50.6989 78.7004V78.7004L50.5575 78.559ZM50.1375 81.379H49.9375V81.579H50.1375V81.379ZM62.6175 81.379H62.8175V81.179H62.6175V81.379ZM62.6175 83.959V84.159H62.8175V83.959H62.6175ZM47.0375 83.959H47.2375V79.719H47.0375H46.8375V83.959H47.0375ZM47.0375 79.719H47.2375C47.2375 78.4238 47.5991 77.4478 48.2976 76.7617L48.1575 76.619L48.0174 76.4763C47.2226 77.2568 46.8375 78.3475 46.8375 79.719H47.0375ZM48.1575 76.619L48.2976 76.7617C48.995 76.0768 50.0238 75.719 51.4175 75.719V75.519V75.319C49.9579 75.319 48.8133 75.6945 48.0174 76.4763L48.1575 76.619ZM51.4175 75.519V75.719H57.9975V75.519V75.319H51.4175V75.519ZM57.9975 75.519V75.719C58.6546 75.719 59.1847 75.5796 59.5523 75.2662C59.926 74.9475 60.0975 74.4789 60.0975 73.899H59.8975H59.6975C59.6975 74.3991 59.5524 74.7404 59.2927 74.9618C59.027 75.1884 58.6071 75.319 57.9975 75.319V75.519ZM59.8975 73.899H60.0975C60.0975 73.3191 59.926 72.8504 59.5523 72.5318C59.1847 72.2184 58.6546 72.079 57.9975 72.079V72.279V72.479C58.6071 72.479 59.027 72.6096 59.2927 72.8362C59.5524 73.0575 59.6975 73.3989 59.6975 73.899H59.8975ZM57.9975 72.279V72.079H47.3575V72.279V72.479H57.9975V72.279ZM47.3575 72.279H47.5575V69.679H47.3575H47.1575V72.279H47.3575ZM47.3575 69.679V69.879H58.6175V69.679V69.479H47.3575V69.679ZM58.6175 69.679V69.879C59.9682 69.879 60.985 70.2418 61.6973 70.9417L61.8375 70.799L61.9777 70.6563C61.17 69.8628 60.0402 69.479 58.6175 69.479V69.679ZM61.8375 70.799L61.6986 70.9429C62.4243 71.6436 62.7975 72.62 62.7975 73.899H62.9975H63.1975C63.1975 72.5379 62.7974 71.4477 61.9764 70.6551L61.8375 70.799ZM62.9975 73.899H62.7975C62.7975 75.1779 62.4243 76.1544 61.6986 76.8551L61.8375 76.999L61.9764 77.1429C62.7974 76.3502 63.1975 75.26 63.1975 73.899H62.9975ZM61.8375 76.999L61.6973 76.8563C60.985 77.5561 59.9682 77.919 58.6175 77.919V78.119V78.319C60.0402 78.319 61.17 77.9352 61.9777 77.1417L61.8375 76.999ZM58.6175 78.119V77.919H51.8575V78.119V78.319H58.6175V78.119ZM51.8575 78.119V77.919C51.2518 77.919 50.7594 78.0743 50.4161 78.4176L50.5575 78.559L50.6989 78.7004C50.9423 78.457 51.3165 78.319 51.8575 78.319V78.119ZM50.5575 78.559L50.4161 78.4176C50.0879 78.7457 49.9375 79.2032 49.9375 79.759H50.1375H50.3375C50.3375 79.2748 50.4671 78.9322 50.6989 78.7004L50.5575 78.559ZM50.1375 79.759H49.9375V81.379H50.1375H50.3375V79.759H50.1375ZM50.1375 81.379V81.579H62.6175V81.379V81.179H50.1375V81.379ZM62.6175 81.379H62.4175V83.959H62.6175H62.8175V81.379H62.6175ZM62.6175 83.959V83.759H47.0375V83.959V84.159H62.6175V83.959ZM70.5455 82.239L70.4151 82.3906L70.4166 82.3919L70.5455 82.239ZM70.5455 71.399L70.675 71.5513L70.6752 71.5512L70.5455 71.399ZM85.1855 71.399L85.0551 71.5506L85.0559 71.5513L85.1855 71.399ZM85.1855 82.239L85.315 82.3913L85.3159 82.3906L85.1855 82.239ZM72.7255 80.119L72.579 80.2552L72.7201 80.4069L72.8667 80.2606L72.7255 80.119ZM80.5655 72.299L80.7067 72.4406L80.9734 72.1746L80.6036 72.1027L80.5655 72.299ZM72.9655 73.259L72.8363 73.1063L72.9655 73.259ZM82.7655 80.359L82.8947 80.5117L82.896 80.5105L82.7655 80.359ZM82.9855 73.479L83.1307 73.3414L82.9895 73.1925L82.8442 73.3374L82.9855 73.479ZM75.1255 81.319L74.9842 81.1774L74.7159 81.445L75.0883 81.5155L75.1255 81.319ZM76.5655 84.059V83.859C74.022 83.859 72.067 83.2595 70.6743 82.086L70.5455 82.239L70.4166 82.3919C71.904 83.6452 73.9622 84.259 76.5655 84.259V84.059ZM70.5455 82.239L70.6759 82.0873C69.305 80.9086 68.6055 79.158 68.6055 76.799H68.4055H68.2055C68.2055 79.24 68.9326 81.116 70.4151 82.3906L70.5455 82.239ZM68.4055 76.799H68.6055C68.6055 74.4536 69.3048 72.7167 70.675 71.5513L70.5455 71.399L70.4159 71.2466C68.9328 72.5079 68.2055 74.371 68.2055 76.799H68.4055ZM70.5455 71.399L70.6752 71.5512C72.0678 70.3649 74.0225 69.759 76.5655 69.759V69.559V69.359C73.9618 69.359 71.9032 69.9797 70.4158 71.2467L70.5455 71.399ZM76.5655 69.559V69.759H79.1655V69.559V69.359H76.5655V69.559ZM79.1655 69.559V69.759C81.7222 69.759 83.6763 70.3651 85.0551 71.5506L85.1855 71.399L85.3159 71.2473C83.8413 69.9795 81.7821 69.359 79.1655 69.359V69.559ZM85.1855 71.399L85.0559 71.5513C86.4262 72.7167 87.1255 74.4536 87.1255 76.799H87.3255H87.5255C87.5255 74.371 86.7981 72.5079 85.315 71.2466L85.1855 71.399ZM87.3255 76.799H87.1255C87.1255 79.158 86.426 80.9086 85.0551 82.0873L85.1855 82.239L85.3159 82.3906C86.7983 81.116 87.5255 79.24 87.5255 76.799H87.3255ZM85.1855 82.239L85.0559 82.0866C83.6771 83.2593 81.7227 83.859 79.1655 83.859V84.059V84.259C81.7816 84.259 83.8405 83.6454 85.315 82.3913L85.1855 82.239ZM79.1655 84.059V83.859H76.5655V84.059V84.259H79.1655V84.059ZM71.6655 76.799H71.4655C71.4655 78.2825 71.8262 79.4456 72.579 80.2552L72.7255 80.119L72.8719 79.9828C72.2114 79.2724 71.8655 78.2221 71.8655 76.799H71.6655ZM72.7255 80.119L72.8667 80.2606L80.7067 72.4406L80.5655 72.299L80.4242 72.1574L72.5842 79.9774L72.7255 80.119ZM80.5655 72.299L80.6036 72.1027C80.1086 72.0064 79.5555 71.959 78.9455 71.959V72.159V72.359C79.5354 72.359 80.0623 72.4049 80.5273 72.4953L80.5655 72.299ZM78.9455 72.159V71.959H76.7855V72.159V72.359H78.9455V72.159ZM76.7855 72.159V71.959C75.0802 71.959 73.7529 72.3307 72.8363 73.1063L72.9655 73.259L73.0947 73.4117C73.9114 72.7206 75.1308 72.359 76.7855 72.359V72.159ZM72.9655 73.259L72.8363 73.1063C71.9079 73.8919 71.4655 75.1398 71.4655 76.799H71.6655H71.8655C71.8655 75.2048 72.2897 74.0928 73.0947 73.4117L72.9655 73.259ZM76.7855 81.459V81.659H78.9455V81.459V81.259H76.7855V81.459ZM78.9455 81.459V81.659C80.6508 81.659 81.978 81.2873 82.8947 80.5117L82.7655 80.359L82.6363 80.2063C81.8196 80.8974 80.6002 81.259 78.9455 81.259V81.459ZM82.7655 80.359L82.896 80.5105C83.8229 79.7119 84.2655 78.4585 84.2655 76.799H84.0655H83.8655C83.8655 78.3928 83.4413 79.5127 82.6349 80.2075L82.7655 80.359ZM84.0655 76.799H84.2655C84.2655 75.3145 83.8976 74.151 83.1307 73.3414L82.9855 73.479L82.8403 73.6165C83.5134 74.327 83.8655 75.3768 83.8655 76.799H84.0655ZM82.9855 73.479L82.8442 73.3374L74.9842 81.1774L75.1255 81.319L75.2667 81.4606L83.1267 73.6206L82.9855 73.479ZM75.1255 81.319L75.0883 81.5155C75.5962 81.6116 76.1623 81.659 76.7855 81.659V81.459V81.259C76.182 81.259 75.6414 81.213 75.1626 81.1225L75.1255 81.319ZM92.7328 83.959H92.5328V84.159H92.7328V83.959ZM93.0528 72.279H92.8528V72.479H93.0528V72.279ZM93.0528 69.679V69.479H92.8528V69.679H93.0528ZM107.533 70.799L107.393 70.9417L107.394 70.9429L107.533 70.799ZM107.533 76.999L107.394 76.8551L107.393 76.8563L107.533 76.999ZM96.2528 78.559L96.3942 78.7004V78.7004L96.2528 78.559ZM95.8328 81.379H95.6328V81.579H95.8328V81.379ZM108.313 81.379H108.513V81.179H108.313V81.379ZM108.313 83.959V84.159H108.513V83.959H108.313ZM92.7328 83.959H92.9328V79.719H92.7328H92.5328V83.959H92.7328ZM92.7328 79.719H92.9328C92.9328 78.4238 93.2944 77.4478 93.993 76.7617L93.8528 76.619L93.7127 76.4763C92.9179 77.2568 92.5328 78.3475 92.5328 79.719H92.7328ZM93.8528 76.619L93.993 76.7617C94.6903 76.0768 95.7191 75.719 97.1128 75.719V75.519V75.319C95.6532 75.319 94.5086 75.6945 93.7127 76.4763L93.8528 76.619ZM97.1128 75.519V75.719H103.693V75.519V75.319H97.1128V75.519ZM103.693 75.519V75.719C104.35 75.719 104.88 75.5796 105.248 75.2662C105.621 74.9475 105.793 74.4789 105.793 73.899H105.593H105.393C105.393 74.3991 105.248 74.7404 104.988 74.9618C104.722 75.1884 104.302 75.319 103.693 75.319V75.519ZM105.593 73.899H105.793C105.793 73.3191 105.621 72.8504 105.248 72.5318C104.88 72.2184 104.35 72.079 103.693 72.079V72.279V72.479C104.302 72.479 104.722 72.6096 104.988 72.8362C105.248 73.0575 105.393 73.3989 105.393 73.899H105.593ZM103.693 72.279V72.079H93.0528V72.279V72.479H103.693V72.279ZM93.0528 72.279H93.2528V69.679H93.0528H92.8528V72.279H93.0528ZM93.0528 69.679V69.879H104.313V69.679V69.479H93.0528V69.679ZM104.313 69.679V69.879C105.663 69.879 106.68 70.2418 107.393 70.9417L107.533 70.799L107.673 70.6563C106.865 69.8628 105.735 69.479 104.313 69.479V69.679ZM107.533 70.799L107.394 70.9429C108.12 71.6436 108.493 72.62 108.493 73.899H108.693H108.893C108.893 72.5379 108.493 71.4477 107.672 70.6551L107.533 70.799ZM108.693 73.899H108.493C108.493 75.1779 108.12 76.1544 107.394 76.8551L107.533 76.999L107.672 77.1429C108.493 76.3502 108.893 75.26 108.893 73.899H108.693ZM107.533 76.999L107.393 76.8563C106.68 77.5561 105.663 77.919 104.313 77.919V78.119V78.319C105.735 78.319 106.865 77.9352 107.673 77.1417L107.533 76.999ZM104.313 78.119V77.919H97.5528V78.119V78.319H104.313V78.119ZM97.5528 78.119V77.919C96.9471 77.919 96.4547 78.0743 96.1114 78.4176L96.2528 78.559L96.3942 78.7004C96.6376 78.457 97.0119 78.319 97.5528 78.319V78.119ZM96.2528 78.559L96.1114 78.4176C95.7832 78.7457 95.6328 79.2032 95.6328 79.759H95.8328H96.0328C96.0328 79.2748 96.1624 78.9322 96.3942 78.7004L96.2528 78.559ZM95.8328 79.759H95.6328V81.379H95.8328H96.0328V79.759H95.8328ZM95.8328 81.379V81.579H108.313V81.379V81.179H95.8328V81.379ZM108.313 81.379H108.113V83.959H108.313H108.513V81.379H108.313ZM108.313 83.959V83.759H92.7328V83.959V84.159H108.313V83.959ZM115.821 82.099L115.673 82.2332L115.673 82.234L115.821 82.099ZM116.241 71.379L116.116 71.2225L116.115 71.2231L116.241 71.379ZM130.321 69.659H130.521V69.459H130.321V69.659ZM130.321 72.259V72.459H130.521V72.259H130.321ZM119.021 72.999L119.12 73.1726L119.121 73.1721L119.021 72.999ZM117.461 75.539L117.263 75.5065L117.225 75.739H117.461V75.539ZM130.301 76.659L130.169 76.8095L130.17 76.8107L130.301 76.659ZM130.301 82.859L130.432 83.0095L130.301 82.859ZM127.881 80.979L127.992 81.1454L127.995 81.1428L127.881 80.979ZM127.881 78.539L127.77 78.7054V78.7054L127.881 78.539ZM117.461 78.139V77.939H117.23L117.263 78.1671L117.461 78.139ZM120.661 83.979V83.779C118.623 83.779 117.069 83.1668 115.968 81.964L115.821 82.099L115.673 82.234C116.866 83.5378 118.538 84.179 120.661 84.179V83.979ZM115.821 82.099L115.969 81.9648C114.865 80.7455 114.301 79.0326 114.301 76.799H114.101H113.901C113.901 79.0987 114.483 80.9191 115.673 82.2332L115.821 82.099ZM114.101 76.799H114.301C114.301 74.3704 115.002 72.6314 116.366 71.5349L116.241 71.379L116.115 71.2231C114.626 72.4199 113.901 74.2942 113.901 76.799H114.101ZM116.241 71.379L116.365 71.5354C117.758 70.4263 119.715 69.859 122.261 69.859V69.659V69.459C119.66 69.459 117.603 70.0383 116.116 71.2225L116.241 71.379ZM122.261 69.659V69.859H130.321V69.659V69.459H122.261V69.659ZM130.321 69.659H130.121V72.259H130.321H130.521V69.659H130.321ZM130.321 72.259V72.059H122.481V72.259V72.459H130.321V72.259ZM122.481 72.259V72.059C121.008 72.059 119.816 72.3085 118.921 72.8258L119.021 72.999L119.121 73.1721C119.933 72.7028 121.047 72.459 122.481 72.459V72.259ZM119.021 72.999L118.922 72.8253C118.016 73.343 117.47 74.2512 117.263 75.5065L117.461 75.539L117.658 75.5715C117.851 74.4001 118.346 73.6149 119.12 73.1726L119.021 72.999ZM117.461 75.539V75.739H126.801V75.539V75.339H117.461V75.539ZM126.801 75.539V75.739C128.247 75.739 129.362 76.1034 130.169 76.8095L130.301 76.659L130.432 76.5085C129.533 75.7212 128.314 75.339 126.801 75.339V75.539ZM130.301 76.659L130.17 76.8107C130.972 77.4997 131.381 78.4602 131.381 79.719H131.581H131.781C131.781 78.3644 131.336 77.2849 130.431 76.5073L130.301 76.659ZM131.581 79.719H131.381C131.381 81.0199 130.971 82.007 130.169 82.7085L130.301 82.859L130.432 83.0095C131.337 82.2177 131.781 81.1114 131.781 79.719H131.581ZM130.301 82.859L130.169 82.7085C129.362 83.4145 128.247 83.779 126.801 83.779V83.979V84.179C128.314 84.179 129.533 83.7968 130.432 83.0095L130.301 82.859ZM126.801 83.979V83.779H120.661V83.979V84.179H126.801V83.979ZM120.881 81.379V81.579H126.181V81.379V81.179H120.881V81.379ZM126.181 81.379V81.579C126.934 81.579 127.546 81.4427 127.992 81.1454L127.881 80.979L127.77 80.8126C127.416 81.0486 126.894 81.179 126.181 81.179V81.379ZM127.881 80.979L127.995 81.1428C128.456 80.8205 128.681 80.3418 128.681 79.739H128.481H128.281C128.281 80.2295 128.106 80.5775 127.766 80.8151L127.881 80.979ZM128.481 79.739H128.681C128.681 79.1474 128.454 78.6809 127.992 78.3726L127.881 78.539L127.77 78.7054C128.107 78.9304 128.281 79.2639 128.281 79.739H128.481ZM127.881 78.539L127.992 78.3726C127.546 78.0753 126.934 77.939 126.181 77.939V78.139V78.339C126.894 78.339 127.416 78.4693 127.77 78.7054L127.881 78.539ZM126.181 78.139V77.939H117.461V78.139V78.339H126.181V78.139ZM117.461 78.139L117.263 78.1671C117.42 79.2747 117.795 80.133 118.408 80.7142C119.024 81.2978 119.857 81.579 120.881 81.579V81.379V81.179C119.932 81.179 119.207 80.9202 118.683 80.4238C118.157 79.925 117.808 79.1633 117.659 78.1109L117.461 78.139ZM141.728 67.079L141.778 66.8856L141.6 66.8387L141.539 67.0124L141.728 67.079ZM143.247 67.479L143.434 67.5506L143.514 67.3423L143.298 67.2856L143.247 67.479ZM141.927 70.339L141.752 70.2436L141.751 70.2445L141.927 70.339ZM140.308 72.919L140.468 73.0386L140.469 73.0373L140.308 72.919ZM138.488 74.999L138.357 75.1508L138.495 75.2688L138.626 75.1434L138.488 74.999ZM138.107 74.699L137.973 74.847L137.98 74.8533L137.988 74.859L138.107 74.699ZM137.628 74.319L137.507 74.4791L137.514 74.4834L137.628 74.319ZM137.188 74.039L137.056 73.8885L136.832 74.0846L137.098 74.2179L137.188 74.039ZM138.988 72.119L138.83 71.9958L138.83 71.9962L138.988 72.119ZM140.548 69.739L140.723 69.8349L140.724 69.8338L140.548 69.739ZM141.427 69.579V69.379H141.305L141.25 69.4876L141.427 69.579ZM154.327 69.579H154.528V69.379H154.327V69.579ZM154.327 71.019V71.219H154.528V71.019H154.327ZM140.688 71.019L140.51 70.9276L140.36 71.219H140.688V71.019ZM140.448 74.099V73.899H140.247V74.099H140.448ZM153.868 74.099H154.068V73.899H153.868V74.099ZM153.868 75.519V75.719H154.068V75.519H153.868ZM141.948 75.519V75.319H141.747V75.519H141.948ZM141.948 80.239V80.439H142.147V80.239H141.948ZM140.448 80.239H140.247V80.439H140.448V80.239ZM137.147 79.499V79.299H136.948V79.499H137.147ZM155.268 79.499H155.467V79.299H155.268V79.499ZM155.268 80.939V81.139H155.467V80.939H155.268ZM137.147 80.939H136.948V81.139H137.147V80.939ZM146.427 70.339V70.139H146.228V70.339H146.427ZM147.967 70.339H148.168V70.139H147.967V70.339ZM147.967 85.559V85.759H148.168V85.559H147.967ZM146.427 85.559H146.228V85.759H146.427V85.559ZM141.728 67.079L141.677 67.2724L143.197 67.6724L143.247 67.479L143.298 67.2856L141.778 66.8856L141.728 67.079ZM143.247 67.479L143.061 67.4074C142.691 68.3724 142.254 69.3178 141.752 70.2436L141.927 70.339L142.103 70.4344C142.614 69.4935 143.058 68.5323 143.434 67.5506L143.247 67.479ZM141.927 70.339L141.751 70.2445C141.262 71.1566 140.727 72.0087 140.146 72.8007L140.308 72.919L140.469 73.0373C141.061 72.2293 141.606 71.3613 142.104 70.4335L141.927 70.339ZM140.308 72.919L140.147 72.7994C139.566 73.5783 138.967 74.2631 138.349 74.8545L138.488 74.999L138.626 75.1434C139.261 74.5349 139.875 73.833 140.468 73.0385L140.308 72.919ZM138.488 74.999L138.618 74.8471C138.52 74.7631 138.389 74.6602 138.228 74.539L138.107 74.699L137.988 74.859C138.146 74.9778 138.269 75.0749 138.357 75.1508L138.488 74.999ZM138.107 74.699L138.242 74.551C138.088 74.4114 137.921 74.2793 137.741 74.1545L137.628 74.319L137.514 74.4834C137.68 74.5987 137.833 74.7199 137.973 74.847L138.107 74.699ZM137.628 74.319L137.747 74.159C137.581 74.0341 137.424 73.9336 137.277 73.8601L137.188 74.039L137.098 74.2179C137.218 74.2777 137.354 74.3639 137.507 74.479L137.628 74.319ZM137.188 74.039L137.319 74.1895C137.969 73.6205 138.578 72.9711 139.145 72.2418L138.988 72.119L138.83 71.9962C138.277 72.7069 137.686 73.3374 137.056 73.8885L137.188 74.039ZM138.988 72.119L139.145 72.2422C139.725 71.4999 140.251 70.6974 140.723 69.8349L140.548 69.739L140.372 69.643C139.91 70.4872 139.396 71.2714 138.83 71.9958L138.988 72.119ZM140.548 69.739L140.724 69.8338C141.195 68.9583 141.593 68.0622 141.916 67.1455L141.728 67.079L141.539 67.0124C141.222 67.9091 140.833 68.7864 140.371 69.6442L140.548 69.739ZM141.427 69.579V69.779H154.327V69.579V69.379H141.427V69.579ZM154.327 69.579H154.128V71.019H154.327H154.528V69.579H154.327ZM154.327 71.019V70.819H140.688V71.019V71.219H154.327V71.019ZM140.688 71.019L140.865 71.1104L141.605 69.6704L141.427 69.579L141.25 69.4876L140.51 70.9276L140.688 71.019ZM140.448 74.099V74.299H153.868V74.099V73.899H140.448V74.099ZM153.868 74.099H153.668V75.519H153.868H154.068V74.099H153.868ZM153.868 75.519V75.319H141.948V75.519V75.719H153.868V75.519ZM141.948 75.519H141.747V80.239H141.948H142.147V75.519H141.948ZM141.948 80.239V80.039H140.448V80.239V80.439H141.948V80.239ZM140.448 80.239H140.647V74.099H140.448H140.247V80.239H140.448ZM137.147 79.499V79.699H155.268V79.499V79.299H137.147V79.499ZM155.268 79.499H155.068V80.939H155.268H155.467V79.499H155.268ZM155.268 80.939V80.739H137.147V80.939V81.139H155.268V80.939ZM137.147 80.939H137.348V79.499H137.147H136.948V80.939H137.147ZM146.427 70.339V70.539H147.967V70.339V70.139H146.427V70.339ZM147.967 70.339H147.768V85.559H147.967H148.168V70.339H147.967ZM147.967 85.559V85.359H146.427V85.559V85.759H147.967V85.559ZM146.427 85.559H146.628V70.339H146.427H146.228V85.559H146.427Z" fill="white" mask="url(#path-5-outside-1_1243_591)"/>
<defs>
<g id="stroke0_1243_591" data-figma-scatter-ref="stroke0_1243_591_ref" data-figma-scatter="f0.51_w0.06_aj180_sj0.65_r0_s18399844050281906286_sw5">
<path d="M215.823 333.963C215.823 333.23 216.123 332.93 216.49 333.296C216.856 333.663 216.856 334.263 216.49 334.63C216.123 334.996 215.823 334.696 215.823 333.963ZM143.424 3.97701C148.056 3.32404 151.523 8.80284 148.726 12.3588C146.775 14.8388 146.175 17.9633 147.648 17.9633C148.553 17.9667 158.823 30.3033 158.823 31.3862C158.823 32.4623 154.479 36.4974 152.507 37.2544C150.609 37.9824 151.073 39.9631 153.14 39.9633C153.801 39.9633 154.92 40.8881 155.626 42.02C156.91 44.0739 156.912 44.0744 158.617 42.0766C159.555 40.9766 161.223 39.938 162.323 39.77C163.423 39.601 164.653 39.0132 165.057 38.4633C165.472 37.8983 165.798 38.2253 165.807 39.2133C165.825 41.3531 166.254 41.3818 169.215 39.4419C170.838 38.3789 171.405 37.2303 171.099 35.6313C170.05 30.1434 175.963 30.1199 185.501 35.5737C190.79 38.5976 191.028 38.5792 193.164 34.9633C196.187 29.8454 203.13 33.2701 201.316 38.9838C200.801 40.6068 201.133 41.2309 202.733 41.6499C203.883 41.9499 204.823 42.5946 204.823 43.0805C204.824 43.5654 205.723 43.9633 206.823 43.9633C209.228 43.9633 209.333 43.3299 207.269 41.2661C205.332 39.3301 205.758 35.0191 208.025 33.5991C210.469 32.0694 211.11 33.2632 210.001 37.2797C209.157 40.3355 209.276 40.8478 210.928 41.2797C211.97 41.5527 212.823 42.4936 212.823 43.3696C212.824 45.4861 216.745 45.4516 218.302 43.3227C219.936 41.0879 223.264 42.9574 223.298 46.1294C223.32 48.1552 223.883 48.504 227.573 48.77C231.476 49.053 231.823 48.8831 231.823 46.6811C231.823 45.0832 232.672 43.8975 234.37 43.1245C240.164 40.4845 243.457 43.0685 242.282 49.3315C241.655 52.6722 241.655 52.6725 249.407 53.3745C262.73 54.5825 271.108 62.5852 260.323 63.8012C258.673 63.9882 256.79 64.5797 256.14 65.1167C255.368 65.7556 253.636 65.7276 251.14 65.0346C246.476 63.7398 245.823 63.7172 245.823 64.8549C245.823 65.7449 249.37 66.9616 253.515 67.4936C257.329 67.9826 258.042 68.9656 257.379 72.8286C255.795 82.0527 255.841 81.9633 252.685 81.9633C250.953 81.9633 249.964 81.5443 250.323 80.9633C250.663 80.4133 250.517 79.9633 249.999 79.9633C249.48 79.9633 248.821 79.0632 248.533 77.9633C248.217 76.7553 247.169 75.9633 245.885 75.9633C244.716 75.9632 243.46 75.1762 243.092 74.2133C242.404 72.4103 242.246 72.1833 238.753 67.9633C236.684 65.4633 236.684 65.4633 237.262 68.1733C237.705 70.252 237.359 71.1408 235.772 71.9897C232.719 73.6237 233.414 78.5898 236.633 78.1401C237.903 77.9621 239.585 78.3504 240.37 79.0024C241.211 79.7003 242.9 79.9101 244.485 79.5122C246.95 78.8932 247.055 78.9823 245.748 80.5922C244.844 81.7052 244.78 82.0721 245.573 81.5962C246.78 80.8713 247.26 82.2792 247.055 85.9321C247.01 86.7401 248.281 89.181 249.881 91.3569C252.292 94.6349 252.689 95.9524 252.194 99.0434C251.695 102.167 251.943 102.958 253.722 103.911C255.46 104.841 255.656 105.407 254.789 107.026C254.207 108.114 254.046 109.515 254.431 110.14C255.79 112.339 247.804 110.139 243.089 107.016C234.391 101.254 232.358 104.203 234.165 119.963C234.386 121.888 234.142 123.998 233.622 124.653C231.331 127.54 233.14 131.457 236.823 131.585C238.748 131.652 240.773 131.816 241.323 131.95C241.873 132.084 243.093 132.116 244.034 132.022C246.328 131.792 249.862 133.758 249.563 135.098C249.134 137.018 257.14 136.437 263.279 134.102C266.554 132.856 270.042 132.048 271.029 132.307C272.126 132.594 272.823 132.23 272.823 131.37C272.823 130.597 271.923 129.963 270.823 129.963C268.355 129.963 268.291 128.842 270.596 125.996C272.37 123.806 272.37 123.805 274.251 125.884C277.35 129.307 282.41 126.734 280.041 122.94C279.048 121.351 279.46 120.899 283.362 119.295C285.811 118.288 287.817 117.126 287.819 116.713C287.821 116.301 288.262 115.963 288.798 115.963C290.086 115.963 288.981 121.818 287.134 124.78C286.042 126.531 285.967 127.431 286.825 128.466C288.108 130.011 286.599 133.834 284.133 135.288C283.329 135.762 282.984 136.896 283.321 137.957C283.727 139.236 283.296 139.996 281.916 140.434C280.723 140.812 280.144 141.636 280.471 142.488C281.07 144.051 279.303 146.204 276.573 147.238C275.611 147.602 274.823 148.857 274.823 150.027C274.823 152.253 271.493 157.622 268.86 159.642C267.494 160.689 267.518 160.896 269.075 161.499C270.259 161.958 271.465 161.413 272.792 159.821C274.896 157.295 275.458 157.908 273.83 160.952C272.986 162.526 273.289 162.906 275.83 163.464C279.699 164.314 279.894 168.296 276.323 173.558C272.999 178.456 273.141 179.594 277.811 185.463C279.999 188.213 283.258 192.592 285.055 195.195C287.985 199.439 291.823 201.575 291.823 198.963C291.823 198.413 292.858 197.963 294.123 197.963C295.388 197.963 296.869 197.517 297.413 196.973C298.033 196.353 299.563 196.316 301.501 196.872C303.893 197.558 304.97 197.388 306.229 196.128C311.032 191.326 313.154 199.168 308.775 205.533C305.051 210.945 307.295 210.388 312.57 204.592C314.356 202.629 316.421 201.256 317.16 201.54C317.898 201.822 319.08 201.359 319.785 200.509C321.719 198.179 324.72 198.643 326.009 201.472C327.592 204.947 325.832 207.908 318.196 214.612C312.035 220.021 312.035 220.021 314.929 222.915C319.416 227.402 318.437 230.291 311.993 231.58C309.623 232.053 308.701 231.81 308.231 230.585C307.343 228.271 305.535 228.576 302.783 231.505C300.746 233.674 300.577 234.339 301.632 236.028C303.496 239.014 301.66 241.738 298.126 241.228C293.529 240.565 288.418 246.501 289.907 250.775C290.518 252.528 291.537 253.977 292.171 253.994C292.805 254.011 292.532 254.484 291.565 255.048C290.598 255.611 289.399 255.819 288.9 255.511C288.402 255.203 287.764 255.415 287.483 255.982C287.203 256.549 287.108 256.439 287.273 255.738C287.438 255.037 288.155 254.601 288.867 254.769C289.918 255.018 289.921 254.787 288.886 253.54C288.066 252.551 286.49 252.15 284.467 252.416C282.738 252.642 279.973 252.894 278.323 252.974C276.673 253.055 275.886 253.348 276.573 253.625C277.261 253.904 277.823 254.712 277.823 255.424C277.823 256.136 278.498 257.278 279.323 257.963C284.43 262.201 279.156 267.527 267.467 269.94C261.662 271.138 261.616 271.176 262.217 274.181C262.55 275.849 262.823 278.291 262.823 279.609C262.823 281.174 263.663 282.389 265.244 283.109C266.671 283.759 267.448 284.778 267.136 285.59C265.821 289.017 267.765 292.135 270.801 291.468C274.766 290.597 278.421 292.537 276.707 294.602C276.023 295.427 274.625 295.883 273.602 295.615C272.138 295.233 271.87 295.538 272.348 297.046C272.893 298.763 272.429 298.963 267.889 298.963C262.743 298.963 261.095 297.073 265.249 295.935C268.036 295.172 268.4 292.927 265.844 292.258C264.392 291.879 264.055 291.437 264.845 290.949C266.469 289.946 265.098 283.964 263.244 283.963C262.462 283.963 261.823 283.571 261.823 283.091C261.823 282.611 259.972 281.923 257.709 281.561C255.433 281.197 252.864 280.005 251.959 278.892C250.396 276.971 250.314 277.128 250.111 282.423C249.912 287.635 250.039 287.963 252.254 287.963C257.861 287.963 255.961 295.527 250.118 296.465C248.031 296.8 244.838 297.728 243.022 298.527C240.536 299.621 239.219 299.71 237.687 298.89C235.32 297.624 234.327 298.227 235.168 300.42C235.494 301.269 236.844 301.963 238.169 301.963C242.073 301.963 243.244 304.249 241.284 308.04C239.619 311.258 239.618 311.258 228.221 310.647C216.823 310.036 216.823 310.036 216.823 313.065C216.823 321.686 206.244 322.014 203.987 313.463C202.962 309.577 196.547 308.889 196.016 312.607C195.599 315.535 190.787 316.541 190.083 313.848C189.539 311.771 188.717 311.487 187.273 312.878C186.751 313.382 185.198 313.944 183.823 314.128C182.113 314.357 181.221 315.181 181 316.737C180.739 318.581 180.17 318.937 178 318.615C176.528 318.397 175.418 317.764 175.533 317.21C175.649 316.655 174.861 315.403 173.783 314.427C171.902 312.724 171.821 312.729 171.781 314.558C171.757 315.606 170.365 317.588 168.686 318.963C167.007 320.338 164.438 322.475 162.978 323.712C158.062 327.876 154.556 326.427 153.301 319.713C152.916 317.652 152.42 315.964 152.199 315.963C151.978 315.963 148.55 316.863 144.58 317.963C130.056 321.988 115.58 315.43 128.81 310.818C130.467 310.24 131.823 309.373 131.823 308.89C131.823 308.407 130.668 308.452 129.257 308.988C127.134 309.795 126.098 309.512 123.257 307.345C120.118 304.951 118.274 301.888 120.978 303.558C121.694 304.001 121.861 303.833 121.417 303.115C120.368 301.418 116.504 303.691 117.229 305.579C118.04 307.692 114.948 308.516 113.522 306.566C111.691 304.062 106.546 306.574 107.286 309.61C108.627 315.112 101.84 317.769 99.8455 312.524C98.8953 310.026 94.4089 310.708 90.3231 313.97C88.4581 315.459 83.5201 315.529 83.0311 314.074C82.7723 313.306 83.018 312.966 83.5799 313.313C84.1398 313.659 84.5764 313.384 84.5526 312.703C84.3916 308.249 84.9971 307.097 88.0731 306.006C91.7409 304.706 90.1749 302.466 84.8231 301.359C83.4482 301.075 81.5171 300.405 80.5321 299.87C79.5471 299.334 78.3755 299.121 77.9295 299.397C77.4824 299.673 76.2634 299.261 75.2196 298.481C73.4269 297.14 73.453 297.096 75.7069 297.665C77.4798 298.113 77.9663 297.907 77.6033 296.865C77.3352 296.094 76.3745 295.595 75.4686 295.757C74.5637 295.918 73.8231 295.644 73.8231 295.147C73.8225 293.779 67.1263 286.964 65.7821 286.963C64.5191 286.963 65.3358 292.016 66.7508 292.954C68.0246 293.798 67.6327 300.104 66.3377 299.607C65.6809 299.355 65.2149 300.076 65.2537 301.283C65.3377 303.874 62.3307 304.729 61.4256 302.372C61.0686 301.443 61.4731 299.62 62.3231 298.322C63.7468 296.15 63.7284 295.96 62.0955 295.928C61.1204 295.908 59.1988 295.27 57.826 294.51C56.13 293.571 54.9418 293.449 54.1238 294.128C52.5208 295.458 48.5416 294.139 49.1746 292.487C49.7193 291.067 47.2348 286.963 45.8309 286.963C44.5728 286.963 35.8231 278.847 35.8231 277.681C35.8231 277.1 37.4871 276.973 39.9481 277.367C43.78 277.98 44.0342 277.878 43.5272 275.938C43.0782 274.221 43.2342 274.059 44.4022 275.028C46.6741 276.914 46.0406 274.471 43.7127 272.369C42.5527 271.321 40.7375 268.625 39.6795 266.377C37.9885 262.785 29.7573 256.441 24.5213 254.696C21.1893 253.585 27.5839 242.826 31.0379 243.73C32.8048 244.192 33.0357 243.965 32.4178 242.374C31.1828 239.197 31.2554 238.448 32.7684 238.778C35.0593 239.276 38.8227 236.801 38.8231 234.794C38.8231 233.715 39.5439 232.963 40.5779 232.963C43.0149 232.963 45.0996 226.438 43.1737 224.839C42.4307 224.223 41.8231 222.9 41.8231 221.9C41.823 220.899 41.3729 219.803 40.8231 219.463C40.2731 219.123 39.8231 217.945 39.8231 216.845C39.8231 215.745 39.4205 215.093 38.9295 215.397C38.4384 215.7 37.0855 214.04 35.9237 211.706C34.7617 209.372 33.2645 206.563 32.5965 205.463C31.9285 204.363 30.3573 201.785 29.1033 199.734C26.2513 195.07 26.2154 191.993 28.9774 189.028C30.8989 186.965 30.957 186.618 29.5194 185.813C28.6324 185.316 28.1605 184.245 28.4735 183.431C28.8615 182.419 27.9015 181.476 25.4315 180.444C23.4467 179.615 21.786 178.38 21.741 177.7C21.499 174.063 20.5431 170.143 19.2762 167.585C18.4912 166.003 18.1172 163.64 18.4442 162.335C18.8492 160.724 18.6035 159.943 17.6805 159.9C16.9341 159.865 17.347 159.425 18.5975 158.923C21.2044 157.876 20.8038 153.423 17.911 151.294C13.1591 147.798 12.87 147.403 13.4549 145.213C13.7859 143.975 14.834 142.963 15.785 142.963C16.735 142.963 18.3281 142.063 19.3231 140.963C20.3181 139.863 21.5542 138.963 22.0682 138.963C22.5823 138.963 23.847 137.951 24.8787 136.713C26.4927 134.779 26.7609 134.71 26.7899 136.223C26.8079 137.191 25.9229 138.753 24.8231 139.695C22.2852 141.868 22.305 142.594 24.9237 143.279C26.0795 143.582 26.7278 144.308 26.3651 144.896C26.0023 145.483 25.92 145.963 26.1815 145.963C26.4445 145.963 27.4328 146.261 28.3778 146.623C29.5896 147.087 29.9501 146.866 29.6024 145.873C29.0314 144.244 32.5938 138.703 33.7518 139.419C34.1787 139.683 35.3646 139.287 36.3875 138.54C38.4045 137.065 37.003 133.964 34.3192 133.963C32.9872 133.963 30.2179 125.51 30.7147 122.963C30.8767 122.138 30.9536 119.741 30.8856 117.637C30.7766 114.238 31.1058 113.683 33.8338 112.653C35.9678 111.847 36.8578 110.879 36.7528 109.478C36.4928 106.022 36.7888 104.824 37.7537 105.42C38.2657 105.737 38.9407 105.581 39.2547 105.073C39.5679 104.566 40.6568 104.368 41.6746 104.635C44.2356 105.304 47.2646 102.201 45.7879 100.421C44.9809 99.4493 44.9929 98.5137 45.8309 96.9487C46.4608 95.7707 46.7305 94.1671 46.4305 93.3852C46.0505 92.3923 46.6314 91.9633 48.3543 91.9633C49.712 91.9632 50.8228 91.5132 50.8231 90.9633C50.8231 90.4135 50.3871 89.9636 49.8543 89.9633C49.3224 89.9633 49.1449 89.2882 49.4608 88.4633C49.7917 87.6015 49.481 86.9636 48.7303 86.9633C47.7133 86.9633 47.6899 86.6961 48.6229 85.7631C49.2829 85.1031 49.8231 83.8148 49.8231 82.9008C49.8233 81.6241 51.1422 81.0827 55.5067 80.5698C58.6325 80.2028 61.7825 79.411 62.5067 78.81C64.2735 77.3441 64.1799 74.9637 62.3543 74.9633C61.4603 74.9633 61.1108 75.5493 61.4608 76.4633C61.8237 77.4082 61.4499 77.9633 60.45 77.9633C58.464 77.9633 58.8759 72.1768 60.9559 70.8598C64.4336 68.656 58.1944 70.1802 53.6815 72.6362C50.1078 74.581 48.4698 75.0103 47.6688 74.2094C46.9258 73.4665 45.7561 73.4182 44.0643 74.061C39.8403 75.667 37.8231 74.3507 37.8231 69.9907C37.8233 65.514 41.1635 63.0775 53.0731 58.8667C60.4397 56.2628 60.5863 56.0654 58.1824 51.9956C56.1924 48.6276 56.994 44.361 59.7821 43.476C62.4579 42.6272 68.8174 43.9249 68.8377 45.3237C68.8797 48.4517 70.4558 49.1528 74.6307 47.9028C79.0287 46.5848 80.5395 44.5322 78.7215 42.3422C77.8406 41.2803 78.116 40.538 79.9549 39.018C81.9907 37.3362 82.4786 37.2654 83.4324 38.5122C85.3604 41.0312 100.442 37.019 99.3865 34.269C98.521 32.0121 103.808 29.185 104.979 31.2778C106.381 33.7828 109.101 33.326 112.231 30.059C115.014 27.1544 115.014 27.1541 112.856 24.9965C109.082 21.2226 112.1 14.3884 117.416 14.6713C123.005 14.9683 123.68 15.1663 123.238 16.3803C123.021 16.9763 123.233 18.0729 123.708 18.8178C124.754 20.4597 129.376 17.8723 130.306 15.1245C130.615 14.2105 133.671 11.332 137.096 8.72701C140.516 6.12608 143.361 3.99002 143.424 3.97701ZM208.763 322.963C209.345 322.963 209.823 323.413 209.823 323.963C209.823 324.513 209.625 324.963 209.382 324.963C209.139 324.963 208.663 324.513 208.323 323.963C207.983 323.413 208.182 322.964 208.763 322.963ZM116.823 315.345C116.823 314.52 117.273 314.123 117.823 314.463C118.373 314.803 118.823 315.757 118.823 316.582C118.823 317.406 118.373 317.803 117.823 317.463C117.273 317.123 116.823 316.17 116.823 315.345ZM202.323 313.963C202.598 313.963 202.823 314.188 202.823 314.463C202.823 314.738 202.598 314.963 202.323 314.963C202.048 314.963 201.823 314.738 201.823 314.463C201.823 314.188 202.048 313.963 202.323 313.963ZM74.7635 305.963C75.3455 305.963 75.8231 306.413 75.8231 306.963C75.823 307.513 75.6246 307.963 75.3817 307.963C75.1386 307.963 74.6629 307.513 74.3231 306.963C73.9831 306.413 74.1818 305.964 74.7635 305.963ZM71.8231 304.963C72.373 304.963 72.8231 305.413 72.8231 305.963C72.823 306.513 72.3729 306.963 71.8231 306.963C71.2731 306.963 70.8232 306.513 70.8231 305.963C70.8231 305.413 71.2731 304.963 71.8231 304.963ZM131.823 306.07C131.823 304.426 129.038 304.086 127.17 305.5C125.465 306.792 125.573 306.902 128.573 306.931C130.36 306.949 131.823 306.561 131.823 306.07ZM86.8231 303.963C87.5559 303.963 87.856 304.263 87.4901 304.63C87.1231 304.996 86.5231 304.996 86.1561 304.63C85.7901 304.263 86.0901 303.963 86.8231 303.963ZM77.2401 304.042C78.294 303.999 78.8836 304.235 78.5516 304.567C78.2196 304.899 77.3566 304.935 76.6356 304.646C75.838 304.327 76.0752 304.09 77.2401 304.042ZM78.8231 300.963C79.373 300.963 79.8231 301.413 79.8231 301.963C79.823 302.513 79.3729 302.963 78.8231 302.963C78.2731 302.963 77.8232 302.513 77.8231 301.963C77.8231 301.413 78.2731 300.963 78.8231 300.963ZM70.3231 299.963C71.148 299.963 71.8231 300.624 71.8231 301.432C71.8231 302.326 71.2371 302.675 70.3231 302.325C69.4981 302.008 68.8231 301.347 68.8231 300.856C68.8233 300.365 69.4982 299.963 70.3231 299.963ZM69.8231 291.963C70.3727 291.963 70.8226 292.161 70.8231 292.404C70.8231 292.647 70.3731 293.123 69.8231 293.463C69.2731 293.803 68.8231 293.604 68.8231 293.022C68.8232 292.44 69.2731 291.963 69.8231 291.963ZM270.323 285.963C271.148 285.963 271.823 286.133 271.823 286.341C271.823 286.548 271.148 287.279 270.323 287.963C269.094 288.983 268.823 288.914 268.823 287.585C268.823 286.693 269.498 285.963 270.323 285.963ZM275.323 284.963C275.598 284.963 275.823 285.188 275.823 285.463C275.823 285.738 275.598 285.963 275.323 285.963C275.048 285.963 274.823 285.738 274.823 285.463C274.823 285.188 275.048 284.963 275.323 284.963ZM273.515 281.322C274.055 279.913 274.222 279.924 275.064 281.429C276.122 283.319 275.489 284.493 273.932 283.531C273.371 283.182 273.183 282.189 273.515 281.322ZM269.981 280.963C269.981 279.588 270.208 279.026 270.485 279.713C270.763 280.401 270.763 281.526 270.485 282.213C270.208 282.901 269.981 282.338 269.981 280.963ZM272.323 279.963C272.598 279.963 272.823 280.188 272.823 280.463C272.823 280.738 272.598 280.963 272.323 280.963C272.048 280.963 271.823 280.738 271.823 280.463C271.823 280.188 272.048 279.963 272.323 279.963ZM266.479 278.508C266.109 277.545 266.407 277.251 267.374 277.622C269.054 278.267 269.168 278.632 267.928 279.398C267.435 279.703 266.783 279.302 266.479 278.508ZM273.323 277.963C273.598 277.963 273.823 278.188 273.823 278.463C273.823 278.738 273.598 278.963 273.323 278.963C273.048 278.963 272.823 278.738 272.823 278.463C272.823 278.188 273.048 277.963 273.323 277.963ZM312.823 274.963C312.823 274.23 313.123 273.93 313.49 274.296C313.856 274.663 313.856 275.263 313.49 275.63C313.123 275.996 312.823 275.696 312.823 274.963ZM306.823 264.522C306.823 262.765 307.423 262.507 308.28 263.894C308.597 264.406 308.398 265.108 307.839 265.454C307.28 265.798 306.823 265.379 306.823 264.522ZM39.241 257.57C36.868 256.659 36.5506 256.812 37.2156 258.545C37.5496 259.415 37.8231 260.315 37.8231 260.545C37.8235 260.775 38.4984 260.963 39.3231 260.963C41.3139 260.963 41.251 258.341 39.241 257.57ZM294.721 251.963C296.379 251.963 302.87 258.076 302.261 259.064C300.769 261.477 295.519 258.26 294.343 254.213C293.964 252.911 294.123 251.964 294.721 251.963ZM274.323 255.963C274.048 255.963 273.823 256.188 273.823 256.463C273.823 256.738 274.048 256.963 274.323 256.963C274.598 256.963 274.823 256.738 274.823 256.463C274.823 256.188 274.598 255.963 274.323 255.963ZM268.323 252.963C268.048 252.963 267.823 253.188 267.823 253.463C267.823 253.738 268.048 253.963 268.323 253.963C268.598 253.963 268.823 253.738 268.823 253.463C268.823 253.188 268.598 252.963 268.323 252.963ZM266.646 249.296C266.257 247.287 264.26 246.448 263.356 247.911C262.476 249.334 263.598 250.963 265.455 250.963C266.331 250.963 266.833 250.26 266.646 249.296ZM269.323 249.963C269.048 249.963 268.823 250.188 268.823 250.463C268.823 250.738 269.048 250.963 269.323 250.963C269.598 250.963 269.823 250.738 269.823 250.463C269.823 250.188 269.598 249.963 269.323 249.963ZM24.3231 232.963C24.598 232.963 24.8231 233.188 24.8231 233.463C24.823 233.738 24.5979 233.963 24.3231 233.963C24.0481 233.963 23.8232 233.738 23.8231 233.463C23.8231 233.188 24.0481 232.963 24.3231 232.963ZM26.3231 232.963C26.598 232.963 26.8231 233.188 26.8231 233.463C26.823 233.738 26.5979 233.963 26.3231 233.963C26.0481 233.963 25.8232 233.738 25.8231 233.463C25.8231 233.188 26.0481 232.963 26.3231 232.963ZM30.3231 182.963C30.0481 182.963 29.8231 183.188 29.8231 183.463C29.8232 183.738 30.0481 183.963 30.3231 183.963C30.5979 183.963 30.823 183.738 30.8231 183.463C30.8231 183.188 30.598 182.963 30.3231 182.963ZM25.8231 182.963C26.5559 182.963 26.856 183.263 26.4901 183.63C26.1231 183.996 25.5231 183.996 25.1561 183.63C24.7901 183.263 25.0901 182.963 25.8231 182.963ZM24.5418 168.045C24.7068 165.852 23.3077 164.369 22.4237 165.799C22.1289 166.277 22.4496 167.439 23.1375 168.378C24.2905 169.956 24.3998 169.93 24.5418 168.045ZM26.3231 165.963C26.0481 165.963 25.8231 166.188 25.8231 166.463C25.8232 166.738 26.0481 166.963 26.3231 166.963C26.5979 166.963 26.823 166.738 26.8231 166.463C26.8231 166.188 26.598 165.963 26.3231 165.963ZM278.023 154.164C281.374 150.813 285.386 154.145 284.39 159.453C283.619 163.564 281.534 164.032 278.766 160.713C276.583 158.097 276.33 155.857 278.023 154.164ZM0.823065 156.963C1.55594 156.963 1.85603 157.263 1.49006 157.63C1.12312 157.996 0.523086 157.996 0.156073 157.63C-0.209927 157.263 0.0900652 156.963 0.823065 156.963ZM286.917 147.963C287.415 147.963 287.823 148.863 287.823 149.963C287.823 151.063 287.65 151.962 287.44 151.963C287.229 151.963 286.821 151.063 286.533 149.963C286.246 148.863 286.418 147.963 286.917 147.963ZM285.323 145.963C285.598 145.963 285.823 146.188 285.823 146.463C285.823 146.738 285.598 146.963 285.323 146.963C285.048 146.963 284.823 146.738 284.823 146.463C284.823 146.188 285.048 145.963 285.323 145.963ZM293.205 142.963C293.48 142.963 293.983 143.413 294.323 143.963C294.663 144.513 294.716 144.963 294.441 144.963C294.166 144.963 293.663 144.513 293.323 143.963C292.983 143.413 292.93 142.963 293.205 142.963ZM18.6795 133.08C18.8755 133.016 18.7986 133.583 18.5076 134.341C18.2168 135.099 18.5072 136.25 19.1512 136.898C20.0502 137.802 19.7528 137.866 17.8738 137.174C14.8158 136.047 14.1344 134.282 16.5184 133.664C17.5105 133.407 18.4825 133.144 18.6795 133.08ZM27.4901 131.63C28.6061 130.513 29.4901 130.881 29.4901 132.463C29.49 133.288 28.8899 133.963 28.1561 133.963C26.7371 133.963 26.3861 132.734 27.4901 131.63ZM293.763 131.963C294.345 131.963 294.823 132.413 294.823 132.963C294.823 133.513 294.625 133.963 294.382 133.963C294.139 133.963 293.663 133.513 293.323 132.963C292.983 132.413 293.182 131.964 293.763 131.963ZM296.323 132.963C296.598 132.963 296.823 133.188 296.823 133.463C296.823 133.738 296.598 133.963 296.323 133.963C296.048 133.963 295.823 133.738 295.823 133.463C295.823 133.188 296.048 132.963 296.323 132.963ZM20.8231 128.963C21.373 128.963 21.8231 129.638 21.8231 130.463C21.823 131.288 21.3729 131.963 20.8231 131.963C20.2731 131.963 19.8231 131.288 19.8231 130.463C19.8231 129.638 20.2731 128.963 20.8231 128.963ZM302.823 129.091C306.081 127.786 307.823 127.729 307.823 128.928C307.823 130.677 303.932 132.124 302.06 131.07C300.503 130.194 300.582 129.989 302.823 129.091ZM14.3885 125.861C17.5155 124.636 18.4666 124.918 16.4256 126.463C15.3817 127.253 14.062 127.611 13.492 127.258C12.8941 126.889 13.2737 126.298 14.3885 125.861ZM290.882 124.963C291.4 124.963 291.823 125.413 291.823 125.963C291.823 126.513 291.12 126.963 290.263 126.963C289.407 126.963 288.983 126.513 289.323 125.963C289.663 125.413 290.364 124.963 290.882 124.963ZM253.323 104.963C253.048 104.963 252.823 105.188 252.823 105.463C252.823 105.738 253.048 105.963 253.323 105.963C253.598 105.963 253.823 105.738 253.823 105.463C253.823 105.188 253.598 104.963 253.323 104.963ZM38.3231 101.963C38.598 101.963 38.8231 102.188 38.8231 102.463C38.823 102.738 38.5979 102.963 38.3231 102.963C38.0481 102.963 37.8232 102.738 37.8231 102.463C37.8231 102.188 38.0481 101.963 38.3231 101.963ZM43.3231 100.963C43.598 100.963 43.8231 101.188 43.8231 101.463C43.823 101.738 43.5979 101.963 43.3231 101.963C43.0481 101.963 42.8232 101.738 42.8231 101.463C42.8231 101.188 43.0481 100.963 43.3231 100.963ZM32.0731 95.9458C33.86 94.8529 35.9221 94.1854 36.6551 94.4614C37.3872 94.7374 38.7372 94.9995 39.6551 95.0424C40.6539 95.0895 40.8314 95.3207 40.0975 95.6176C39.4238 95.8904 38.6452 95.9673 38.367 95.7885C38.089 95.6095 37.152 96.4753 36.286 97.7133C35.258 99.1803 33.6844 99.9633 31.7654 99.9633C27.9139 99.9632 28.0332 98.4167 32.0731 95.9458ZM260.323 98.9633C260.598 98.9634 260.823 99.1884 260.823 99.4633C260.823 99.7382 260.598 99.9632 260.323 99.9633C260.048 99.9633 259.823 99.7383 259.823 99.4633C259.823 99.1883 260.048 98.9633 260.323 98.9633ZM42.3231 97.9633C42.598 97.9634 42.8231 98.1884 42.8231 98.4633C42.823 98.7382 42.5979 98.9632 42.3231 98.9633C42.0481 98.9633 41.8232 98.7383 41.8231 98.4633C41.8231 98.1883 42.0481 97.9633 42.3231 97.9633ZM54.6434 89.7915C54.2964 87.4396 52.372 86.2652 51.411 87.8198C50.504 89.2878 51.8519 91.9633 53.4998 91.9633C54.4317 91.9633 54.8462 91.1762 54.6434 89.7915ZM239.323 74.9633C239.598 74.9634 239.823 75.1884 239.823 75.4633C239.823 75.7382 239.598 75.9632 239.323 75.9633C239.048 75.9633 238.823 75.7383 238.823 75.4633C238.823 75.1883 239.048 74.9633 239.323 74.9633ZM273.823 72.9594C273.823 72.4464 274.498 72.2376 275.323 72.4946C276.148 72.7526 277.573 73.2036 278.49 73.4965C279.664 73.8715 279.843 74.3424 279.097 75.0883C277.917 76.2677 273.824 74.6152 273.823 72.9594ZM69.8074 71.2133C69.8294 69.4163 68.1488 69.6726 67.4178 71.5766C67.0247 72.6002 66.0719 73.0001 64.8113 72.6704C63.7187 72.3845 62.8236 72.5091 62.8231 72.9477C62.8231 73.3867 64.0183 74.0465 65.4783 74.4135C68.145 75.0822 69.7744 73.878 69.8074 71.2133ZM244.382 68.9633C244.139 68.9636 243.663 69.4135 243.323 69.9633C242.983 70.5132 243.182 70.9631 243.763 70.9633C244.345 70.9633 244.823 70.5133 244.823 69.9633C244.823 69.4133 244.625 68.9633 244.382 68.9633ZM241.323 67.9633C241.048 67.9633 240.823 68.1883 240.823 68.4633C240.823 68.7383 241.048 68.9633 241.323 68.9633C241.598 68.9632 241.823 68.7382 241.823 68.4633C241.823 68.1884 241.598 67.9634 241.323 67.9633ZM144.24 46.0424C143.075 46.0904 142.838 46.327 143.636 46.646C144.357 46.935 145.22 46.8988 145.552 46.5669C145.884 46.2349 145.294 45.9995 144.24 46.0424ZM181.823 43.9633C181.09 43.9633 180.79 44.2633 181.156 44.6303C181.523 44.9962 182.123 44.9963 182.49 44.6303C182.856 44.2634 182.556 43.9634 181.823 43.9633ZM147.345 34.3335C146.209 33.8976 145.532 34.3585 145.147 35.8335C144.84 37.0054 143.967 37.9633 143.206 37.9633C142.446 37.9633 141.823 38.4133 141.823 38.9633C141.823 40.4821 144.417 40.1582 145.823 38.4633C146.508 37.6384 148.111 36.9635 149.386 36.9633C150.661 36.9633 151.983 36.5133 152.323 35.9633C152.663 35.4133 152.051 34.9633 150.964 34.9633C149.876 34.9633 148.247 34.6804 147.345 34.3335ZM138.947 36.6958C137.959 35.7159 137.845 35.8314 138.387 37.2563C138.763 38.2423 139.322 38.7967 139.63 38.4887C139.938 38.1817 139.631 37.3747 138.947 36.6958ZM160.323 29.9633C160.598 29.9634 160.823 30.1884 160.823 30.4633C160.823 30.7382 160.598 30.9632 160.323 30.9633C160.048 30.9633 159.823 30.7382 159.823 30.4633C159.823 30.1883 160.048 29.9633 160.323 29.9633ZM205.823 28.9633C206.556 28.9634 206.856 29.2634 206.49 29.6303C206.123 29.9963 205.523 29.9961 205.156 29.6303C204.79 29.2633 205.09 28.9633 205.823 28.9633ZM210.823 24.9633C211.373 24.9634 211.823 25.161 211.823 25.4038C211.823 25.6468 211.373 26.1233 210.823 26.4633C210.273 26.8033 209.823 26.6039 209.823 26.0219C209.823 25.44 210.273 24.9633 210.823 24.9633ZM176.323 24.9633C176.598 24.9634 176.823 25.1884 176.823 25.4633C176.823 25.7382 176.598 25.9632 176.323 25.9633C176.048 25.9633 175.823 25.7382 175.823 25.4633C175.823 25.1883 176.048 24.9633 176.323 24.9633ZM172.823 18.9633C173.556 18.9634 173.856 19.2634 173.49 19.6303C173.123 19.9963 172.523 19.9961 172.156 19.6303C171.79 19.2633 172.09 18.9633 172.823 18.9633ZM173.823 15.9633C173.823 15.2303 174.123 14.9303 174.49 15.2963C174.856 15.6634 174.856 16.2634 174.49 16.6303C174.123 16.9963 173.823 16.6962 173.823 15.9633ZM208.823 13.9633C209.556 13.9634 209.856 14.2634 209.49 14.6303C209.123 14.9963 208.523 14.9962 208.156 14.6303C207.79 14.2633 208.09 13.9633 208.823 13.9633ZM177.323 12.9633C177.598 12.9634 177.823 13.1884 177.823 13.4633C177.823 13.7382 177.598 13.9632 177.323 13.9633C177.048 13.9633 176.823 13.7382 176.823 13.4633C176.823 13.1883 177.048 12.9633 177.323 12.9633ZM166.323 10.9633C166.598 10.9634 166.823 11.1884 166.823 11.4633C166.823 11.7382 166.598 11.9632 166.323 11.9633C166.048 11.9633 165.823 11.7382 165.823 11.4633C165.823 11.1883 166.048 10.9633 166.323 10.9633ZM175.823 10.9633C175.823 10.2303 176.123 9.93035 176.49 10.2963C176.856 10.6634 176.856 11.2634 176.49 11.6303C176.123 11.9963 175.823 11.6962 175.823 10.9633ZM171.323 9.96334C171.598 9.96343 171.823 10.1884 171.823 10.4633C171.823 10.7382 171.598 10.9632 171.323 10.9633C171.048 10.9633 170.823 10.7382 170.823 10.4633C170.823 10.1883 171.048 9.96334 171.323 9.96334ZM132.382 6.96334C132.625 6.96334 132.823 7.41334 132.823 7.96334C132.823 8.51325 132.345 8.96334 131.763 8.96334C131.182 8.96314 130.983 8.51318 131.323 7.96334C131.663 7.41353 132.139 6.96364 132.382 6.96334ZM122.823 7.96334C123.556 7.96339 123.856 8.26336 123.49 8.63033C123.123 8.99625 122.523 8.99614 122.156 8.63033C121.79 8.26333 122.09 7.96334 122.823 7.96334ZM167.204 2.311C170.133 -0.207938 172.823 -0.770742 172.823 1.13424C172.823 2.86018 169.742 5.96305 168.028 5.96334C167.212 5.96334 166.002 6.70389 165.34 7.60885C164.278 9.06077 164.156 8.98412 164.305 6.95846C164.398 5.69446 165.703 3.603 167.204 2.311Z" fill="#F8F8F8"/>
</g>
<path id="stroke0_1243_591_ref" d="M203.695 103.349C203.695 158.577 158.924 203.349 103.695 203.349C48.4668 203.349 3.69531 158.577 3.69531 103.349C3.69531 48.1202 48.4668 3.34863 103.695 3.34863C158.924 3.34863 203.695 48.1202 203.695 103.349Z"/>
</defs>
</svg>
