<svg width="240" height="65" viewBox="0 0 240 65" fill="none" xmlns="http://www.w3.org/2000/svg">
<path d="M25.0005 0V12.6916L11.7321 23.6525C8.04011 27.5753 10.1938 32.9788 11.7321 35.1902C-1.19022 30.1136 -1.86521 21.3675 2.50187 17.8836L25.0005 0Z" fill="#00BE8A"/>
<path d="M0.00140953 64.5994V51.9078L13.2699 40.9469C16.9618 37.0241 14.8082 31.6205 13.2699 29.4091C26.1922 34.4858 26.8672 43.2319 22.5001 46.7158L0.00140953 64.5994Z" fill="#00BE8A"/>
<path d="M79.76 42.24C78.8133 42.24 77.9333 42.0667 77.12 41.72C76.32 41.3733 75.6267 40.8933 75.04 40.28C74.4667 39.6533 74.0467 38.9267 73.78 38.1L76.04 37.12C76.4 37.9733 76.92 38.6467 77.6 39.14C78.28 39.62 79.0467 39.86 79.9 39.86C80.38 39.86 80.7933 39.7867 81.14 39.64C81.5 39.48 81.7733 39.2667 81.96 39C82.16 38.7333 82.26 38.4133 82.26 38.04C82.26 37.6 82.1267 37.24 81.86 36.96C81.6067 36.6667 81.22 36.44 80.7 36.28L77.84 35.36C76.68 35 75.8067 34.46 75.22 33.74C74.6333 33.02 74.34 32.1733 74.34 31.2C74.34 30.3467 74.5467 29.5933 74.96 28.94C75.3867 28.2867 75.9733 27.78 76.72 27.42C77.48 27.0467 78.3467 26.86 79.32 26.86C80.2133 26.86 81.0333 27.02 81.78 27.34C82.5267 27.6467 83.1667 28.08 83.7 28.64C84.2467 29.1867 84.6533 29.8333 84.92 30.58L82.68 31.58C82.3867 30.8333 81.9467 30.26 81.36 29.86C80.7733 29.4467 80.0933 29.24 79.32 29.24C78.8667 29.24 78.4667 29.32 78.12 29.48C77.7733 29.6267 77.5 29.84 77.3 30.12C77.1133 30.3867 77.02 30.7067 77.02 31.08C77.02 31.4933 77.1533 31.86 77.42 32.18C77.6867 32.4867 78.0933 32.7267 78.64 32.9L81.38 33.76C82.5667 34.1467 83.4533 34.68 84.04 35.36C84.64 36.04 84.94 36.88 84.94 37.88C84.94 38.7333 84.72 39.4867 84.28 40.14C83.84 40.7933 83.2333 41.3067 82.46 41.68C81.6867 42.0533 80.7867 42.24 79.76 42.24ZM86.7892 42V27.1H92.3492C93.3626 27.1 94.2559 27.2867 95.0292 27.66C95.8159 28.02 96.4292 28.5533 96.8692 29.26C97.3092 29.9533 97.5292 30.8 97.5292 31.8C97.5292 32.7867 97.3026 33.6333 96.8492 34.34C96.4092 35.0333 95.8026 35.5667 95.0292 35.94C94.2559 36.3133 93.3626 36.5 92.3492 36.5H89.5092V42H86.7892ZM89.5092 34.1H92.3892C92.8826 34.1 93.3092 34.0067 93.6692 33.82C94.0292 33.62 94.3092 33.3467 94.5092 33C94.7092 32.6533 94.8092 32.2533 94.8092 31.8C94.8092 31.3333 94.7092 30.9333 94.5092 30.6C94.3092 30.2533 94.0292 29.9867 93.6692 29.8C93.3092 29.6 92.8826 29.5 92.3892 29.5H89.5092V34.1ZM106.498 42.24C105.405 42.24 104.385 42.0467 103.438 41.66C102.491 41.2733 101.665 40.7333 100.958 40.04C100.251 39.3467 99.698 38.5333 99.298 37.6C98.9113 36.6533 98.718 35.6333 98.718 34.54C98.718 33.4333 98.9113 32.4133 99.298 31.48C99.6846 30.5467 100.231 29.7333 100.938 29.04C101.645 28.3467 102.471 27.8133 103.418 27.44C104.365 27.0533 105.391 26.86 106.498 26.86C107.605 26.86 108.631 27.0533 109.578 27.44C110.525 27.8267 111.351 28.3667 112.058 29.06C112.765 29.74 113.311 30.5467 113.698 31.48C114.098 32.4133 114.298 33.4333 114.298 34.54C114.298 35.6333 114.098 36.6533 113.698 37.6C113.298 38.5333 112.745 39.3467 112.038 40.04C111.331 40.7333 110.505 41.2733 109.558 41.66C108.625 42.0467 107.605 42.24 106.498 42.24ZM106.498 39.76C107.231 39.76 107.905 39.6333 108.518 39.38C109.131 39.1133 109.665 38.7467 110.118 38.28C110.585 37.8133 110.938 37.26 111.178 36.62C111.431 35.98 111.558 35.2867 111.558 34.54C111.558 33.7933 111.431 33.1067 111.178 32.48C110.938 31.84 110.585 31.2867 110.118 30.82C109.665 30.34 109.131 29.9733 108.518 29.72C107.905 29.4667 107.231 29.34 106.498 29.34C105.778 29.34 105.111 29.4667 104.498 29.72C103.885 29.9733 103.345 30.34 102.878 30.82C102.425 31.2867 102.071 31.84 101.818 32.48C101.565 33.1067 101.438 33.7933 101.438 34.54C101.438 35.2867 101.565 35.98 101.818 36.62C102.071 37.26 102.425 37.8133 102.878 38.28C103.345 38.7467 103.885 39.1133 104.498 39.38C105.111 39.6333 105.778 39.76 106.498 39.76ZM116.117 42V27.1H121.657C122.67 27.1 123.563 27.2867 124.337 27.66C125.123 28.02 125.737 28.5533 126.177 29.26C126.617 29.9533 126.837 30.8 126.837 31.8C126.837 32.8267 126.59 33.7 126.097 34.42C125.617 35.14 124.963 35.6733 124.137 36.02L127.557 42H124.477L120.817 35.46L122.577 36.5H118.837V42H116.117ZM118.837 34.1H121.697C122.19 34.1 122.617 34.0067 122.977 33.82C123.337 33.62 123.617 33.3467 123.817 33C124.017 32.6533 124.117 32.2533 124.117 31.8C124.117 31.3333 124.017 30.9333 123.817 30.6C123.617 30.2533 123.337 29.9867 122.977 29.8C122.617 29.6 122.19 29.5 121.697 29.5H118.837V34.1ZM130.989 42V29.5H127.129V27.1H137.529V29.5H133.729V42H130.989ZM143.908 42.24C142.962 42.24 142.082 42.0667 141.268 41.72C140.468 41.3733 139.775 40.8933 139.188 40.28C138.615 39.6533 138.195 38.9267 137.928 38.1L140.188 37.12C140.548 37.9733 141.068 38.6467 141.748 39.14C142.428 39.62 143.195 39.86 144.048 39.86C144.528 39.86 144.942 39.7867 145.288 39.64C145.648 39.48 145.922 39.2667 146.108 39C146.308 38.7333 146.408 38.4133 146.408 38.04C146.408 37.6 146.275 37.24 146.008 36.96C145.755 36.6667 145.368 36.44 144.848 36.28L141.988 35.36C140.828 35 139.955 34.46 139.368 33.74C138.782 33.02 138.488 32.1733 138.488 31.2C138.488 30.3467 138.695 29.5933 139.108 28.94C139.535 28.2867 140.122 27.78 140.868 27.42C141.628 27.0467 142.495 26.86 143.468 26.86C144.362 26.86 145.182 27.02 145.928 27.34C146.675 27.6467 147.315 28.08 147.848 28.64C148.395 29.1867 148.802 29.8333 149.068 30.58L146.828 31.58C146.535 30.8333 146.095 30.26 145.508 29.86C144.922 29.4467 144.242 29.24 143.468 29.24C143.015 29.24 142.615 29.32 142.268 29.48C141.922 29.6267 141.648 29.84 141.448 30.12C141.262 30.3867 141.168 30.7067 141.168 31.08C141.168 31.4933 141.302 31.86 141.568 32.18C141.835 32.4867 142.242 32.7267 142.788 32.9L145.528 33.76C146.715 34.1467 147.602 34.68 148.188 35.36C148.788 36.04 149.088 36.88 149.088 37.88C149.088 38.7333 148.868 39.4867 148.428 40.14C147.988 40.7933 147.382 41.3067 146.608 41.68C145.835 42.0533 144.935 42.24 143.908 42.24ZM153.892 42V27.1H163.832V29.5H156.612V33.62H162.932V36.02H156.612V42H153.892ZM165.011 42V27.1H174.911V29.5H167.731V33.32H174.511V35.72H167.731V39.6H174.911V42H165.011ZM181.626 42.24C180.679 42.24 179.799 42.0667 178.986 41.72C178.186 41.3733 177.492 40.8933 176.906 40.28C176.332 39.6533 175.912 38.9267 175.646 38.1L177.906 37.12C178.266 37.9733 178.786 38.6467 179.466 39.14C180.146 39.62 180.912 39.86 181.766 39.86C182.246 39.86 182.659 39.7867 183.006 39.64C183.366 39.48 183.639 39.2667 183.826 39C184.026 38.7333 184.126 38.4133 184.126 38.04C184.126 37.6 183.992 37.24 183.726 36.96C183.472 36.6667 183.086 36.44 182.566 36.28L179.706 35.36C178.546 35 177.672 34.46 177.086 33.74C176.499 33.02 176.206 32.1733 176.206 31.2C176.206 30.3467 176.412 29.5933 176.826 28.94C177.252 28.2867 177.839 27.78 178.586 27.42C179.346 27.0467 180.212 26.86 181.186 26.86C182.079 26.86 182.899 27.02 183.646 27.34C184.392 27.6467 185.032 28.08 185.566 28.64C186.112 29.1867 186.519 29.8333 186.786 30.58L184.546 31.58C184.252 30.8333 183.812 30.26 183.226 29.86C182.639 29.4467 181.959 29.24 181.186 29.24C180.732 29.24 180.332 29.32 179.986 29.48C179.639 29.6267 179.366 29.84 179.166 30.12C178.979 30.3867 178.886 30.7067 178.886 31.08C178.886 31.4933 179.019 31.86 179.286 32.18C179.552 32.4867 179.959 32.7267 180.506 32.9L183.246 33.76C184.432 34.1467 185.319 34.68 185.906 35.36C186.506 36.04 186.806 36.88 186.806 37.88C186.806 38.7333 186.586 39.4867 186.146 40.14C185.706 40.7933 185.099 41.3067 184.326 41.68C183.552 42.0533 182.652 42.24 181.626 42.24ZM191.295 42V29.5H187.435V27.1H197.835V29.5H194.035V42H191.295ZM198.895 42V27.1H201.615V42H198.895ZM207.861 42L202.661 27.1H205.621L209.701 39.44H209.121L213.201 27.1H216.161L210.981 42H207.861ZM215.107 42L220.247 27.1H223.767L228.907 42H225.947L224.887 38.8H219.127L218.047 42H215.107ZM219.907 36.4H224.107L221.627 28.98H222.387L219.907 36.4ZM229.966 42V27.1H232.686V39.6H239.066V42H229.966Z" fill="#1D1D1F"/>
<path d="M75.872 47.68H80.016V47.184H75.048V46.4H80.968V48.464H75.872V47.68ZM75.336 47.68H76.304C76.2507 47.9307 76.192 48.192 76.128 48.464C76.0693 48.736 76.008 48.9973 75.944 49.248C75.8853 49.4987 75.8267 49.7227 75.768 49.92L74.808 49.808C74.872 49.616 74.936 49.4 75 49.16C75.064 48.9147 75.1253 48.664 75.184 48.408C75.248 48.152 75.2987 47.9093 75.336 47.68ZM75.68 48.928H80.712V49.728H75.44L75.68 48.928ZM80.464 48.928H81.432C81.432 48.928 81.4293 48.9707 81.424 49.056C81.424 49.1413 81.4187 49.2133 81.408 49.272C81.3653 49.8053 81.3173 50.2133 81.264 50.496C81.2107 50.7787 81.1307 50.9733 81.024 51.08C80.9387 51.176 80.8453 51.2427 80.744 51.28C80.648 51.3227 80.536 51.3493 80.408 51.36C80.296 51.3707 80.1493 51.3787 79.968 51.384C79.7867 51.3893 79.5947 51.3867 79.392 51.376C79.3867 51.2373 79.3573 51.088 79.304 50.928C79.256 50.7627 79.1947 50.6213 79.12 50.504C79.2907 50.52 79.4507 50.5307 79.6 50.536C79.7547 50.5413 79.8693 50.5413 79.944 50.536C80.008 50.536 80.0613 50.5333 80.104 50.528C80.1467 50.5173 80.184 50.496 80.216 50.464C80.2747 50.4107 80.3227 50.2773 80.36 50.064C80.3973 49.8453 80.432 49.5067 80.464 49.048V48.928ZM77.512 46.584H78.448V51.72H77.512V46.584ZM77.32 49.216L78.064 49.544C77.8827 49.768 77.6747 49.984 77.44 50.192C77.2053 50.4 76.952 50.5947 76.68 50.776C76.408 50.9573 76.128 51.12 75.84 51.264C75.552 51.408 75.2613 51.5307 74.968 51.632C74.9253 51.5573 74.8693 51.472 74.8 51.376C74.7307 51.2853 74.656 51.1947 74.576 51.104C74.5013 51.0133 74.432 50.9387 74.368 50.88C74.6507 50.8 74.9333 50.7013 75.216 50.584C75.4987 50.4667 75.7707 50.336 76.032 50.192C76.2933 50.048 76.5333 49.8933 76.752 49.728C76.976 49.5627 77.1653 49.392 77.32 49.216ZM75.36 44.824H77.88V45.56H75.36V44.824ZM78.544 44.824H81.648V45.56H78.544V44.824ZM75.4 44.136L76.296 44.384C76.1893 44.6453 76.0587 44.9067 75.904 45.168C75.7547 45.424 75.5947 45.6667 75.424 45.896C75.2587 46.12 75.0907 46.3173 74.92 46.488C74.8667 46.4347 74.792 46.376 74.696 46.312C74.6 46.248 74.5013 46.1867 74.4 46.128C74.304 46.064 74.2187 46.0107 74.144 45.968C74.4053 45.7493 74.6453 45.4773 74.864 45.152C75.088 44.8213 75.2667 44.4827 75.4 44.136ZM78.664 44.136L79.568 44.368C79.4187 44.768 79.2213 45.1493 78.976 45.512C78.7307 45.8747 78.4773 46.1787 78.216 46.424C78.1627 46.3707 78.0853 46.3093 77.984 46.24C77.888 46.1707 77.7893 46.104 77.688 46.04C77.592 45.976 77.5067 45.9253 77.432 45.888C77.6933 45.68 77.9307 45.4213 78.144 45.112C78.3627 44.8027 78.536 44.4773 78.664 44.136ZM75.664 45.4L76.424 45.08C76.5307 45.2347 76.6373 45.4107 76.744 45.608C76.8507 45.8 76.928 45.9653 76.976 46.104L76.16 46.472C76.1227 46.328 76.0533 46.1547 75.952 45.952C75.856 45.7493 75.76 45.5653 75.664 45.4ZM79.136 45.4L79.92 45.112C80.048 45.2613 80.1787 45.4293 80.312 45.616C80.4453 45.8027 80.544 45.968 80.608 46.112L79.776 46.432C79.7227 46.288 79.6347 46.12 79.512 45.928C79.3893 45.736 79.264 45.56 79.136 45.4ZM86.16 51V50.32L87.792 48.576C88.112 48.2347 88.3627 47.96 88.544 47.752C88.7307 47.5387 88.864 47.352 88.944 47.192C89.0293 47.032 89.072 46.864 89.072 46.688C89.072 46.4 88.984 46.1787 88.808 46.024C88.632 45.864 88.4053 45.784 88.128 45.784C87.84 45.784 87.592 45.8667 87.384 46.032C87.176 46.192 87.032 46.4267 86.952 46.736L86.12 46.496C86.184 46.1813 86.312 45.9093 86.504 45.68C86.696 45.4453 86.9307 45.264 87.208 45.136C87.4907 45.008 87.7947 44.944 88.12 44.944C88.4987 44.944 88.8293 45.016 89.112 45.16C89.3947 45.2987 89.6133 45.4933 89.768 45.744C89.928 45.9947 90.008 46.2853 90.008 46.616C90.008 46.8347 89.9653 47.048 89.88 47.256C89.8 47.4587 89.6747 47.6747 89.504 47.904C89.3333 48.128 89.1147 48.3813 88.848 48.664L87.408 50.2H90.12V51H86.16ZM95.1893 51L97.2293 48.36L97.3893 48.464C97.3146 48.544 97.2319 48.608 97.1413 48.656C97.0559 48.704 96.9626 48.7387 96.8613 48.76C96.7653 48.7813 96.6613 48.792 96.5493 48.792C96.1919 48.792 95.8719 48.712 95.5893 48.552C95.3066 48.3867 95.0826 48.1627 94.9173 47.88C94.7573 47.592 94.6773 47.2667 94.6773 46.904C94.6773 46.5253 94.7653 46.1893 94.9413 45.896C95.1173 45.6027 95.3573 45.3707 95.6613 45.2C95.9653 45.0293 96.3119 44.944 96.7013 44.944C97.0959 44.944 97.4426 45.0293 97.7413 45.2C98.0453 45.3707 98.2826 45.6053 98.4533 45.904C98.6293 46.1973 98.7173 46.5333 98.7173 46.912C98.7173 47.1147 98.6959 47.3147 98.6533 47.512C98.6106 47.7093 98.5359 47.9147 98.4293 48.128C98.3226 48.336 98.1733 48.5653 97.9813 48.816L96.3173 51H95.1893ZM96.7013 48C96.9093 48 97.0933 47.952 97.2533 47.856C97.4133 47.76 97.5413 47.6293 97.6373 47.464C97.7333 47.2987 97.7813 47.1093 97.7813 46.896C97.7813 46.6773 97.7333 46.4853 97.6373 46.32C97.5413 46.1493 97.4106 46.0187 97.2453 45.928C97.0853 45.832 96.9039 45.784 96.7013 45.784C96.4986 45.784 96.3146 45.832 96.1493 45.928C95.9893 46.0187 95.8613 46.1493 95.7653 46.32C95.6693 46.4853 95.6213 46.6773 95.6213 46.896C95.6213 47.1093 95.6666 47.2987 95.7573 47.464C95.8533 47.6293 95.9839 47.76 96.1493 47.856C96.3146 47.952 96.4986 48 96.7013 48ZM106.106 47.232V48.624H107.514V47.232H106.106ZM105.202 46.392H108.482V49.456H105.202V46.392ZM103.434 44.472H110.306V51.712H109.258V45.456H104.434V51.712H103.434V44.472ZM104.002 50.384H109.85V51.28H104.002V50.384ZM121.298 45.576C121.266 45.624 121.218 45.6987 121.154 45.8C121.095 45.9013 121.05 45.9947 121.018 46.08C120.906 46.3307 120.767 46.6107 120.602 46.92C120.442 47.2293 120.258 47.5413 120.05 47.856C119.847 48.1653 119.631 48.456 119.402 48.728C119.103 49.064 118.773 49.3973 118.41 49.728C118.053 50.0533 117.674 50.3547 117.274 50.632C116.879 50.904 116.474 51.1387 116.058 51.336L115.234 50.472C115.666 50.3067 116.085 50.0987 116.49 49.848C116.895 49.5973 117.271 49.3253 117.618 49.032C117.965 48.7387 118.263 48.4533 118.514 48.176C118.69 47.9733 118.855 47.7573 119.01 47.528C119.17 47.2987 119.311 47.072 119.434 46.848C119.557 46.6187 119.647 46.408 119.706 46.216C119.653 46.216 119.557 46.216 119.418 46.216C119.279 46.216 119.117 46.216 118.93 46.216C118.749 46.216 118.557 46.216 118.354 46.216C118.151 46.216 117.957 46.216 117.77 46.216C117.589 46.216 117.429 46.216 117.29 46.216C117.151 46.216 117.053 46.216 116.994 46.216C116.882 46.216 116.765 46.2213 116.642 46.232C116.519 46.2373 116.402 46.2453 116.29 46.256C116.183 46.2613 116.101 46.2667 116.042 46.272V45.136C116.122 45.1413 116.221 45.1493 116.338 45.16C116.455 45.1707 116.573 45.1787 116.69 45.184C116.813 45.1893 116.914 45.192 116.994 45.192C117.063 45.192 117.173 45.192 117.322 45.192C117.471 45.192 117.642 45.192 117.834 45.192C118.026 45.192 118.223 45.192 118.426 45.192C118.634 45.192 118.831 45.192 119.018 45.192C119.21 45.192 119.375 45.192 119.514 45.192C119.653 45.192 119.754 45.192 119.818 45.192C119.994 45.192 120.154 45.1813 120.298 45.16C120.447 45.1387 120.562 45.1147 120.642 45.088L121.298 45.576ZM119.506 48.064C119.714 48.2293 119.935 48.4213 120.17 48.64C120.405 48.8587 120.637 49.0853 120.866 49.32C121.095 49.5547 121.306 49.7813 121.498 50C121.695 50.2133 121.861 50.4 121.994 50.56L121.082 51.352C120.885 51.08 120.658 50.7973 120.402 50.504C120.151 50.2107 119.885 49.92 119.602 49.632C119.325 49.3387 119.042 49.0613 118.754 48.8L119.506 48.064ZM132.586 45C132.586 45.1227 132.629 45.2267 132.714 45.312C132.799 45.392 132.903 45.432 133.026 45.432C133.143 45.432 133.245 45.392 133.33 45.312C133.415 45.2267 133.458 45.1227 133.458 45C133.458 44.8827 133.415 44.7813 133.33 44.696C133.245 44.6107 133.143 44.568 133.026 44.568C132.903 44.568 132.799 44.6107 132.714 44.696C132.629 44.7813 132.586 44.8827 132.586 45ZM132.098 45C132.098 44.8293 132.138 44.6747 132.218 44.536C132.303 44.3973 132.415 44.2853 132.554 44.2C132.698 44.1147 132.855 44.072 133.026 44.072C133.197 44.072 133.351 44.1147 133.49 44.2C133.629 44.2853 133.738 44.3973 133.818 44.536C133.903 44.6747 133.946 44.8293 133.946 45C133.946 45.1707 133.903 45.328 133.818 45.472C133.738 45.6107 133.629 45.7227 133.49 45.808C133.351 45.888 133.197 45.928 133.026 45.928C132.855 45.928 132.698 45.888 132.554 45.808C132.415 45.7227 132.303 45.6107 132.218 45.472C132.138 45.328 132.098 45.1707 132.098 45ZM130.994 44.688C130.989 44.7253 130.981 44.7867 130.97 44.872C130.959 44.9573 130.949 45.048 130.938 45.144C130.927 45.2347 130.922 45.3147 130.922 45.384C130.922 45.544 130.922 45.72 130.922 45.912C130.922 46.104 130.922 46.296 130.922 46.488C130.922 46.6747 130.922 46.8453 130.922 47C130.922 47.1067 130.922 47.256 130.922 47.448C130.922 47.64 130.922 47.856 130.922 48.096C130.922 48.336 130.922 48.5867 130.922 48.848C130.922 49.104 130.922 49.3547 130.922 49.6C130.922 49.84 130.922 50.0587 130.922 50.256C130.922 50.448 130.922 50.6 130.922 50.712C130.922 50.9413 130.853 51.1227 130.714 51.256C130.581 51.3947 130.373 51.464 130.09 51.464C129.946 51.464 129.799 51.4613 129.65 51.456C129.501 51.4507 129.354 51.4427 129.21 51.432C129.066 51.4213 128.925 51.408 128.786 51.392L128.69 50.4C128.861 50.432 129.026 50.456 129.186 50.472C129.351 50.488 129.482 50.496 129.578 50.496C129.685 50.496 129.759 50.4747 129.802 50.432C129.845 50.384 129.869 50.3093 129.874 50.208C129.874 50.16 129.874 50.056 129.874 49.896C129.879 49.736 129.882 49.5467 129.882 49.328C129.882 49.1093 129.882 48.8773 129.882 48.632C129.882 48.3867 129.882 48.152 129.882 47.928C129.882 47.704 129.882 47.5093 129.882 47.344C129.882 47.1787 129.882 47.064 129.882 47C129.882 46.904 129.882 46.76 129.882 46.568C129.882 46.3707 129.882 46.1627 129.882 45.944C129.882 45.7253 129.882 45.5387 129.882 45.384C129.882 45.2773 129.874 45.152 129.858 45.008C129.842 44.8587 129.826 44.752 129.81 44.688H130.994ZM127.074 45.96C127.197 45.976 127.325 45.992 127.458 46.008C127.591 46.0187 127.722 46.024 127.85 46.024C127.914 46.024 128.042 46.024 128.234 46.024C128.431 46.024 128.666 46.024 128.938 46.024C129.21 46.024 129.501 46.024 129.81 46.024C130.125 46.024 130.439 46.024 130.754 46.024C131.074 46.024 131.37 46.024 131.642 46.024C131.919 46.024 132.159 46.024 132.362 46.024C132.565 46.024 132.706 46.024 132.786 46.024C132.898 46.024 133.029 46.0187 133.178 46.008C133.333 45.9973 133.466 45.984 133.578 45.968V47.016C133.455 47.0053 133.322 47 133.178 47C133.034 46.9947 132.906 46.992 132.794 46.992C132.714 46.992 132.573 46.992 132.37 46.992C132.173 46.992 131.935 46.992 131.658 46.992C131.386 46.992 131.093 46.992 130.778 46.992C130.463 46.992 130.149 46.992 129.834 46.992C129.519 46.992 129.226 46.992 128.954 46.992C128.682 46.992 128.447 46.992 128.25 46.992C128.058 46.992 127.925 46.992 127.85 46.992C127.733 46.992 127.602 46.9947 127.458 47C127.319 47.0053 127.191 47.0133 127.074 47.024V45.96ZM129.114 48.128C129.023 48.3093 128.914 48.504 128.786 48.712C128.658 48.92 128.519 49.128 128.37 49.336C128.226 49.544 128.085 49.7387 127.946 49.92C127.807 50.096 127.682 50.2427 127.57 50.36L126.706 49.768C126.839 49.6453 126.975 49.5013 127.114 49.336C127.258 49.1653 127.397 48.9867 127.53 48.8C127.669 48.6133 127.794 48.4267 127.906 48.24C128.023 48.0533 128.125 47.8747 128.21 47.704L129.114 48.128ZM132.554 47.68C132.655 47.808 132.767 47.96 132.89 48.136C133.018 48.312 133.146 48.5013 133.274 48.704C133.402 48.9013 133.522 49.096 133.634 49.288C133.746 49.4747 133.842 49.64 133.922 49.784L132.978 50.296C132.893 50.1253 132.794 49.9413 132.682 49.744C132.575 49.5467 132.463 49.3493 132.346 49.152C132.229 48.9547 132.111 48.7707 131.994 48.6C131.882 48.424 131.778 48.2747 131.682 48.152L132.554 47.68ZM138.882 47.296C138.978 47.3013 139.101 47.3093 139.25 47.32C139.399 47.3253 139.554 47.3307 139.714 47.336C139.879 47.3413 140.031 47.344 140.17 47.344C140.303 47.344 140.469 47.344 140.666 47.344C140.863 47.344 141.077 47.344 141.306 47.344C141.541 47.344 141.781 47.344 142.026 47.344C142.277 47.344 142.525 47.344 142.77 47.344C143.015 47.344 143.247 47.344 143.466 47.344C143.685 47.344 143.879 47.344 144.05 47.344C144.226 47.344 144.365 47.344 144.466 47.344C144.653 47.344 144.829 47.3387 144.994 47.328C145.159 47.312 145.295 47.3013 145.402 47.296V48.552C145.311 48.5467 145.175 48.5387 144.994 48.528C144.813 48.5173 144.637 48.512 144.466 48.512C144.365 48.512 144.226 48.512 144.05 48.512C143.874 48.512 143.677 48.512 143.458 48.512C143.239 48.512 143.007 48.512 142.762 48.512C142.522 48.512 142.277 48.512 142.026 48.512C141.775 48.512 141.533 48.512 141.298 48.512C141.069 48.512 140.855 48.512 140.658 48.512C140.466 48.512 140.303 48.512 140.17 48.512C139.941 48.512 139.706 48.5173 139.466 48.528C139.226 48.5333 139.031 48.5413 138.882 48.552V47.296ZM153.534 44.768C153.587 44.864 153.651 45.0053 153.726 45.192C153.806 45.3733 153.886 45.5733 153.966 45.792C154.051 46.0053 154.131 46.2133 154.206 46.416C154.28 46.6133 154.336 46.7787 154.374 46.912L153.366 47.264C153.334 47.136 153.28 46.976 153.206 46.784C153.136 46.5867 153.062 46.384 152.982 46.176C152.902 45.9627 152.822 45.76 152.742 45.568C152.662 45.376 152.592 45.2187 152.534 45.096L153.534 44.768ZM157.19 45.408C157.142 45.504 157.099 45.608 157.062 45.72C157.03 45.832 157.003 45.936 156.982 46.032C156.907 46.32 156.806 46.6427 156.678 47C156.555 47.3573 156.406 47.7147 156.23 48.072C156.059 48.424 155.862 48.7467 155.638 49.04C155.36 49.408 155.048 49.744 154.702 50.048C154.36 50.3467 154.003 50.608 153.63 50.832C153.256 51.056 152.878 51.24 152.494 51.384L151.598 50.488C151.966 50.3813 152.339 50.232 152.718 50.04C153.102 49.848 153.47 49.616 153.822 49.344C154.179 49.072 154.491 48.7653 154.758 48.424C154.96 48.168 155.144 47.856 155.31 47.488C155.48 47.12 155.624 46.728 155.742 46.312C155.864 45.8907 155.947 45.4747 155.99 45.064L157.19 45.408ZM151.31 45.264C151.368 45.3867 151.44 45.5467 151.526 45.744C151.616 45.9413 151.707 46.1493 151.798 46.368C151.888 46.5867 151.971 46.7973 152.046 47C152.126 47.1973 152.19 47.3653 152.238 47.504L151.206 47.88C151.174 47.7733 151.128 47.6427 151.07 47.488C151.016 47.3333 150.952 47.1653 150.878 46.984C150.808 46.8027 150.736 46.624 150.662 46.448C150.587 46.272 150.518 46.112 150.454 45.968C150.39 45.824 150.334 45.7067 150.286 45.616L151.31 45.264ZM168.622 45.672C168.584 45.7467 168.55 45.8373 168.518 45.944C168.491 46.0453 168.467 46.1413 168.446 46.232C168.403 46.424 168.347 46.6427 168.278 46.888C168.208 47.1333 168.126 47.3867 168.03 47.648C167.934 47.9093 167.819 48.168 167.686 48.424C167.558 48.68 167.411 48.92 167.246 49.144C167.006 49.4587 166.726 49.7573 166.406 50.04C166.086 50.3173 165.728 50.568 165.334 50.792C164.939 51.0107 164.504 51.1973 164.03 51.352L163.158 50.4C163.686 50.272 164.142 50.1147 164.526 49.928C164.915 49.736 165.254 49.5227 165.542 49.288C165.83 49.048 166.08 48.792 166.294 48.52C166.47 48.296 166.619 48.0533 166.742 47.792C166.87 47.5307 166.974 47.2667 167.054 47C167.139 46.7333 167.198 46.488 167.23 46.264C167.15 46.264 167.016 46.264 166.83 46.264C166.648 46.264 166.432 46.264 166.182 46.264C165.936 46.264 165.678 46.264 165.406 46.264C165.139 46.264 164.88 46.264 164.63 46.264C164.379 46.264 164.152 46.264 163.95 46.264C163.752 46.264 163.603 46.264 163.502 46.264C163.32 46.264 163.142 46.2667 162.966 46.272C162.795 46.2773 162.656 46.2853 162.55 46.296V45.168C162.635 45.1733 162.734 45.1813 162.846 45.192C162.958 45.2027 163.075 45.2133 163.198 45.224C163.32 45.2293 163.424 45.232 163.51 45.232C163.59 45.232 163.71 45.232 163.87 45.232C164.03 45.232 164.214 45.232 164.422 45.232C164.63 45.232 164.846 45.232 165.07 45.232C165.299 45.232 165.526 45.232 165.75 45.232C165.974 45.232 166.184 45.232 166.382 45.232C166.579 45.232 166.75 45.232 166.894 45.232C167.043 45.232 167.147 45.232 167.206 45.232C167.286 45.232 167.384 45.2293 167.502 45.224C167.619 45.2133 167.728 45.1947 167.83 45.168L168.622 45.672ZM174.846 46.664C174.936 46.68 175.043 46.6907 175.166 46.696C175.288 46.7013 175.392 46.704 175.478 46.704H179.142C179.238 46.704 179.342 46.7013 179.454 46.696C179.566 46.6907 179.67 46.68 179.766 46.664V47.672C179.664 47.6613 179.558 47.6533 179.446 47.648C179.334 47.6427 179.232 47.64 179.142 47.64H175.478C175.392 47.64 175.288 47.6427 175.166 47.648C175.043 47.6533 174.936 47.6613 174.846 47.672V46.664ZM176.726 50.76V47.216H177.774V50.76H176.726ZM174.438 50.168C174.539 50.1787 174.648 50.1893 174.766 50.2C174.883 50.2107 174.992 50.216 175.094 50.216H179.518C179.63 50.216 179.736 50.2107 179.838 50.2C179.944 50.184 180.04 50.1733 180.126 50.168V51.216C180.04 51.2 179.934 51.1893 179.806 51.184C179.683 51.1787 179.587 51.176 179.518 51.176H175.094C174.998 51.176 174.891 51.1787 174.774 51.184C174.656 51.1893 174.544 51.2 174.438 51.216V50.168ZM191.702 45.576C191.67 45.624 191.622 45.6987 191.558 45.8C191.499 45.9013 191.454 45.9947 191.422 46.08C191.31 46.3307 191.171 46.6107 191.006 46.92C190.846 47.2293 190.662 47.5413 190.454 47.856C190.251 48.1653 190.035 48.456 189.806 48.728C189.507 49.064 189.176 49.3973 188.814 49.728C188.456 50.0533 188.078 50.3547 187.678 50.632C187.283 50.904 186.878 51.1387 186.462 51.336L185.638 50.472C186.07 50.3067 186.488 50.0987 186.894 49.848C187.299 49.5973 187.675 49.3253 188.022 49.032C188.368 48.7387 188.667 48.4533 188.918 48.176C189.094 47.9733 189.259 47.7573 189.414 47.528C189.574 47.2987 189.715 47.072 189.838 46.848C189.96 46.6187 190.051 46.408 190.11 46.216C190.056 46.216 189.96 46.216 189.822 46.216C189.683 46.216 189.52 46.216 189.334 46.216C189.152 46.216 188.96 46.216 188.758 46.216C188.555 46.216 188.36 46.216 188.174 46.216C187.992 46.216 187.832 46.216 187.694 46.216C187.555 46.216 187.456 46.216 187.398 46.216C187.286 46.216 187.168 46.2213 187.046 46.232C186.923 46.2373 186.806 46.2453 186.694 46.256C186.587 46.2613 186.504 46.2667 186.446 46.272V45.136C186.526 45.1413 186.624 45.1493 186.742 45.16C186.859 45.1707 186.976 45.1787 187.094 45.184C187.216 45.1893 187.318 45.192 187.398 45.192C187.467 45.192 187.576 45.192 187.726 45.192C187.875 45.192 188.046 45.192 188.238 45.192C188.43 45.192 188.627 45.192 188.83 45.192C189.038 45.192 189.235 45.192 189.422 45.192C189.614 45.192 189.779 45.192 189.918 45.192C190.056 45.192 190.158 45.192 190.222 45.192C190.398 45.192 190.558 45.1813 190.702 45.16C190.851 45.1387 190.966 45.1147 191.046 45.088L191.702 45.576ZM189.91 48.064C190.118 48.2293 190.339 48.4213 190.574 48.64C190.808 48.8587 191.04 49.0853 191.27 49.32C191.499 49.5547 191.71 49.7813 191.902 50C192.099 50.2133 192.264 50.4 192.398 50.56L191.486 51.352C191.288 51.08 191.062 50.7973 190.806 50.504C190.555 50.2107 190.288 49.92 190.006 49.632C189.728 49.3387 189.446 49.0613 189.158 48.8L189.91 48.064ZM198.398 44.864C198.531 44.8853 198.675 44.9013 198.83 44.912C198.984 44.9173 199.126 44.92 199.254 44.92C199.355 44.92 199.515 44.92 199.734 44.92C199.952 44.92 200.198 44.92 200.47 44.92C200.742 44.92 201.014 44.92 201.286 44.92C201.558 44.92 201.798 44.92 202.006 44.92C202.219 44.92 202.374 44.92 202.47 44.92C202.608 44.92 202.752 44.9173 202.902 44.912C203.051 44.9013 203.195 44.8853 203.334 44.864V45.896C203.195 45.8853 203.051 45.8773 202.902 45.872C202.752 45.8667 202.608 45.864 202.47 45.864C202.374 45.864 202.219 45.864 202.006 45.864C201.798 45.864 201.558 45.864 201.286 45.864C201.014 45.864 200.742 45.864 200.47 45.864C200.198 45.864 199.952 45.864 199.734 45.864C199.52 45.864 199.363 45.864 199.262 45.864C199.123 45.864 198.974 45.8667 198.814 45.872C198.659 45.8773 198.52 45.8853 198.398 45.896V44.864ZM197.47 46.912C197.587 46.9227 197.712 46.9333 197.846 46.944C197.984 46.9547 198.115 46.96 198.238 46.96C198.307 46.96 198.446 46.96 198.654 46.96C198.862 46.96 199.112 46.96 199.406 46.96C199.699 46.96 200.014 46.96 200.35 46.96C200.691 46.96 201.03 46.96 201.366 46.96C201.707 46.96 202.024 46.96 202.318 46.96C202.611 46.96 202.859 46.96 203.062 46.96C203.27 46.96 203.408 46.96 203.478 46.96C203.563 46.96 203.678 46.9573 203.822 46.952C203.971 46.9413 204.099 46.928 204.206 46.912V47.952C204.11 47.9413 203.992 47.936 203.854 47.936C203.715 47.9307 203.59 47.928 203.478 47.928C203.408 47.928 203.27 47.928 203.062 47.928C202.859 47.928 202.611 47.928 202.318 47.928C202.024 47.928 201.707 47.928 201.366 47.928C201.03 47.928 200.691 47.928 200.35 47.928C200.014 47.928 199.699 47.928 199.406 47.928C199.112 47.928 198.862 47.928 198.654 47.928C198.446 47.928 198.307 47.928 198.238 47.928C198.12 47.928 197.99 47.9307 197.846 47.936C197.707 47.9413 197.582 47.9493 197.47 47.96V46.912ZM201.566 47.464C201.566 47.9867 201.52 48.456 201.43 48.872C201.339 49.2827 201.208 49.6533 201.038 49.984C200.942 50.1653 200.814 50.352 200.654 50.544C200.494 50.736 200.31 50.9173 200.102 51.088C199.894 51.2587 199.67 51.4027 199.43 51.52L198.494 50.84C198.776 50.728 199.048 50.568 199.31 50.36C199.571 50.152 199.782 49.9307 199.942 49.696C200.144 49.3867 200.28 49.0453 200.35 48.672C200.419 48.2987 200.454 47.8987 200.454 47.472L201.566 47.464ZM208.929 48.72C209.276 48.6453 209.628 48.544 209.985 48.416C210.348 48.2827 210.686 48.1413 211.001 47.992C211.316 47.8373 211.58 47.6987 211.793 47.576C212.054 47.416 212.31 47.2373 212.561 47.04C212.817 46.8373 213.052 46.6347 213.265 46.432C213.478 46.2293 213.652 46.04 213.785 45.864L214.577 46.64C214.422 46.816 214.217 47.0107 213.961 47.224C213.71 47.432 213.438 47.6427 213.145 47.856C212.852 48.064 212.558 48.2533 212.265 48.424C212.084 48.536 211.876 48.6507 211.641 48.768C211.406 48.88 211.158 48.992 210.897 49.104C210.641 49.2107 210.382 49.312 210.121 49.408C209.865 49.504 209.625 49.5893 209.401 49.664L208.929 48.72ZM211.697 48.2L212.785 47.992V50.84C212.785 50.9307 212.785 51.0347 212.785 51.152C212.79 51.2693 212.798 51.376 212.809 51.472C212.82 51.5733 212.83 51.6507 212.841 51.704H211.657C211.668 51.6507 211.673 51.5733 211.673 51.472C211.678 51.376 211.684 51.2693 211.689 51.152C211.694 51.0347 211.697 50.9307 211.697 50.84V48.2ZM226.073 44.616C226.142 44.712 226.214 44.8267 226.289 44.96C226.369 45.0933 226.446 45.2267 226.521 45.36C226.596 45.4933 226.657 45.6107 226.705 45.712L226.065 45.992C225.98 45.8267 225.881 45.64 225.769 45.432C225.657 45.2187 225.548 45.0347 225.441 44.88L226.073 44.616ZM227.017 44.256C227.086 44.3573 227.161 44.4773 227.241 44.616C227.326 44.7493 227.406 44.8827 227.481 45.016C227.556 45.144 227.617 45.2533 227.665 45.344L227.025 45.616C226.945 45.4507 226.844 45.264 226.721 45.056C226.604 44.848 226.492 44.6693 226.385 44.52L227.017 44.256ZM221.369 48.512C221.46 48.288 221.545 48.0533 221.625 47.808C221.71 47.5573 221.785 47.3013 221.849 47.04C221.913 46.7733 221.969 46.5093 222.017 46.248C222.07 45.9867 222.108 45.728 222.129 45.472L223.297 45.712C223.276 45.7867 223.252 45.8747 223.225 45.976C223.198 46.0773 223.174 46.176 223.153 46.272C223.132 46.368 223.116 46.448 223.105 46.512C223.078 46.6507 223.041 46.8187 222.993 47.016C222.945 47.2133 222.889 47.424 222.825 47.648C222.761 47.8667 222.694 48.088 222.625 48.312C222.561 48.5307 222.494 48.7333 222.425 48.92C222.329 49.176 222.214 49.4427 222.081 49.72C221.953 49.9973 221.814 50.264 221.665 50.52C221.521 50.776 221.38 51.0053 221.241 51.208L220.121 50.736C220.377 50.4053 220.614 50.04 220.833 49.64C221.057 49.24 221.236 48.864 221.369 48.512ZM225.321 48.344C225.241 48.1307 225.153 47.904 225.057 47.664C224.961 47.424 224.86 47.184 224.753 46.944C224.646 46.704 224.542 46.4773 224.441 46.264C224.34 46.0507 224.246 45.8667 224.161 45.712L225.225 45.368C225.305 45.5227 225.398 45.7093 225.505 45.928C225.612 46.1467 225.718 46.3787 225.825 46.624C225.932 46.864 226.036 47.104 226.137 47.344C226.238 47.584 226.329 47.8 226.409 47.992C226.478 48.168 226.553 48.376 226.633 48.616C226.718 48.856 226.804 49.1067 226.889 49.368C226.98 49.624 227.062 49.8747 227.137 50.12C227.217 50.3653 227.284 50.5867 227.337 50.784L226.153 51.168C226.084 50.8533 226.004 50.5333 225.913 50.208C225.822 49.8827 225.726 49.5627 225.625 49.248C225.529 48.9333 225.428 48.632 225.321 48.344ZM235.617 50.824C235.633 50.744 235.646 50.6533 235.657 50.552C235.673 50.4453 235.681 50.3387 235.681 50.232C235.681 50.1733 235.681 50.056 235.681 49.88C235.681 49.704 235.681 49.4907 235.681 49.24C235.681 48.9893 235.681 48.72 235.681 48.432C235.681 48.1387 235.681 47.8427 235.681 47.544C235.681 47.2453 235.681 46.9653 235.681 46.704C235.681 46.4373 235.681 46.2053 235.681 46.008C235.681 45.8053 235.681 45.6587 235.681 45.568C235.681 45.3867 235.67 45.2293 235.649 45.096C235.633 44.9627 235.622 44.8907 235.617 44.88H236.809C236.804 44.8907 236.793 44.9653 236.777 45.104C236.761 45.2373 236.753 45.3947 236.753 45.576C236.753 45.6667 236.753 45.8027 236.753 45.984C236.753 46.16 236.753 46.3653 236.753 46.6C236.753 46.8293 236.753 47.0747 236.753 47.336C236.753 47.5973 236.753 47.856 236.753 48.112C236.753 48.3627 236.753 48.6027 236.753 48.832C236.753 49.056 236.753 49.248 236.753 49.408C236.753 49.568 236.753 49.6853 236.753 49.76C236.972 49.664 237.198 49.5333 237.433 49.368C237.668 49.2027 237.897 49.0107 238.121 48.792C238.35 48.568 238.553 48.328 238.729 48.072L239.345 48.952C239.126 49.24 238.86 49.5227 238.545 49.8C238.236 50.0773 237.916 50.3307 237.585 50.56C237.254 50.7893 236.937 50.9813 236.633 51.136C236.548 51.184 236.478 51.2267 236.425 51.264C236.372 51.3067 236.326 51.344 236.289 51.376L235.617 50.824ZM231.913 50.704C232.265 50.4587 232.553 50.1627 232.777 49.816C233.001 49.4693 233.166 49.128 233.273 48.792C233.332 48.616 233.374 48.4 233.401 48.144C233.433 47.8827 233.457 47.6053 233.473 47.312C233.489 47.0133 233.497 46.72 233.497 46.432C233.502 46.1387 233.505 45.8693 233.505 45.624C233.505 45.464 233.497 45.328 233.481 45.216C233.47 45.0987 233.454 44.9893 233.433 44.888H234.609C234.604 44.8987 234.596 44.944 234.585 45.024C234.58 45.0987 234.572 45.1893 234.561 45.296C234.556 45.3973 234.553 45.504 234.553 45.616C234.553 45.8507 234.55 46.1253 234.545 46.44C234.54 46.7493 234.529 47.0667 234.513 47.392C234.497 47.7173 234.473 48.0267 234.441 48.32C234.409 48.608 234.366 48.8533 234.313 49.056C234.19 49.5093 234.006 49.9307 233.761 50.32C233.521 50.704 233.23 51.048 232.889 51.352L231.913 50.704Z" fill="#00BE8A"/>
<path d="M65.58 28.11C65.1067 28.11 64.7433 28.0233 64.49 27.85C64.2433 27.6767 64.12 27.33 64.12 26.81V24.16H63.2V23.19H64.12V21.5H65.24V23.19H66.57V24.16H65.24V26.52C65.24 26.7467 65.2933 26.9 65.4 26.98C65.5133 27.06 65.6733 27.1 65.88 27.1C66.0067 27.1 66.1333 27.08 66.26 27.04C66.3933 27 66.4967 26.96 66.57 26.92V27.95C66.45 27.9967 66.3 28.0333 66.12 28.06C65.94 28.0933 65.76 28.11 65.58 28.11ZM67.2577 28V20.87H68.3877V23.76C68.4943 23.5733 68.6543 23.4133 68.8677 23.28C69.081 23.14 69.3377 23.07 69.6377 23.07C70.1377 23.07 70.5443 23.23 70.8577 23.55C71.1777 23.87 71.3377 24.34 71.3377 24.96V28H70.2077V25.23C70.2077 24.85 70.131 24.5667 69.9777 24.38C69.8243 24.1867 69.6177 24.09 69.3577 24.09C69.071 24.09 68.8377 24.19 68.6577 24.39C68.4777 24.5833 68.3877 24.8733 68.3877 25.26V28H67.2577Z" fill="#00BE8A"/>
<path d="M37.896 51V49.944C37.896 48.408 38.2907 46.9147 39.08 45.464C39.8907 44.0133 41.2347 42.392 43.112 40.6C43.7733 39.96 44.4027 39.32 45 38.68C45.5973 38.0187 46.088 37.3787 46.472 36.76C46.856 36.12 47.0587 35.512 47.08 34.936C47.1013 33.8267 46.8453 33.0053 46.312 32.472C45.8 31.9387 45.064 31.672 44.104 31.672C43.1867 31.672 42.504 32.0027 42.056 32.664C41.608 33.3253 41.384 34.2533 41.384 35.448H37.992C37.992 33.2293 38.5573 31.5013 39.688 30.264C40.8187 29.0267 42.2907 28.408 44.104 28.408C45.3413 28.408 46.44 28.664 47.4 29.176C48.3813 29.688 49.1493 30.4347 49.704 31.416C50.2587 32.3973 50.5147 33.6027 50.472 35.032C50.4507 36.0347 50.216 36.9627 49.768 37.816C49.32 38.6693 48.7227 39.5013 47.976 40.312C47.2507 41.1013 46.4187 41.944 45.48 42.84C44.4987 43.8 43.624 44.7173 42.856 45.592C42.1093 46.4667 41.672 47.224 41.544 47.864H50.088V51H37.896ZM57.007 51.32C55.8977 51.32 54.831 51.0213 53.807 50.424C52.8043 49.8267 51.9937 49.0693 51.375 48.152L53.935 46.2C54.319 46.7973 54.7563 47.2773 55.247 47.64C55.759 47.9813 56.3457 48.152 57.007 48.152C58.4577 48.152 59.5243 47.4907 60.207 46.168C60.8897 44.824 61.2523 42.8507 61.295 40.248C60.9323 40.7813 60.4203 41.208 59.759 41.528C59.0977 41.8267 58.4257 41.976 57.743 41.976C56.5483 41.976 55.471 41.7093 54.511 41.176C53.5723 40.6213 52.8257 39.8533 52.271 38.872C51.7377 37.8693 51.471 36.6853 51.471 35.32C51.471 33.9333 51.727 32.7173 52.239 31.672C52.751 30.6053 53.4763 29.7733 54.415 29.176C55.3537 28.5573 56.4417 28.248 57.679 28.248C58.6177 28.248 59.503 28.408 60.335 28.728C61.1883 29.0267 61.935 29.5707 62.575 30.36C63.2363 31.128 63.7483 32.2267 64.111 33.656C64.495 35.0853 64.6657 36.92 64.623 39.16C64.5377 43.3627 63.8443 46.4453 62.543 48.408C61.263 50.3493 59.4177 51.32 57.007 51.32ZM57.775 38.904C58.7777 38.904 59.5563 38.5733 60.111 37.912C60.6657 37.2293 60.9217 36.3547 60.879 35.288C60.8363 34.072 60.5483 33.144 60.015 32.504C59.503 31.8427 58.799 31.512 57.903 31.512C56.9857 31.512 56.2603 31.864 55.727 32.568C55.215 33.272 54.959 34.1893 54.959 35.32C54.959 36.3867 55.215 37.2507 55.727 37.912C56.2603 38.5733 56.943 38.904 57.775 38.904Z" fill="#00BE8A"/>
<path d="M39.864 14.936H43.552V15.768H39.864V14.936ZM38.432 16.736H45.592V17.616H38.432V16.736ZM41.512 16.216H42.496V18.688C42.496 18.9333 42.4613 19.1253 42.392 19.264C42.3227 19.4027 42.192 19.5067 42 19.576C41.808 19.6453 41.584 19.688 41.328 19.704C41.072 19.72 40.7733 19.728 40.432 19.728C40.4 19.5893 40.344 19.4293 40.264 19.248C40.1893 19.072 40.1147 18.92 40.04 18.792C40.2107 18.7973 40.384 18.8027 40.56 18.808C40.736 18.8133 40.8907 18.816 41.024 18.816C41.1627 18.816 41.2587 18.8133 41.312 18.808C41.392 18.808 41.4453 18.7973 41.472 18.776C41.4987 18.7547 41.512 18.7173 41.512 18.664V16.216ZM43.248 14.936H43.48L43.688 14.888L44.288 15.352C44.112 15.5493 43.9067 15.7467 43.672 15.944C43.4373 16.1413 43.192 16.328 42.936 16.504C42.68 16.6747 42.4213 16.824 42.16 16.952C42.1013 16.8667 42.0187 16.7707 41.912 16.664C41.8107 16.552 41.7253 16.4613 41.656 16.392C41.864 16.2853 42.0693 16.1573 42.272 16.008C42.48 15.8587 42.6693 15.7067 42.84 15.552C43.0107 15.392 43.1467 15.248 43.248 15.12V14.936ZM38.536 13.472H45.504V15.432H44.56V14.32H39.432V15.432H38.536V13.472ZM44.072 12.256L45.112 12.56C44.9307 12.8267 44.7413 13.088 44.544 13.344C44.3467 13.6 44.168 13.816 44.008 13.992L43.216 13.704C43.3227 13.5653 43.4267 13.4133 43.528 13.248C43.6347 13.0827 43.736 12.9147 43.832 12.744C43.928 12.568 44.008 12.4053 44.072 12.256ZM39.072 12.648L39.888 12.28C40.032 12.44 40.1733 12.6187 40.312 12.816C40.4507 13.008 40.552 13.1813 40.616 13.336L39.752 13.744C39.6933 13.5947 39.5973 13.4187 39.464 13.216C39.336 13.008 39.2053 12.8187 39.072 12.648ZM41.08 12.472L41.928 12.16C42.056 12.3307 42.1787 12.5253 42.296 12.744C42.4187 12.9627 42.5067 13.1547 42.56 13.32L41.656 13.672C41.6133 13.512 41.536 13.32 41.424 13.096C41.3173 12.8667 41.2027 12.6587 41.08 12.472ZM54.112 13.32H58.552V14.2H54.112V13.32ZM55.84 12.2H56.784V13.712H55.84V12.2ZM55.04 14.272L55.904 14.632C55.728 14.9787 55.5173 15.3147 55.272 15.64C55.0267 15.96 54.7733 16.2293 54.512 16.448C54.4427 16.3573 54.3413 16.2533 54.208 16.136C54.0747 16.0133 53.9573 15.912 53.856 15.832C54.096 15.6453 54.32 15.4107 54.528 15.128C54.7413 14.84 54.912 14.5547 55.04 14.272ZM56.704 14.664L57.448 14.24C57.608 14.4107 57.768 14.5947 57.928 14.792C58.0933 14.9893 58.2427 15.1867 58.376 15.384C58.5147 15.576 58.6213 15.7547 58.696 15.92L57.888 16.384C57.824 16.224 57.728 16.0453 57.6 15.848C57.472 15.6507 57.328 15.448 57.168 15.24C57.0133 15.0267 56.8587 14.8347 56.704 14.664ZM55.632 15.768C55.808 16.2373 56.04 16.6773 56.328 17.088C56.6213 17.4933 56.968 17.8507 57.368 18.16C57.768 18.464 58.2187 18.704 58.72 18.88C58.6507 18.9493 58.5707 19.0347 58.48 19.136C58.3947 19.2373 58.312 19.3413 58.232 19.448C58.1573 19.5547 58.096 19.6507 58.048 19.736C57.52 19.5173 57.0507 19.2267 56.64 18.864C56.2293 18.496 55.872 18.072 55.568 17.592C55.264 17.1067 55.008 16.576 54.8 16L55.632 15.768ZM56.792 15.72L57.76 15.912C57.5787 16.488 57.3333 17.024 57.024 17.52C56.72 18.016 56.3387 18.4533 55.88 18.832C55.4213 19.2053 54.8693 19.5093 54.224 19.744C54.192 19.6693 54.1467 19.584 54.088 19.488C54.0293 19.392 53.968 19.2987 53.904 19.208C53.8453 19.1173 53.7893 19.04 53.736 18.976C54.3173 18.784 54.8133 18.5253 55.224 18.2C55.6347 17.8747 55.968 17.5013 56.224 17.08C56.4853 16.6533 56.6747 16.2 56.792 15.72ZM51.24 13.856H54.016V14.744H51.24V13.856ZM52.256 12.2H53.144V19.712H52.256V12.2ZM52.248 14.472L52.792 14.656C52.7333 14.976 52.6587 15.3067 52.568 15.648C52.4827 15.9893 52.384 16.3253 52.272 16.656C52.16 16.9813 52.0373 17.288 51.904 17.576C51.776 17.8587 51.6373 18.1013 51.488 18.304C51.4453 18.176 51.3787 18.0293 51.288 17.864C51.2027 17.6987 51.1227 17.5573 51.048 17.44C51.1813 17.264 51.3067 17.0587 51.424 16.824C51.5467 16.5893 51.6613 16.3413 51.768 16.08C51.8747 15.8133 51.968 15.544 52.048 15.272C52.128 14.9947 52.1947 14.728 52.248 14.472ZM53.112 15.104C53.16 15.1627 53.232 15.264 53.328 15.408C53.424 15.5467 53.528 15.6987 53.64 15.864C53.752 16.0293 53.8533 16.184 53.944 16.328C54.04 16.472 54.1067 16.5733 54.144 16.632L53.624 17.344C53.576 17.2213 53.512 17.0773 53.432 16.912C53.352 16.7467 53.264 16.576 53.168 16.4C53.0773 16.2187 52.9893 16.0507 52.904 15.896C52.8187 15.7413 52.7467 15.6133 52.688 15.512L53.112 15.104ZM66.232 15.408H71.424V16.32H66.232V15.408ZM66.632 13.352H71.04V14.272H66.632V13.352ZM68.304 12.2H69.296V16.072H68.304V12.2ZM66.24 18.424C66.5973 18.408 67.0107 18.3893 67.48 18.368C67.9547 18.3467 68.456 18.32 68.984 18.288C69.5173 18.256 70.048 18.2267 70.576 18.2L70.568 19.072C70.072 19.1093 69.5707 19.1493 69.064 19.192C68.5627 19.2347 68.08 19.272 67.616 19.304C67.1573 19.336 66.7387 19.368 66.36 19.4L66.24 18.424ZM69.304 17.32L70.128 16.88C70.3307 17.1147 70.528 17.3707 70.72 17.648C70.9173 17.9253 71.096 18.2 71.256 18.472C71.416 18.744 71.536 18.9947 71.616 19.224L70.704 19.72C70.6347 19.5013 70.5253 19.2533 70.376 18.976C70.2267 18.6987 70.0587 18.416 69.872 18.128C69.6853 17.8347 69.496 17.5653 69.304 17.32ZM67.68 16.056L68.752 16.336C68.6347 16.64 68.5067 16.952 68.368 17.272C68.2347 17.592 68.0987 17.896 67.96 18.184C67.8267 18.472 67.6987 18.728 67.576 18.952L66.72 18.672C66.8053 18.496 66.8933 18.3013 66.984 18.088C67.0747 17.8693 67.1627 17.6427 67.248 17.408C67.3387 17.1733 67.4187 16.9413 67.488 16.712C67.5627 16.4773 67.6267 16.2587 67.68 16.056ZM64.448 12.944L64.976 12.232C65.152 12.296 65.336 12.3733 65.528 12.464C65.72 12.5547 65.904 12.6507 66.08 12.752C66.256 12.8533 66.4 12.952 66.512 13.048L65.952 13.832C65.8453 13.736 65.7067 13.6347 65.536 13.528C65.3707 13.416 65.192 13.3093 65 13.208C64.808 13.1013 64.624 13.0133 64.448 12.944ZM63.992 15.12L64.488 14.392C64.6587 14.4507 64.8427 14.5227 65.04 14.608C65.2373 14.6933 65.424 14.784 65.6 14.88C65.7813 14.9707 65.928 15.0587 66.04 15.144L65.512 15.952C65.4053 15.8613 65.264 15.7653 65.088 15.664C64.9173 15.5627 64.736 15.464 64.544 15.368C64.352 15.272 64.168 15.1893 63.992 15.12ZM64.208 18.992C64.3467 18.7893 64.496 18.5493 64.656 18.272C64.8213 17.9947 64.9867 17.7013 65.152 17.392C65.3227 17.0827 65.4827 16.7733 65.632 16.464L66.352 17.08C66.224 17.3573 66.0853 17.6427 65.936 17.936C65.792 18.224 65.6427 18.5093 65.488 18.792C65.3387 19.0747 65.1893 19.3467 65.04 19.608L64.208 18.992ZM79.968 12.392H81.072C81.0613 12.616 81.0427 12.904 81.016 13.256C80.9893 13.608 80.9387 14 80.864 14.432C80.7947 14.8587 80.688 15.3067 80.544 15.776C80.4 16.2453 80.2027 16.7147 79.952 17.184C79.7067 17.648 79.392 18.0933 79.008 18.52C78.6293 18.9413 78.168 19.3173 77.624 19.648C77.5387 19.5253 77.4213 19.3947 77.272 19.256C77.128 19.1173 76.976 18.992 76.816 18.88C77.3493 18.5813 77.7973 18.24 78.16 17.856C78.5227 17.472 78.8187 17.0693 79.048 16.648C79.2773 16.2213 79.4533 15.7947 79.576 15.368C79.6987 14.936 79.7867 14.528 79.84 14.144C79.8933 13.76 79.9253 13.416 79.936 13.112C79.9467 12.808 79.9573 12.568 79.968 12.392ZM81.032 12.608C81.0373 12.7093 81.048 12.8693 81.064 13.088C81.08 13.3067 81.112 13.568 81.16 13.872C81.208 14.176 81.28 14.5067 81.376 14.864C81.4773 15.216 81.6107 15.5787 81.776 15.952C81.9413 16.3253 82.1467 16.6907 82.392 17.048C82.6373 17.4053 82.9333 17.736 83.28 18.04C83.632 18.344 84.0427 18.608 84.512 18.832C84.3573 18.944 84.2133 19.0747 84.08 19.224C83.952 19.3733 83.848 19.5147 83.768 19.648C83.2773 19.4027 82.848 19.112 82.48 18.776C82.1173 18.4347 81.8053 18.0667 81.544 17.672C81.288 17.272 81.0747 16.8667 80.904 16.456C80.7333 16.0453 80.5947 15.6427 80.488 15.248C80.3867 14.848 80.3093 14.4773 80.256 14.136C80.2027 13.7947 80.1653 13.4987 80.144 13.248C80.128 12.9973 80.1147 12.816 80.104 12.704L81.032 12.608ZM91.208 17.024H95.744V17.6H91.208V17.024ZM91.208 16.024H96.304V18.592H91.208V17.952H95.352V16.672H91.208V16.024ZM92.976 16.384H93.896V18.616C93.896 18.7653 93.9307 18.8613 94 18.904C94.0747 18.9413 94.232 18.96 94.472 18.96C94.52 18.96 94.592 18.96 94.688 18.96C94.7893 18.96 94.9013 18.96 95.024 18.96C95.152 18.96 95.2773 18.96 95.4 18.96C95.528 18.96 95.6453 18.96 95.752 18.96C95.8587 18.96 95.9413 18.96 96 18.96C96.1333 18.96 96.2347 18.9413 96.304 18.904C96.3733 18.8667 96.424 18.7893 96.456 18.672C96.488 18.5547 96.512 18.384 96.528 18.16C96.624 18.224 96.7493 18.2853 96.904 18.344C97.064 18.4027 97.2053 18.4427 97.328 18.464C97.2907 18.784 97.2293 19.032 97.144 19.208C97.0587 19.3893 96.9307 19.5147 96.76 19.584C96.5947 19.6587 96.3653 19.696 96.072 19.696C96.024 19.696 95.9413 19.696 95.824 19.696C95.712 19.696 95.584 19.696 95.44 19.696C95.3013 19.696 95.16 19.696 95.016 19.696C94.872 19.696 94.744 19.696 94.632 19.696C94.52 19.696 94.4373 19.696 94.384 19.696C94.0213 19.696 93.736 19.664 93.528 19.6C93.3253 19.536 93.1813 19.4267 93.096 19.272C93.016 19.1173 92.976 18.9013 92.976 18.624V16.384ZM90.728 16.024H91.648V18.952H90.728V16.024ZM90.544 12.488H96.48V13.2H90.544V12.488ZM91.16 14.408H92.744V14.928H91.16V14.408ZM91.008 15.2H92.744V15.728H91.008V15.2ZM94.264 15.2H96.024V15.728H94.264V15.2ZM94.264 14.408H95.832V14.928H94.264V14.408ZM93.024 12.776H93.968V15.808H93.024V12.776ZM89.992 13.496H97.056V15.136H96.168V14.136H90.848V15.136H89.992V13.496ZM102.712 15.704H110.096V16.672H102.712V15.704ZM105.904 14.432H106.912V18.6C106.912 18.872 106.875 19.0827 106.8 19.232C106.731 19.3813 106.597 19.4933 106.4 19.568C106.208 19.6427 105.973 19.6907 105.696 19.712C105.419 19.7333 105.096 19.7413 104.728 19.736C104.712 19.64 104.68 19.5307 104.632 19.408C104.584 19.2907 104.533 19.1707 104.48 19.048C104.427 18.9307 104.373 18.8293 104.32 18.744C104.507 18.7493 104.691 18.7547 104.872 18.76C105.059 18.7653 105.224 18.768 105.368 18.768C105.517 18.768 105.621 18.768 105.68 18.768C105.765 18.768 105.824 18.7547 105.856 18.728C105.888 18.7013 105.904 18.6533 105.904 18.584V14.432ZM103.552 12.696H108.592V13.64H103.552V12.696ZM108.272 12.696H108.528L108.752 12.64L109.48 13.192C109.235 13.4533 108.952 13.7147 108.632 13.976C108.317 14.2373 107.989 14.488 107.648 14.728C107.307 14.9627 106.973 15.1653 106.648 15.336C106.6 15.2667 106.539 15.1893 106.464 15.104C106.389 15.0187 106.312 14.936 106.232 14.856C106.152 14.7707 106.08 14.6987 106.016 14.64C106.304 14.496 106.595 14.3227 106.888 14.12C107.187 13.9173 107.459 13.7093 107.704 13.496C107.949 13.2827 108.139 13.088 108.272 12.912V12.696ZM117.144 14.936H120.832V15.768H117.144V14.936ZM115.712 16.736H122.872V17.616H115.712V16.736ZM118.792 16.216H119.776V18.688C119.776 18.9333 119.741 19.1253 119.672 19.264C119.603 19.4027 119.472 19.5067 119.28 19.576C119.088 19.6453 118.864 19.688 118.608 19.704C118.352 19.72 118.053 19.728 117.712 19.728C117.68 19.5893 117.624 19.4293 117.544 19.248C117.469 19.072 117.395 18.92 117.32 18.792C117.491 18.7973 117.664 18.8027 117.84 18.808C118.016 18.8133 118.171 18.816 118.304 18.816C118.443 18.816 118.539 18.8133 118.592 18.808C118.672 18.808 118.725 18.7973 118.752 18.776C118.779 18.7547 118.792 18.7173 118.792 18.664V16.216ZM120.528 14.936H120.76L120.968 14.888L121.568 15.352C121.392 15.5493 121.187 15.7467 120.952 15.944C120.717 16.1413 120.472 16.328 120.216 16.504C119.96 16.6747 119.701 16.824 119.44 16.952C119.381 16.8667 119.299 16.7707 119.192 16.664C119.091 16.552 119.005 16.4613 118.936 16.392C119.144 16.2853 119.349 16.1573 119.552 16.008C119.76 15.8587 119.949 15.7067 120.12 15.552C120.291 15.392 120.427 15.248 120.528 15.12V14.936ZM115.816 13.472H122.784V15.432H121.84V14.32H116.712V15.432H115.816V13.472ZM121.352 12.256L122.392 12.56C122.211 12.8267 122.021 13.088 121.824 13.344C121.627 13.6 121.448 13.816 121.288 13.992L120.496 13.704C120.603 13.5653 120.707 13.4133 120.808 13.248C120.915 13.0827 121.016 12.9147 121.112 12.744C121.208 12.568 121.288 12.4053 121.352 12.256ZM116.352 12.648L117.168 12.28C117.312 12.44 117.453 12.6187 117.592 12.816C117.731 13.008 117.832 13.1813 117.896 13.336L117.032 13.744C116.973 13.5947 116.877 13.4187 116.744 13.216C116.616 13.008 116.485 12.8187 116.352 12.648ZM118.36 12.472L119.208 12.16C119.336 12.3307 119.459 12.5253 119.576 12.744C119.699 12.9627 119.787 13.1547 119.84 13.32L118.936 13.672C118.893 13.512 118.816 13.32 118.704 13.096C118.597 12.8667 118.483 12.6587 118.36 12.472ZM129.904 14.624H134.376V15.168H129.904V14.624ZM130.288 13.8H134.04V14.32H130.288V13.8ZM131.688 13.464H132.56V14.944H131.688V13.464ZM131.6 16.808H132.44V18.392H131.6V16.808ZM132.48 16.656C132.619 16.8213 132.797 16.9813 133.016 17.136C133.235 17.2853 133.475 17.416 133.736 17.528C134.003 17.64 134.275 17.7307 134.552 17.8C134.472 17.8693 134.384 17.9653 134.288 18.088C134.192 18.2053 134.115 18.3093 134.056 18.4C133.768 18.3093 133.485 18.1893 133.208 18.04C132.936 17.8853 132.685 17.7093 132.456 17.512C132.227 17.3093 132.032 17.1013 131.872 16.888L132.48 16.656ZM132.104 16.328L132.824 16.584C132.621 16.8187 132.376 17.04 132.088 17.248C131.805 17.456 131.504 17.6427 131.184 17.808C130.864 17.9733 130.547 18.1147 130.232 18.232C130.2 18.1787 130.152 18.1147 130.088 18.04C130.024 17.96 129.96 17.8827 129.896 17.808C129.832 17.7333 129.773 17.672 129.72 17.624C130.024 17.5333 130.325 17.424 130.624 17.296C130.928 17.1627 131.208 17.016 131.464 16.856C131.725 16.6907 131.939 16.5147 132.104 16.328ZM133.848 16.544L134.424 16.912C134.253 17.0507 134.069 17.1787 133.872 17.296C133.68 17.4133 133.504 17.5147 133.344 17.6L132.872 17.272C132.973 17.208 133.085 17.1333 133.208 17.048C133.331 16.9627 133.448 16.8773 133.56 16.792C133.672 16.7013 133.768 16.6187 133.848 16.544ZM131.112 15.896V16.296H133.176V15.896H131.112ZM130.312 15.408H134.016V16.784H130.312V15.408ZM128.728 12.512H135.584V19.72H134.648V13.368H129.632V19.72H128.728V12.512ZM129.304 18.568H135.152V19.432H129.304V18.568ZM142.272 12.688H147.856V19.608H146.824V13.656H143.256V19.624H142.272V12.688ZM142.944 15.376H147.248V16.32H142.944V15.376ZM142.944 18.128H147.256V19.096H142.944V18.128ZM154.392 13.76H161.464V14.736H154.392V13.76ZM156.032 17.384H159.752V18.36H156.032V17.384ZM157.408 12.208H158.424V19.72H157.408V12.208ZM157.12 14.112L158 14.392C157.771 14.968 157.493 15.5173 157.168 16.04C156.843 16.5627 156.477 17.0373 156.072 17.464C155.672 17.8853 155.24 18.2453 154.776 18.544C154.723 18.464 154.653 18.376 154.568 18.28C154.483 18.1787 154.397 18.08 154.312 17.984C154.232 17.8827 154.152 17.8027 154.072 17.744C154.403 17.5627 154.72 17.3413 155.024 17.08C155.328 16.8187 155.611 16.528 155.872 16.208C156.139 15.888 156.376 15.552 156.584 15.2C156.797 14.8427 156.976 14.48 157.12 14.112ZM158.72 14.136C158.912 14.6053 159.163 15.0667 159.472 15.52C159.787 15.968 160.144 16.376 160.544 16.744C160.944 17.112 161.365 17.4133 161.808 17.648C161.728 17.712 161.64 17.7947 161.544 17.896C161.453 17.9973 161.365 18.104 161.28 18.216C161.195 18.3227 161.123 18.4213 161.064 18.512C160.6 18.224 160.165 17.872 159.76 17.456C159.36 17.0347 159 16.5653 158.68 16.048C158.36 15.5307 158.083 14.9893 157.848 14.424L158.72 14.136ZM168.488 17.024H173.024V17.6H168.488V17.024ZM168.488 16.024H173.584V18.592H168.488V17.952H172.632V16.672H168.488V16.024ZM170.256 16.384H171.176V18.616C171.176 18.7653 171.211 18.8613 171.28 18.904C171.355 18.9413 171.512 18.96 171.752 18.96C171.8 18.96 171.872 18.96 171.968 18.96C172.069 18.96 172.181 18.96 172.304 18.96C172.432 18.96 172.557 18.96 172.68 18.96C172.808 18.96 172.925 18.96 173.032 18.96C173.139 18.96 173.221 18.96 173.28 18.96C173.413 18.96 173.515 18.9413 173.584 18.904C173.653 18.8667 173.704 18.7893 173.736 18.672C173.768 18.5547 173.792 18.384 173.808 18.16C173.904 18.224 174.029 18.2853 174.184 18.344C174.344 18.4027 174.485 18.4427 174.608 18.464C174.571 18.784 174.509 19.032 174.424 19.208C174.339 19.3893 174.211 19.5147 174.04 19.584C173.875 19.6587 173.645 19.696 173.352 19.696C173.304 19.696 173.221 19.696 173.104 19.696C172.992 19.696 172.864 19.696 172.72 19.696C172.581 19.696 172.44 19.696 172.296 19.696C172.152 19.696 172.024 19.696 171.912 19.696C171.8 19.696 171.717 19.696 171.664 19.696C171.301 19.696 171.016 19.664 170.808 19.6C170.605 19.536 170.461 19.4267 170.376 19.272C170.296 19.1173 170.256 18.9013 170.256 18.624V16.384ZM168.008 16.024H168.928V18.952H168.008V16.024ZM167.824 12.488H173.76V13.2H167.824V12.488ZM168.44 14.408H170.024V14.928H168.44V14.408ZM168.288 15.2H170.024V15.728H168.288V15.2ZM171.544 15.2H173.304V15.728H171.544V15.2ZM171.544 14.408H173.112V14.928H171.544V14.408ZM170.304 12.776H171.248V15.808H170.304V12.776ZM167.272 13.496H174.336V15.136H173.448V14.136H168.128V15.136H167.272V13.496ZM179.992 15.704H187.376V16.672H179.992V15.704ZM183.184 14.432H184.192V18.6C184.192 18.872 184.155 19.0827 184.08 19.232C184.011 19.3813 183.877 19.4933 183.68 19.568C183.488 19.6427 183.253 19.6907 182.976 19.712C182.699 19.7333 182.376 19.7413 182.008 19.736C181.992 19.64 181.96 19.5307 181.912 19.408C181.864 19.2907 181.813 19.1707 181.76 19.048C181.707 18.9307 181.653 18.8293 181.6 18.744C181.787 18.7493 181.971 18.7547 182.152 18.76C182.339 18.7653 182.504 18.768 182.648 18.768C182.797 18.768 182.901 18.768 182.96 18.768C183.045 18.768 183.104 18.7547 183.136 18.728C183.168 18.7013 183.184 18.6533 183.184 18.584V14.432ZM180.832 12.696H185.872V13.64H180.832V12.696ZM185.552 12.696H185.808L186.032 12.64L186.76 13.192C186.515 13.4533 186.232 13.7147 185.912 13.976C185.597 14.2373 185.269 14.488 184.928 14.728C184.587 14.9627 184.253 15.1653 183.928 15.336C183.88 15.2667 183.819 15.1893 183.744 15.104C183.669 15.0187 183.592 14.936 183.512 14.856C183.432 14.7707 183.36 14.6987 183.296 14.64C183.584 14.496 183.875 14.3227 184.168 14.12C184.467 13.9173 184.739 13.7093 184.984 13.496C185.229 13.2827 185.419 13.088 185.552 12.912V12.696ZM192.92 17.048H200.208V17.856H192.92V17.048ZM193.112 12.736H200.008V13.528H193.112V12.736ZM197.528 16.544H198.472V18.792C198.472 19.0213 198.44 19.1973 198.376 19.32C198.317 19.4427 198.205 19.536 198.04 19.6C197.875 19.6587 197.672 19.6933 197.432 19.704C197.192 19.72 196.909 19.728 196.584 19.728C196.563 19.5947 196.523 19.4507 196.464 19.296C196.411 19.1413 196.352 19.0053 196.288 18.888C196.432 18.888 196.576 18.8907 196.72 18.896C196.869 18.9013 197 18.904 197.112 18.904C197.229 18.904 197.309 18.904 197.352 18.904C197.421 18.8987 197.467 18.888 197.488 18.872C197.515 18.8507 197.528 18.8133 197.528 18.76V16.544ZM196.056 12.208H197V16.28H196.056V12.208ZM194.064 18.256L194.784 17.752C194.928 17.848 195.075 17.96 195.224 18.088C195.379 18.216 195.523 18.344 195.656 18.472C195.795 18.5947 195.904 18.712 195.984 18.824L195.208 19.392C195.139 19.28 195.04 19.1573 194.912 19.024C194.784 18.8907 194.645 18.7573 194.496 18.624C194.352 18.4853 194.208 18.3627 194.064 18.256ZM194.592 15.56V15.968H198.528V15.56H194.592ZM194.592 14.536V14.944H198.528V14.536H194.592ZM193.688 13.888H199.472V16.624H193.688V13.888ZM206.552 13.72H208.552V14.4H206.552V13.72ZM210.248 13.72H212.264V14.4H210.248V13.72ZM211.88 12.52H212.856V18.552C212.856 18.8293 212.821 19.0427 212.752 19.192C212.683 19.3467 212.563 19.4613 212.392 19.536C212.216 19.616 211.992 19.664 211.72 19.68C211.448 19.7013 211.117 19.712 210.728 19.712C210.717 19.6213 210.693 19.5147 210.656 19.392C210.619 19.2747 210.576 19.1547 210.528 19.032C210.485 18.9147 210.437 18.8133 210.384 18.728C210.555 18.7387 210.728 18.7467 210.904 18.752C211.08 18.752 211.235 18.752 211.368 18.752C211.507 18.752 211.603 18.752 211.656 18.752C211.741 18.752 211.8 18.736 211.832 18.704C211.864 18.672 211.88 18.6187 211.88 18.544V12.52ZM206.624 12.52H209.144V15.632H206.624V14.856H208.248V13.296H206.624V12.52ZM212.4 12.52V13.296H210.608V14.88H212.4V15.648H209.696V12.52H212.4ZM206.08 12.52H207.032V19.72H206.08V12.52ZM220.184 14.936H223.872V15.768H220.184V14.936ZM218.752 16.736H225.912V17.616H218.752V16.736ZM221.832 16.216H222.816V18.688C222.816 18.9333 222.781 19.1253 222.712 19.264C222.643 19.4027 222.512 19.5067 222.32 19.576C222.128 19.6453 221.904 19.688 221.648 19.704C221.392 19.72 221.093 19.728 220.752 19.728C220.72 19.5893 220.664 19.4293 220.584 19.248C220.509 19.072 220.435 18.92 220.36 18.792C220.531 18.7973 220.704 18.8027 220.88 18.808C221.056 18.8133 221.211 18.816 221.344 18.816C221.483 18.816 221.579 18.8133 221.632 18.808C221.712 18.808 221.765 18.7973 221.792 18.776C221.819 18.7547 221.832 18.7173 221.832 18.664V16.216ZM223.568 14.936H223.8L224.008 14.888L224.608 15.352C224.432 15.5493 224.227 15.7467 223.992 15.944C223.757 16.1413 223.512 16.328 223.256 16.504C223 16.6747 222.741 16.824 222.48 16.952C222.421 16.8667 222.339 16.7707 222.232 16.664C222.131 16.552 222.045 16.4613 221.976 16.392C222.184 16.2853 222.389 16.1573 222.592 16.008C222.8 15.8587 222.989 15.7067 223.16 15.552C223.331 15.392 223.467 15.248 223.568 15.12V14.936ZM218.856 13.472H225.824V15.432H224.88V14.32H219.752V15.432H218.856V13.472ZM224.392 12.256L225.432 12.56C225.251 12.8267 225.061 13.088 224.864 13.344C224.667 13.6 224.488 13.816 224.328 13.992L223.536 13.704C223.643 13.5653 223.747 13.4133 223.848 13.248C223.955 13.0827 224.056 12.9147 224.152 12.744C224.248 12.568 224.328 12.4053 224.392 12.256ZM219.392 12.648L220.208 12.28C220.352 12.44 220.493 12.6187 220.632 12.816C220.771 13.008 220.872 13.1813 220.936 13.336L220.072 13.744C220.013 13.5947 219.917 13.4187 219.784 13.216C219.656 13.008 219.525 12.8187 219.392 12.648ZM221.4 12.472L222.248 12.16C222.376 12.3307 222.499 12.5253 222.616 12.744C222.739 12.9627 222.827 13.1547 222.88 13.32L221.976 13.672C221.933 13.512 221.856 13.32 221.744 13.096C221.637 12.8667 221.523 12.6587 221.4 12.472ZM234.432 13.32H238.872V14.2H234.432V13.32ZM236.16 12.2H237.104V13.712H236.16V12.2ZM235.36 14.272L236.224 14.632C236.048 14.9787 235.837 15.3147 235.592 15.64C235.347 15.96 235.093 16.2293 234.832 16.448C234.763 16.3573 234.661 16.2533 234.528 16.136C234.395 16.0133 234.277 15.912 234.176 15.832C234.416 15.6453 234.64 15.4107 234.848 15.128C235.061 14.84 235.232 14.5547 235.36 14.272ZM237.024 14.664L237.768 14.24C237.928 14.4107 238.088 14.5947 238.248 14.792C238.413 14.9893 238.563 15.1867 238.696 15.384C238.835 15.576 238.941 15.7547 239.016 15.92L238.208 16.384C238.144 16.224 238.048 16.0453 237.92 15.848C237.792 15.6507 237.648 15.448 237.488 15.24C237.333 15.0267 237.179 14.8347 237.024 14.664ZM235.952 15.768C236.128 16.2373 236.36 16.6773 236.648 17.088C236.941 17.4933 237.288 17.8507 237.688 18.16C238.088 18.464 238.539 18.704 239.04 18.88C238.971 18.9493 238.891 19.0347 238.8 19.136C238.715 19.2373 238.632 19.3413 238.552 19.448C238.477 19.5547 238.416 19.6507 238.368 19.736C237.84 19.5173 237.371 19.2267 236.96 18.864C236.549 18.496 236.192 18.072 235.888 17.592C235.584 17.1067 235.328 16.576 235.12 16L235.952 15.768ZM237.112 15.72L238.08 15.912C237.899 16.488 237.653 17.024 237.344 17.52C237.04 18.016 236.659 18.4533 236.2 18.832C235.741 19.2053 235.189 19.5093 234.544 19.744C234.512 19.6693 234.467 19.584 234.408 19.488C234.349 19.392 234.288 19.2987 234.224 19.208C234.165 19.1173 234.109 19.04 234.056 18.976C234.637 18.784 235.133 18.5253 235.544 18.2C235.955 17.8747 236.288 17.5013 236.544 17.08C236.805 16.6533 236.995 16.2 237.112 15.72ZM231.56 13.856H234.336V14.744H231.56V13.856ZM232.576 12.2H233.464V19.712H232.576V12.2ZM232.568 14.472L233.112 14.656C233.053 14.976 232.979 15.3067 232.888 15.648C232.803 15.9893 232.704 16.3253 232.592 16.656C232.48 16.9813 232.357 17.288 232.224 17.576C232.096 17.8587 231.957 18.1013 231.808 18.304C231.765 18.176 231.699 18.0293 231.608 17.864C231.523 17.6987 231.443 17.5573 231.368 17.44C231.501 17.264 231.627 17.0587 231.744 16.824C231.867 16.5893 231.981 16.3413 232.088 16.08C232.195 15.8133 232.288 15.544 232.368 15.272C232.448 14.9947 232.515 14.728 232.568 14.472ZM233.432 15.104C233.48 15.1627 233.552 15.264 233.648 15.408C233.744 15.5467 233.848 15.6987 233.96 15.864C234.072 16.0293 234.173 16.184 234.264 16.328C234.36 16.472 234.427 16.5733 234.464 16.632L233.944 17.344C233.896 17.2213 233.832 17.0773 233.752 16.912C233.672 16.7467 233.584 16.576 233.488 16.4C233.397 16.2187 233.309 16.0507 233.224 15.896C233.139 15.7413 233.067 15.6133 233.008 15.512L233.432 15.104Z" fill="black"/>
</svg>
