<svg width="554" height="109" viewBox="0 0 554 109" fill="none" xmlns="http://www.w3.org/2000/svg">
<path d="M170.224 80.576C167.952 80.576 165.84 80.16 163.888 79.328C161.968 78.496 160.304 77.344 158.896 75.872C157.52 74.368 156.512 72.624 155.872 70.64L161.296 68.288C162.16 70.336 163.408 71.952 165.04 73.136C166.672 74.288 168.512 74.864 170.56 74.864C171.712 74.864 172.704 74.688 173.536 74.336C174.4 73.952 175.056 73.44 175.504 72.8C175.984 72.16 176.224 71.392 176.224 70.496C176.224 69.44 175.904 68.576 175.264 67.904C174.656 67.2 173.728 66.656 172.48 66.272L165.616 64.064C162.832 63.2 160.736 61.904 159.328 60.176C157.92 58.448 157.216 56.416 157.216 54.08C157.216 52.032 157.712 50.224 158.704 48.656C159.728 47.088 161.136 45.872 162.928 45.008C164.752 44.112 166.832 43.664 169.168 43.664C171.312 43.664 173.28 44.048 175.072 44.816C176.864 45.552 178.4 46.592 179.68 47.936C180.992 49.248 181.968 50.8 182.608 52.592L177.232 54.992C176.528 53.2 175.472 51.824 174.064 50.864C172.656 49.872 171.024 49.376 169.168 49.376C168.08 49.376 167.12 49.568 166.288 49.952C165.456 50.304 164.8 50.816 164.32 51.488C163.872 52.128 163.648 52.896 163.648 53.792C163.648 54.784 163.968 55.664 164.608 56.432C165.248 57.168 166.224 57.744 167.536 58.16L174.112 60.224C176.96 61.152 179.088 62.432 180.496 64.064C181.936 65.696 182.656 67.712 182.656 70.112C182.656 72.16 182.128 73.968 181.072 75.536C180.016 77.104 178.56 78.336 176.704 79.232C174.848 80.128 172.688 80.576 170.224 80.576ZM187.094 80V44.24H200.438C202.87 44.24 205.014 44.688 206.87 45.584C208.758 46.448 210.23 47.728 211.286 49.424C212.342 51.088 212.87 53.12 212.87 55.52C212.87 57.888 212.326 59.92 211.238 61.616C210.182 63.28 208.726 64.56 206.87 65.456C205.014 66.352 202.87 66.8 200.438 66.8H193.622V80H187.094ZM193.622 61.04H200.534C201.718 61.04 202.742 60.816 203.606 60.368C204.47 59.888 205.142 59.232 205.622 58.4C206.102 57.568 206.342 56.608 206.342 55.52C206.342 54.4 206.102 53.44 205.622 52.64C205.142 51.808 204.47 51.168 203.606 50.72C202.742 50.24 201.718 50 200.534 50H193.622V61.04ZM234.395 80.576C231.771 80.576 229.323 80.112 227.051 79.184C224.779 78.256 222.795 76.96 221.099 75.296C219.403 73.632 218.075 71.68 217.115 69.44C216.187 67.168 215.723 64.72 215.723 62.096C215.723 59.44 216.187 56.992 217.115 54.752C218.043 52.512 219.355 50.56 221.051 48.896C222.747 47.232 224.731 45.952 227.003 45.056C229.275 44.128 231.739 43.664 234.395 43.664C237.051 43.664 239.515 44.128 241.787 45.056C244.059 45.984 246.043 47.28 247.739 48.944C249.435 50.576 250.747 52.512 251.675 54.752C252.635 56.992 253.115 59.44 253.115 62.096C253.115 64.72 252.635 67.168 251.675 69.44C250.715 71.68 249.387 73.632 247.691 75.296C245.995 76.96 244.011 78.256 241.739 79.184C239.499 80.112 237.051 80.576 234.395 80.576ZM234.395 74.624C236.155 74.624 237.771 74.32 239.243 73.712C240.715 73.072 241.995 72.192 243.083 71.072C244.203 69.952 245.051 68.624 245.627 67.088C246.235 65.552 246.539 63.888 246.539 62.096C246.539 60.304 246.235 58.656 245.627 57.152C245.051 55.616 244.203 54.288 243.083 53.168C241.995 52.016 240.715 51.136 239.243 50.528C237.771 49.92 236.155 49.616 234.395 49.616C232.667 49.616 231.067 49.92 229.595 50.528C228.123 51.136 226.827 52.016 225.707 53.168C224.619 54.288 223.771 55.616 223.163 57.152C222.555 58.656 222.251 60.304 222.251 62.096C222.251 63.888 222.555 65.552 223.163 67.088C223.771 68.624 224.619 69.952 225.707 71.072C226.827 72.192 228.123 73.072 229.595 73.712C231.067 74.32 232.667 74.624 234.395 74.624ZM257.48 80V44.24H270.776C273.208 44.24 275.352 44.688 277.208 45.584C279.096 46.448 280.568 47.728 281.624 49.424C282.68 51.088 283.208 53.12 283.208 55.52C283.208 57.984 282.616 60.08 281.432 61.808C280.28 63.536 278.712 64.816 276.728 65.648L284.936 80H277.544L268.76 64.304L272.984 66.8H264.008V80H257.48ZM264.008 61.04H270.872C272.056 61.04 273.08 60.816 273.944 60.368C274.808 59.888 275.48 59.232 275.96 58.4C276.44 57.568 276.68 56.608 276.68 55.52C276.68 54.4 276.44 53.44 275.96 52.64C275.48 51.808 274.808 51.168 273.944 50.72C273.08 50.24 272.056 50 270.872 50H264.008V61.04ZM293.173 80V50H283.909V44.24H308.869V50H299.749V80H293.173ZM324.18 80.576C321.908 80.576 319.796 80.16 317.844 79.328C315.924 78.496 314.26 77.344 312.852 75.872C311.476 74.368 310.468 72.624 309.828 70.64L315.252 68.288C316.116 70.336 317.364 71.952 318.996 73.136C320.628 74.288 322.468 74.864 324.516 74.864C325.668 74.864 326.66 74.688 327.492 74.336C328.356 73.952 329.012 73.44 329.46 72.8C329.94 72.16 330.18 71.392 330.18 70.496C330.18 69.44 329.86 68.576 329.22 67.904C328.612 67.2 327.684 66.656 326.436 66.272L319.572 64.064C316.788 63.2 314.692 61.904 313.284 60.176C311.876 58.448 311.172 56.416 311.172 54.08C311.172 52.032 311.668 50.224 312.66 48.656C313.684 47.088 315.092 45.872 316.884 45.008C318.708 44.112 320.788 43.664 323.124 43.664C325.268 43.664 327.236 44.048 329.028 44.816C330.82 45.552 332.356 46.592 333.636 47.936C334.948 49.248 335.924 50.8 336.564 52.592L331.188 54.992C330.484 53.2 329.428 51.824 328.02 50.864C326.612 49.872 324.98 49.376 323.124 49.376C322.036 49.376 321.076 49.568 320.244 49.952C319.412 50.304 318.756 50.816 318.276 51.488C317.828 52.128 317.604 52.896 317.604 53.792C317.604 54.784 317.924 55.664 318.564 56.432C319.204 57.168 320.18 57.744 321.492 58.16L328.068 60.224C330.916 61.152 333.044 62.432 334.452 64.064C335.892 65.696 336.612 67.712 336.612 70.112C336.612 72.16 336.084 73.968 335.028 75.536C333.972 77.104 332.516 78.336 330.66 79.232C328.804 80.128 326.644 80.576 324.18 80.576ZM348.142 80V44.24H371.998V50H354.67V59.888H369.838V65.648H354.67V80H348.142ZM374.827 80V44.24H398.587V50H381.355V59.168H397.627V64.928H381.355V74.24H398.587V80H374.827ZM414.701 80.576C412.429 80.576 410.317 80.16 408.365 79.328C406.445 78.496 404.781 77.344 403.373 75.872C401.997 74.368 400.989 72.624 400.349 70.64L405.773 68.288C406.637 70.336 407.885 71.952 409.517 73.136C411.149 74.288 412.989 74.864 415.037 74.864C416.189 74.864 417.181 74.688 418.013 74.336C418.877 73.952 419.533 73.44 419.981 72.8C420.461 72.16 420.701 71.392 420.701 70.496C420.701 69.44 420.381 68.576 419.741 67.904C419.133 67.2 418.205 66.656 416.957 66.272L410.093 64.064C407.309 63.2 405.213 61.904 403.805 60.176C402.397 58.448 401.693 56.416 401.693 54.08C401.693 52.032 402.189 50.224 403.181 48.656C404.205 47.088 405.613 45.872 407.405 45.008C409.229 44.112 411.309 43.664 413.645 43.664C415.789 43.664 417.757 44.048 419.549 44.816C421.341 45.552 422.877 46.592 424.157 47.936C425.469 49.248 426.445 50.8 427.085 52.592L421.709 54.992C421.005 53.2 419.949 51.824 418.541 50.864C417.133 49.872 415.501 49.376 413.645 49.376C412.557 49.376 411.597 49.568 410.765 49.952C409.933 50.304 409.277 50.816 408.797 51.488C408.349 52.128 408.125 52.896 408.125 53.792C408.125 54.784 408.445 55.664 409.085 56.432C409.725 57.168 410.701 57.744 412.013 58.16L418.589 60.224C421.437 61.152 423.565 62.432 424.973 64.064C426.413 65.696 427.133 67.712 427.133 70.112C427.133 72.16 426.605 73.968 425.549 75.536C424.493 77.104 423.037 78.336 421.181 79.232C419.325 80.128 417.165 80.576 414.701 80.576ZM437.908 80V50H428.644V44.24H453.604V50H444.484V80H437.908ZM456.147 80V44.24H462.675V80H456.147ZM477.666 80L465.186 44.24H472.29L482.082 73.856H480.69L490.482 44.24H497.586L485.154 80H477.666ZM495.058 80L507.394 44.24H515.842L528.178 80H521.074L518.53 72.32H504.706L502.114 80H495.058ZM506.578 66.56H516.658L510.706 48.752H512.53L506.578 66.56ZM530.718 80V44.24H537.246V74.24H552.558V80H530.718Z" fill="#1D1D1F"/>
<path d="M159.744 95.36H168.032V94.368H158.096V92.8H169.936V96.928H159.744V95.36ZM158.672 95.36H160.608C160.501 95.8613 160.384 96.384 160.256 96.928C160.139 97.472 160.016 97.9947 159.888 98.496C159.771 98.9973 159.653 99.4453 159.536 99.84L157.616 99.616C157.744 99.232 157.872 98.8 158 98.32C158.128 97.8293 158.251 97.328 158.368 96.816C158.496 96.304 158.597 95.8187 158.672 95.36ZM159.36 97.856H169.424V99.456H158.88L159.36 97.856ZM168.928 97.856H170.864C170.864 97.856 170.859 97.9413 170.848 98.112C170.848 98.2827 170.837 98.4267 170.816 98.544C170.731 99.6107 170.635 100.427 170.528 100.992C170.421 101.557 170.261 101.947 170.048 102.16C169.877 102.352 169.691 102.485 169.488 102.56C169.296 102.645 169.072 102.699 168.816 102.72C168.592 102.741 168.299 102.757 167.936 102.768C167.573 102.779 167.189 102.773 166.784 102.752C166.773 102.475 166.715 102.176 166.608 101.856C166.512 101.525 166.389 101.243 166.24 101.008C166.581 101.04 166.901 101.061 167.2 101.072C167.509 101.083 167.739 101.083 167.888 101.072C168.016 101.072 168.123 101.067 168.208 101.056C168.293 101.035 168.368 100.992 168.432 100.928C168.549 100.821 168.645 100.555 168.72 100.128C168.795 99.6907 168.864 99.0133 168.928 98.096V97.856ZM163.024 93.168H164.896V103.44H163.024V93.168ZM162.64 98.432L164.128 99.088C163.765 99.536 163.349 99.968 162.88 100.384C162.411 100.8 161.904 101.189 161.36 101.552C160.816 101.915 160.256 102.24 159.68 102.528C159.104 102.816 158.523 103.061 157.936 103.264C157.851 103.115 157.739 102.944 157.6 102.752C157.461 102.571 157.312 102.389 157.152 102.208C157.003 102.027 156.864 101.877 156.736 101.76C157.301 101.6 157.867 101.403 158.432 101.168C158.997 100.933 159.541 100.672 160.064 100.384C160.587 100.096 161.067 99.7867 161.504 99.456C161.952 99.1253 162.331 98.784 162.64 98.432ZM158.72 89.648H163.76V91.12H158.72V89.648ZM165.088 89.648H171.296V91.12H165.088V89.648ZM158.8 88.272L160.592 88.768C160.379 89.2907 160.117 89.8133 159.808 90.336C159.509 90.848 159.189 91.3333 158.848 91.792C158.517 92.24 158.181 92.6347 157.84 92.976C157.733 92.8693 157.584 92.752 157.392 92.624C157.2 92.496 157.003 92.3733 156.8 92.256C156.608 92.128 156.437 92.0213 156.288 91.936C156.811 91.4987 157.291 90.9547 157.728 90.304C158.176 89.6427 158.533 88.9653 158.8 88.272ZM165.328 88.272L167.136 88.736C166.837 89.536 166.443 90.2987 165.952 91.024C165.461 91.7493 164.955 92.3573 164.432 92.848C164.325 92.7413 164.171 92.6187 163.968 92.48C163.776 92.3413 163.579 92.208 163.376 92.08C163.184 91.952 163.013 91.8507 162.864 91.776C163.387 91.36 163.861 90.8427 164.288 90.224C164.725 89.6053 165.072 88.9547 165.328 88.272ZM159.328 90.8L160.848 90.16C161.061 90.4693 161.275 90.8213 161.488 91.216C161.701 91.6 161.856 91.9307 161.952 92.208L160.32 92.944C160.245 92.656 160.107 92.3093 159.904 91.904C159.712 91.4987 159.52 91.1307 159.328 90.8ZM166.272 90.8L167.84 90.224C168.096 90.5227 168.357 90.8587 168.624 91.232C168.891 91.6053 169.088 91.936 169.216 92.224L167.552 92.864C167.445 92.576 167.269 92.24 167.024 91.856C166.779 91.472 166.528 91.12 166.272 90.8ZM184.96 102V100.64L188.224 97.152C188.864 96.4693 189.365 95.92 189.728 95.504C190.101 95.0773 190.368 94.704 190.528 94.384C190.699 94.064 190.784 93.728 190.784 93.376C190.784 92.8 190.608 92.3573 190.256 92.048C189.904 91.728 189.451 91.568 188.896 91.568C188.32 91.568 187.824 91.7333 187.408 92.064C186.992 92.384 186.704 92.8533 186.544 93.472L184.88 92.992C185.008 92.3627 185.264 91.8187 185.648 91.36C186.032 90.8907 186.501 90.528 187.056 90.272C187.621 90.016 188.229 89.888 188.88 89.888C189.637 89.888 190.299 90.032 190.864 90.32C191.429 90.5973 191.867 90.9867 192.176 91.488C192.496 91.9893 192.656 92.5707 192.656 93.232C192.656 93.6693 192.571 94.096 192.4 94.512C192.24 94.9173 191.989 95.3493 191.648 95.808C191.307 96.256 190.869 96.7627 190.336 97.328L187.456 100.4H192.88V102H184.96ZM207.658 102L211.739 96.72L212.058 96.928C211.909 97.088 211.744 97.216 211.562 97.312C211.392 97.408 211.205 97.4773 211.003 97.52C210.81 97.5627 210.602 97.584 210.378 97.584C209.664 97.584 209.024 97.424 208.458 97.104C207.893 96.7733 207.445 96.3253 207.114 95.76C206.794 95.184 206.634 94.5333 206.634 93.808C206.634 93.0507 206.81 92.3787 207.162 91.792C207.514 91.2053 207.994 90.7413 208.602 90.4C209.21 90.0587 209.904 89.888 210.682 89.888C211.472 89.888 212.165 90.0587 212.762 90.4C213.37 90.7413 213.845 91.2107 214.187 91.808C214.539 92.3947 214.715 93.0667 214.715 93.824C214.715 94.2293 214.672 94.6293 214.587 95.024C214.501 95.4187 214.352 95.8293 214.139 96.256C213.925 96.672 213.626 97.1307 213.242 97.632L209.914 102H207.658ZM210.682 96C211.098 96 211.466 95.904 211.786 95.712C212.106 95.52 212.363 95.2587 212.555 94.928C212.747 94.5973 212.843 94.2187 212.843 93.792C212.843 93.3547 212.747 92.9707 212.555 92.64C212.363 92.2987 212.101 92.0373 211.771 91.856C211.451 91.664 211.088 91.568 210.682 91.568C210.277 91.568 209.909 91.664 209.578 91.856C209.258 92.0373 209.002 92.2987 208.81 92.64C208.618 92.9707 208.522 93.3547 208.522 93.792C208.522 94.2187 208.613 94.5973 208.794 94.928C208.986 95.2587 209.248 95.52 209.578 95.712C209.909 95.904 210.277 96 210.682 96ZM234.132 94.464V97.248H236.948V94.464H234.132ZM232.324 92.784H238.884V98.912H232.324V92.784ZM228.788 88.944H242.532V103.424H240.436V90.912H230.788V103.424H228.788V88.944ZM229.924 100.768H241.62V102.56H229.924V100.768ZM269.156 91.152C269.092 91.248 268.996 91.3973 268.868 91.6C268.751 91.8027 268.66 91.9893 268.596 92.16C268.372 92.6613 268.095 93.2213 267.764 93.84C267.444 94.4587 267.076 95.0827 266.66 95.712C266.255 96.3307 265.823 96.912 265.364 97.456C264.767 98.128 264.105 98.7947 263.38 99.456C262.665 100.107 261.908 100.709 261.108 101.264C260.319 101.808 259.508 102.277 258.676 102.672L257.028 100.944C257.892 100.613 258.729 100.197 259.54 99.696C260.351 99.1947 261.103 98.6507 261.796 98.064C262.489 97.4773 263.087 96.9067 263.588 96.352C263.94 95.9467 264.271 95.5147 264.58 95.056C264.9 94.5973 265.183 94.144 265.428 93.696C265.673 93.2373 265.855 92.816 265.972 92.432C265.865 92.432 265.673 92.432 265.396 92.432C265.119 92.432 264.793 92.432 264.42 92.432C264.057 92.432 263.673 92.432 263.268 92.432C262.863 92.432 262.473 92.432 262.1 92.432C261.737 92.432 261.417 92.432 261.14 92.432C260.863 92.432 260.665 92.432 260.548 92.432C260.324 92.432 260.089 92.4427 259.844 92.464C259.599 92.4747 259.364 92.4907 259.14 92.512C258.927 92.5227 258.761 92.5333 258.644 92.544V90.272C258.804 90.2827 259.001 90.2987 259.236 90.32C259.471 90.3413 259.705 90.3573 259.94 90.368C260.185 90.3787 260.388 90.384 260.548 90.384C260.687 90.384 260.905 90.384 261.204 90.384C261.503 90.384 261.844 90.384 262.228 90.384C262.612 90.384 263.007 90.384 263.412 90.384C263.828 90.384 264.223 90.384 264.596 90.384C264.98 90.384 265.311 90.384 265.588 90.384C265.865 90.384 266.068 90.384 266.196 90.384C266.548 90.384 266.868 90.3627 267.156 90.32C267.455 90.2773 267.684 90.2293 267.844 90.176L269.156 91.152ZM265.572 96.128C265.988 96.4587 266.431 96.8427 266.9 97.28C267.369 97.7173 267.833 98.1707 268.292 98.64C268.751 99.1093 269.172 99.5627 269.556 100C269.951 100.427 270.281 100.8 270.548 101.12L268.724 102.704C268.329 102.16 267.876 101.595 267.364 101.008C266.863 100.421 266.329 99.84 265.764 99.264C265.209 98.6773 264.644 98.1227 264.068 97.6L265.572 96.128ZM296.372 90C296.372 90.2453 296.457 90.4533 296.628 90.624C296.799 90.784 297.007 90.864 297.252 90.864C297.487 90.864 297.689 90.784 297.86 90.624C298.031 90.4533 298.116 90.2453 298.116 90C298.116 89.7653 298.031 89.5627 297.86 89.392C297.689 89.2213 297.487 89.136 297.252 89.136C297.007 89.136 296.799 89.2213 296.628 89.392C296.457 89.5627 296.372 89.7653 296.372 90ZM295.396 90C295.396 89.6587 295.476 89.3493 295.636 89.072C295.807 88.7947 296.031 88.5707 296.308 88.4C296.596 88.2293 296.911 88.144 297.252 88.144C297.593 88.144 297.903 88.2293 298.18 88.4C298.457 88.5707 298.676 88.7947 298.836 89.072C299.007 89.3493 299.092 89.6587 299.092 90C299.092 90.3413 299.007 90.656 298.836 90.944C298.676 91.2213 298.457 91.4453 298.18 91.616C297.903 91.776 297.593 91.856 297.252 91.856C296.911 91.856 296.596 91.776 296.308 91.616C296.031 91.4453 295.807 91.2213 295.636 90.944C295.476 90.656 295.396 90.3413 295.396 90ZM293.188 89.376C293.177 89.4507 293.161 89.5733 293.14 89.744C293.119 89.9147 293.097 90.096 293.076 90.288C293.055 90.4693 293.044 90.6293 293.044 90.768C293.044 91.088 293.044 91.44 293.044 91.824C293.044 92.208 293.044 92.592 293.044 92.976C293.044 93.3493 293.044 93.6907 293.044 94C293.044 94.2133 293.044 94.512 293.044 94.896C293.044 95.28 293.044 95.712 293.044 96.192C293.044 96.672 293.044 97.1733 293.044 97.696C293.044 98.208 293.044 98.7093 293.044 99.2C293.044 99.68 293.044 100.117 293.044 100.512C293.044 100.896 293.044 101.2 293.044 101.424C293.044 101.883 292.905 102.245 292.628 102.512C292.361 102.789 291.945 102.928 291.38 102.928C291.092 102.928 290.799 102.923 290.5 102.912C290.201 102.901 289.908 102.885 289.62 102.864C289.332 102.843 289.049 102.816 288.772 102.784L288.58 100.8C288.921 100.864 289.252 100.912 289.572 100.944C289.903 100.976 290.164 100.992 290.356 100.992C290.569 100.992 290.719 100.949 290.804 100.864C290.889 100.768 290.937 100.619 290.948 100.416C290.948 100.32 290.948 100.112 290.948 99.792C290.959 99.472 290.964 99.0933 290.964 98.656C290.964 98.2187 290.964 97.7547 290.964 97.264C290.964 96.7733 290.964 96.304 290.964 95.856C290.964 95.408 290.964 95.0187 290.964 94.688C290.964 94.3573 290.964 94.128 290.964 94C290.964 93.808 290.964 93.52 290.964 93.136C290.964 92.7413 290.964 92.3253 290.964 91.888C290.964 91.4507 290.964 91.0773 290.964 90.768C290.964 90.5547 290.948 90.304 290.916 90.016C290.884 89.7173 290.852 89.504 290.82 89.376H293.188ZM285.348 91.92C285.593 91.952 285.849 91.984 286.116 92.016C286.383 92.0373 286.644 92.048 286.9 92.048C287.028 92.048 287.284 92.048 287.668 92.048C288.063 92.048 288.532 92.048 289.076 92.048C289.62 92.048 290.201 92.048 290.82 92.048C291.449 92.048 292.079 92.048 292.708 92.048C293.348 92.048 293.94 92.048 294.484 92.048C295.039 92.048 295.519 92.048 295.924 92.048C296.329 92.048 296.612 92.048 296.772 92.048C296.996 92.048 297.257 92.0373 297.556 92.016C297.865 91.9947 298.132 91.968 298.356 91.936V94.032C298.111 94.0107 297.844 94 297.556 94C297.268 93.9893 297.012 93.984 296.788 93.984C296.628 93.984 296.345 93.984 295.94 93.984C295.545 93.984 295.071 93.984 294.516 93.984C293.972 93.984 293.385 93.984 292.756 93.984C292.127 93.984 291.497 93.984 290.868 93.984C290.239 93.984 289.652 93.984 289.108 93.984C288.564 93.984 288.095 93.984 287.7 93.984C287.316 93.984 287.049 93.984 286.9 93.984C286.665 93.984 286.404 93.9893 286.116 94C285.839 94.0107 285.583 94.0267 285.348 94.048V91.92ZM289.428 96.256C289.247 96.6187 289.028 97.008 288.772 97.424C288.516 97.84 288.239 98.256 287.94 98.672C287.652 99.088 287.369 99.4773 287.092 99.84C286.815 100.192 286.564 100.485 286.34 100.72L284.612 99.536C284.879 99.2907 285.151 99.0027 285.428 98.672C285.716 98.3307 285.993 97.9733 286.26 97.6C286.537 97.2267 286.788 96.8533 287.012 96.48C287.247 96.1067 287.449 95.7493 287.62 95.408L289.428 96.256ZM296.308 95.36C296.511 95.616 296.735 95.92 296.98 96.272C297.236 96.624 297.492 97.0027 297.748 97.408C298.004 97.8027 298.244 98.192 298.468 98.576C298.692 98.9493 298.884 99.28 299.044 99.568L297.156 100.592C296.985 100.251 296.788 99.8827 296.564 99.488C296.351 99.0933 296.127 98.6987 295.892 98.304C295.657 97.9093 295.423 97.5413 295.188 97.2C294.964 96.848 294.756 96.5493 294.564 96.304L296.308 95.36ZM313.604 94.592C313.796 94.6027 314.041 94.6187 314.34 94.64C314.639 94.6507 314.948 94.6613 315.268 94.672C315.599 94.6827 315.903 94.688 316.18 94.688C316.447 94.688 316.777 94.688 317.172 94.688C317.567 94.688 317.993 94.688 318.452 94.688C318.921 94.688 319.401 94.688 319.892 94.688C320.393 94.688 320.889 94.688 321.38 94.688C321.871 94.688 322.335 94.688 322.772 94.688C323.209 94.688 323.599 94.688 323.94 94.688C324.292 94.688 324.569 94.688 324.772 94.688C325.145 94.688 325.497 94.6773 325.828 94.656C326.159 94.624 326.431 94.6027 326.644 94.592V97.104C326.463 97.0933 326.191 97.0773 325.828 97.056C325.465 97.0347 325.113 97.024 324.772 97.024C324.569 97.024 324.292 97.024 323.94 97.024C323.588 97.024 323.193 97.024 322.756 97.024C322.319 97.024 321.855 97.024 321.364 97.024C320.884 97.024 320.393 97.024 319.892 97.024C319.391 97.024 318.905 97.024 318.436 97.024C317.977 97.024 317.551 97.024 317.156 97.024C316.772 97.024 316.447 97.024 316.18 97.024C315.721 97.024 315.252 97.0347 314.772 97.056C314.292 97.0667 313.903 97.0827 313.604 97.104V94.592ZM347.547 89.536C347.654 89.728 347.782 90.0107 347.931 90.384C348.091 90.7467 348.251 91.1467 348.411 91.584C348.582 92.0107 348.742 92.4267 348.891 92.832C349.041 93.2267 349.153 93.5573 349.227 93.824L347.211 94.528C347.147 94.272 347.041 93.952 346.891 93.568C346.753 93.1733 346.603 92.768 346.443 92.352C346.283 91.9253 346.123 91.52 345.963 91.136C345.803 90.752 345.665 90.4373 345.547 90.192L347.547 89.536ZM354.859 90.816C354.763 91.008 354.678 91.216 354.603 91.44C354.539 91.664 354.486 91.872 354.443 92.064C354.294 92.64 354.091 93.2853 353.835 94C353.59 94.7147 353.291 95.4293 352.939 96.144C352.598 96.848 352.203 97.4933 351.755 98.08C351.201 98.816 350.577 99.488 349.883 100.096C349.201 100.693 348.486 101.216 347.739 101.664C346.993 102.112 346.235 102.48 345.467 102.768L343.675 100.976C344.411 100.763 345.158 100.464 345.915 100.08C346.683 99.696 347.419 99.232 348.123 98.688C348.838 98.144 349.462 97.5307 349.995 96.848C350.401 96.336 350.769 95.712 351.099 94.976C351.441 94.24 351.729 93.456 351.963 92.624C352.209 91.7813 352.374 90.9493 352.459 90.128L354.859 90.816ZM343.099 90.528C343.217 90.7733 343.361 91.0933 343.531 91.488C343.713 91.8827 343.894 92.2987 344.075 92.736C344.257 93.1733 344.422 93.5947 344.571 94C344.731 94.3947 344.859 94.7307 344.955 95.008L342.891 95.76C342.827 95.5467 342.737 95.2853 342.619 94.976C342.513 94.6667 342.385 94.3307 342.235 93.968C342.097 93.6053 341.953 93.248 341.803 92.896C341.654 92.544 341.515 92.224 341.387 91.936C341.259 91.648 341.147 91.4133 341.051 91.232L343.099 90.528ZM382.363 91.344C382.289 91.4933 382.219 91.6747 382.155 91.888C382.102 92.0907 382.054 92.2827 382.011 92.464C381.926 92.848 381.814 93.2853 381.675 93.776C381.537 94.2667 381.371 94.7733 381.179 95.296C380.987 95.8187 380.758 96.336 380.491 96.848C380.235 97.36 379.942 97.84 379.611 98.288C379.131 98.9173 378.571 99.5147 377.931 100.08C377.291 100.635 376.577 101.136 375.787 101.584C374.998 102.021 374.129 102.395 373.179 102.704L371.435 100.8C372.491 100.544 373.403 100.229 374.171 99.856C374.95 99.472 375.627 99.0453 376.203 98.576C376.779 98.096 377.281 97.584 377.707 97.04C378.059 96.592 378.358 96.1067 378.603 95.584C378.859 95.0613 379.067 94.5333 379.227 94C379.398 93.4667 379.515 92.976 379.579 92.528C379.419 92.528 379.153 92.528 378.779 92.528C378.417 92.528 377.985 92.528 377.483 92.528C376.993 92.528 376.475 92.528 375.931 92.528C375.398 92.528 374.881 92.528 374.379 92.528C373.878 92.528 373.425 92.528 373.019 92.528C372.625 92.528 372.326 92.528 372.123 92.528C371.761 92.528 371.403 92.5333 371.051 92.544C370.71 92.5547 370.433 92.5707 370.219 92.592V90.336C370.39 90.3467 370.587 90.3627 370.811 90.384C371.035 90.4053 371.27 90.4267 371.515 90.448C371.761 90.4587 371.969 90.464 372.139 90.464C372.299 90.464 372.539 90.464 372.859 90.464C373.179 90.464 373.547 90.464 373.963 90.464C374.379 90.464 374.811 90.464 375.259 90.464C375.718 90.464 376.171 90.464 376.619 90.464C377.067 90.464 377.489 90.464 377.883 90.464C378.278 90.464 378.619 90.464 378.907 90.464C379.206 90.464 379.414 90.464 379.531 90.464C379.691 90.464 379.889 90.4587 380.123 90.448C380.358 90.4267 380.577 90.3893 380.779 90.336L382.363 91.344ZM399.451 93.328C399.633 93.36 399.846 93.3813 400.091 93.392C400.337 93.4027 400.545 93.408 400.715 93.408H408.043C408.235 93.408 408.443 93.4027 408.667 93.392C408.891 93.3813 409.099 93.36 409.291 93.328V95.344C409.089 95.3227 408.875 95.3067 408.651 95.296C408.427 95.2853 408.225 95.28 408.043 95.28H400.715C400.545 95.28 400.337 95.2853 400.091 95.296C399.846 95.3067 399.633 95.3227 399.451 95.344V93.328ZM403.211 101.52V94.432H405.307V101.52H403.211ZM398.635 100.336C398.838 100.357 399.057 100.379 399.291 100.4C399.526 100.421 399.745 100.432 399.947 100.432H408.795C409.019 100.432 409.233 100.421 409.435 100.4C409.649 100.368 409.841 100.347 410.011 100.336V102.432C409.841 102.4 409.627 102.379 409.371 102.368C409.126 102.357 408.934 102.352 408.795 102.352H399.947C399.755 102.352 399.542 102.357 399.307 102.368C399.073 102.379 398.849 102.4 398.635 102.432V100.336ZM437.803 91.152C437.739 91.248 437.643 91.3973 437.515 91.6C437.398 91.8027 437.307 91.9893 437.243 92.16C437.019 92.6613 436.742 93.2213 436.411 93.84C436.091 94.4587 435.723 95.0827 435.307 95.712C434.902 96.3307 434.47 96.912 434.011 97.456C433.414 98.128 432.753 98.7947 432.027 99.456C431.313 100.107 430.555 100.709 429.755 101.264C428.966 101.808 428.155 102.277 427.323 102.672L425.675 100.944C426.539 100.613 427.377 100.197 428.187 99.696C428.998 99.1947 429.75 98.6507 430.443 98.064C431.137 97.4773 431.734 96.9067 432.235 96.352C432.587 95.9467 432.918 95.5147 433.227 95.056C433.547 94.5973 433.83 94.144 434.075 93.696C434.321 93.2373 434.502 92.816 434.619 92.432C434.513 92.432 434.321 92.432 434.043 92.432C433.766 92.432 433.441 92.432 433.067 92.432C432.705 92.432 432.321 92.432 431.915 92.432C431.51 92.432 431.121 92.432 430.747 92.432C430.385 92.432 430.065 92.432 429.787 92.432C429.51 92.432 429.313 92.432 429.195 92.432C428.971 92.432 428.737 92.4427 428.491 92.464C428.246 92.4747 428.011 92.4907 427.787 92.512C427.574 92.5227 427.409 92.5333 427.291 92.544V90.272C427.451 90.2827 427.649 90.2987 427.883 90.32C428.118 90.3413 428.353 90.3573 428.587 90.368C428.833 90.3787 429.035 90.384 429.195 90.384C429.334 90.384 429.553 90.384 429.851 90.384C430.15 90.384 430.491 90.384 430.875 90.384C431.259 90.384 431.654 90.384 432.059 90.384C432.475 90.384 432.87 90.384 433.243 90.384C433.627 90.384 433.958 90.384 434.235 90.384C434.513 90.384 434.715 90.384 434.843 90.384C435.195 90.384 435.515 90.3627 435.803 90.32C436.102 90.2773 436.331 90.2293 436.491 90.176L437.803 91.152ZM434.219 96.128C434.635 96.4587 435.078 96.8427 435.547 97.28C436.017 97.7173 436.481 98.1707 436.939 98.64C437.398 99.1093 437.819 99.5627 438.203 100C438.598 100.427 438.929 100.8 439.195 101.12L437.371 102.704C436.977 102.16 436.523 101.595 436.011 101.008C435.51 100.421 434.977 99.84 434.411 99.264C433.857 98.6773 433.291 98.1227 432.715 97.6L434.219 96.128ZM455.835 89.728C456.102 89.7707 456.39 89.8027 456.699 89.824C457.009 89.8347 457.291 89.84 457.547 89.84C457.75 89.84 458.07 89.84 458.507 89.84C458.945 89.84 459.435 89.84 459.979 89.84C460.523 89.84 461.067 89.84 461.611 89.84C462.155 89.84 462.635 89.84 463.051 89.84C463.478 89.84 463.787 89.84 463.979 89.84C464.257 89.84 464.545 89.8347 464.843 89.824C465.142 89.8027 465.43 89.7707 465.707 89.728V91.792C465.43 91.7707 465.142 91.7547 464.843 91.744C464.545 91.7333 464.257 91.728 463.979 91.728C463.787 91.728 463.478 91.728 463.051 91.728C462.635 91.728 462.155 91.728 461.611 91.728C461.067 91.728 460.523 91.728 459.979 91.728C459.435 91.728 458.945 91.728 458.507 91.728C458.081 91.728 457.766 91.728 457.563 91.728C457.286 91.728 456.987 91.7333 456.667 91.744C456.358 91.7547 456.081 91.7707 455.835 91.792V89.728ZM453.979 93.824C454.214 93.8453 454.465 93.8667 454.731 93.888C455.009 93.9093 455.27 93.92 455.515 93.92C455.654 93.92 455.931 93.92 456.347 93.92C456.763 93.92 457.265 93.92 457.851 93.92C458.438 93.92 459.067 93.92 459.739 93.92C460.422 93.92 461.099 93.92 461.771 93.92C462.454 93.92 463.089 93.92 463.675 93.92C464.262 93.92 464.758 93.92 465.163 93.92C465.579 93.92 465.857 93.92 465.995 93.92C466.166 93.92 466.395 93.9147 466.683 93.904C466.982 93.8827 467.238 93.856 467.451 93.824V95.904C467.259 95.8827 467.025 95.872 466.747 95.872C466.47 95.8613 466.219 95.856 465.995 95.856C465.857 95.856 465.579 95.856 465.163 95.856C464.758 95.856 464.262 95.856 463.675 95.856C463.089 95.856 462.454 95.856 461.771 95.856C461.099 95.856 460.422 95.856 459.739 95.856C459.067 95.856 458.438 95.856 457.851 95.856C457.265 95.856 456.763 95.856 456.347 95.856C455.931 95.856 455.654 95.856 455.515 95.856C455.281 95.856 455.019 95.8613 454.731 95.872C454.454 95.8827 454.203 95.8987 453.979 95.92V93.824ZM462.171 94.928C462.171 95.9733 462.081 96.912 461.899 97.744C461.718 98.5653 461.457 99.3067 461.115 99.968C460.923 100.331 460.667 100.704 460.347 101.088C460.027 101.472 459.659 101.835 459.243 102.176C458.827 102.517 458.379 102.805 457.899 103.04L456.027 101.68C456.593 101.456 457.137 101.136 457.659 100.72C458.182 100.304 458.603 99.8613 458.923 99.392C459.329 98.7733 459.601 98.0907 459.739 97.344C459.878 96.5973 459.947 95.7973 459.947 94.944L462.171 94.928ZM481.538 97.44C482.232 97.2907 482.936 97.088 483.65 96.832C484.376 96.5653 485.053 96.2827 485.682 95.984C486.312 95.6747 486.84 95.3973 487.266 95.152C487.789 94.832 488.301 94.4747 488.802 94.08C489.314 93.6747 489.784 93.2693 490.21 92.864C490.637 92.4587 490.984 92.08 491.25 91.728L492.834 93.28C492.525 93.632 492.114 94.0213 491.602 94.448C491.101 94.864 490.557 95.2853 489.97 95.712C489.384 96.128 488.797 96.5067 488.21 96.848C487.848 97.072 487.432 97.3013 486.962 97.536C486.493 97.76 485.997 97.984 485.474 98.208C484.962 98.4213 484.445 98.624 483.922 98.816C483.41 99.008 482.93 99.1787 482.482 99.328L481.538 97.44ZM487.074 96.4L489.25 95.984V101.68C489.25 101.861 489.25 102.069 489.25 102.304C489.261 102.539 489.277 102.752 489.298 102.944C489.32 103.147 489.341 103.301 489.362 103.408H486.994C487.016 103.301 487.026 103.147 487.026 102.944C487.037 102.752 487.048 102.539 487.058 102.304C487.069 102.069 487.074 101.861 487.074 101.68V96.4ZM520.466 89.232C520.605 89.424 520.749 89.6533 520.898 89.92C521.058 90.1867 521.213 90.4533 521.362 90.72C521.512 90.9867 521.634 91.2213 521.73 91.424L520.45 91.984C520.28 91.6533 520.082 91.28 519.858 90.864C519.634 90.4373 519.416 90.0693 519.202 89.76L520.466 89.232ZM522.354 88.512C522.493 88.7147 522.642 88.9547 522.802 89.232C522.973 89.4987 523.133 89.7653 523.282 90.032C523.432 90.288 523.554 90.5067 523.65 90.688L522.37 91.232C522.21 90.9013 522.008 90.528 521.762 90.112C521.528 89.696 521.304 89.3387 521.09 89.04L522.354 88.512ZM511.058 97.024C511.24 96.576 511.41 96.1067 511.57 95.616C511.741 95.1147 511.89 94.6027 512.018 94.08C512.146 93.5467 512.258 93.0187 512.354 92.496C512.461 91.9733 512.536 91.456 512.578 90.944L514.914 91.424C514.872 91.5733 514.824 91.7493 514.77 91.952C514.717 92.1547 514.669 92.352 514.626 92.544C514.584 92.736 514.552 92.896 514.53 93.024C514.477 93.3013 514.402 93.6373 514.306 94.032C514.21 94.4267 514.098 94.848 513.97 95.296C513.842 95.7333 513.709 96.176 513.57 96.624C513.442 97.0613 513.309 97.4667 513.17 97.84C512.978 98.352 512.749 98.8853 512.482 99.44C512.226 99.9947 511.949 100.528 511.65 101.04C511.362 101.552 511.08 102.011 510.802 102.416L508.562 101.472C509.074 100.811 509.549 100.08 509.986 99.28C510.434 98.48 510.792 97.728 511.058 97.024ZM518.962 96.688C518.802 96.2613 518.626 95.808 518.434 95.328C518.242 94.848 518.04 94.368 517.826 93.888C517.613 93.408 517.405 92.9547 517.202 92.528C517 92.1013 516.813 91.7333 516.642 91.424L518.77 90.736C518.93 91.0453 519.117 91.4187 519.33 91.856C519.544 92.2933 519.757 92.7573 519.97 93.248C520.184 93.728 520.392 94.208 520.594 94.688C520.797 95.168 520.978 95.6 521.138 95.984C521.277 96.336 521.426 96.752 521.586 97.232C521.757 97.712 521.928 98.2133 522.098 98.736C522.28 99.248 522.445 99.7493 522.594 100.24C522.754 100.731 522.888 101.173 522.994 101.568L520.626 102.336C520.488 101.707 520.328 101.067 520.146 100.416C519.965 99.7653 519.773 99.1253 519.57 98.496C519.378 97.8667 519.176 97.264 518.962 96.688ZM544.194 101.648C544.226 101.488 544.253 101.307 544.274 101.104C544.306 100.891 544.322 100.677 544.322 100.464C544.322 100.347 544.322 100.112 544.322 99.76C544.322 99.408 544.322 98.9813 544.322 98.48C544.322 97.9787 544.322 97.44 544.322 96.864C544.322 96.2773 544.322 95.6853 544.322 95.088C544.322 94.4907 544.322 93.9307 544.322 93.408C544.322 92.8747 544.322 92.4107 544.322 92.016C544.322 91.6107 544.322 91.3173 544.322 91.136C544.322 90.7733 544.301 90.4587 544.258 90.192C544.226 89.9253 544.205 89.7813 544.194 89.76H546.578C546.568 89.7813 546.546 89.9307 546.514 90.208C546.482 90.4747 546.466 90.7893 546.466 91.152C546.466 91.3333 546.466 91.6053 546.466 91.968C546.466 92.32 546.466 92.7307 546.466 93.2C546.466 93.6587 546.466 94.1493 546.466 94.672C546.466 95.1947 546.466 95.712 546.466 96.224C546.466 96.7253 546.466 97.2053 546.466 97.664C546.466 98.112 546.466 98.496 546.466 98.816C546.466 99.136 546.466 99.3707 546.466 99.52C546.904 99.328 547.357 99.0667 547.826 98.736C548.296 98.4053 548.754 98.0213 549.202 97.584C549.661 97.136 550.066 96.656 550.418 96.144L551.65 97.904C551.213 98.48 550.68 99.0453 550.05 99.6C549.432 100.155 548.792 100.661 548.13 101.12C547.469 101.579 546.834 101.963 546.226 102.272C546.056 102.368 545.917 102.453 545.81 102.528C545.704 102.613 545.613 102.688 545.538 102.752L544.194 101.648ZM536.786 101.408C537.49 100.917 538.066 100.325 538.514 99.632C538.962 98.9387 539.293 98.256 539.506 97.584C539.624 97.232 539.709 96.8 539.762 96.288C539.826 95.7653 539.874 95.2107 539.906 94.624C539.938 94.0267 539.954 93.44 539.954 92.864C539.965 92.2773 539.97 91.7387 539.97 91.248C539.97 90.928 539.954 90.656 539.922 90.432C539.901 90.1973 539.869 89.9787 539.826 89.776H542.178C542.168 89.7973 542.152 89.888 542.13 90.048C542.12 90.1973 542.104 90.3787 542.082 90.592C542.072 90.7947 542.066 91.008 542.066 91.232C542.066 91.7013 542.061 92.2507 542.05 92.88C542.04 93.4987 542.018 94.1333 541.986 94.784C541.954 95.4347 541.906 96.0533 541.842 96.64C541.778 97.216 541.693 97.7067 541.586 98.112C541.341 99.0187 540.973 99.8613 540.482 100.64C540.002 101.408 539.421 102.096 538.738 102.704L536.786 101.408Z" fill="#00BE8A"/>
<path d="M139.192 49.264C138.056 49.264 137.184 49.056 136.576 48.64C135.984 48.224 135.688 47.392 135.688 46.144V39.784H133.48V37.456H135.688V33.4H138.376V37.456H141.568V39.784H138.376V45.448C138.376 45.992 138.504 46.36 138.76 46.552C139.032 46.744 139.416 46.84 139.912 46.84C140.216 46.84 140.52 46.792 140.824 46.696C141.144 46.6 141.392 46.504 141.568 46.408V48.88C141.28 48.992 140.92 49.08 140.488 49.144C140.056 49.224 139.624 49.264 139.192 49.264ZM143.218 49V31.888H145.93V38.824C146.186 38.376 146.57 37.992 147.082 37.672C147.594 37.336 148.21 37.168 148.93 37.168C150.13 37.168 151.106 37.552 151.858 38.32C152.626 39.088 153.01 40.216 153.01 41.704V49H150.298V42.352C150.298 41.44 150.114 40.76 149.746 40.312C149.378 39.848 148.882 39.616 148.258 39.616C147.57 39.616 147.01 39.856 146.578 40.336C146.146 40.8 145.93 41.496 145.93 42.424V49H143.218Z" fill="#00BE8A"/>
<path d="M77.072 102V99.558C77.072 96.006 77.9847 92.5527 79.81 89.198C81.6847 85.8433 84.7927 82.094 89.134 77.95C90.6633 76.47 92.1187 74.99 93.5 73.51C94.8813 71.9807 96.016 70.5007 96.904 69.07C97.792 67.59 98.2607 66.184 98.31 64.852C98.3593 62.2867 97.7673 60.3873 96.534 59.154C95.35 57.9207 93.648 57.304 91.428 57.304C89.3067 57.304 87.728 58.0687 86.692 59.598C85.656 61.1273 85.138 63.2733 85.138 66.036H77.294C77.294 60.9053 78.6013 56.9093 81.216 54.048C83.8307 51.1867 87.2347 49.756 91.428 49.756C94.2893 49.756 96.83 50.348 99.05 51.532C101.319 52.716 103.095 54.4427 104.378 56.712C105.661 58.9813 106.253 61.7687 106.154 65.074C106.105 67.3927 105.562 69.5387 104.526 71.512C103.49 73.4853 102.109 75.4093 100.382 77.284C98.7047 79.1093 96.7807 81.058 94.61 83.13C92.3407 85.35 90.318 87.4713 88.542 89.494C86.8153 91.5167 85.804 93.268 85.508 94.748H105.266V102H77.072ZM121.266 102.74C118.701 102.74 116.234 102.049 113.866 100.668C111.548 99.2867 109.673 97.5353 108.242 95.414L114.162 90.9C115.05 92.2813 116.062 93.3913 117.196 94.23C118.38 95.0193 119.737 95.414 121.266 95.414C124.621 95.414 127.088 93.8847 128.666 90.826C130.245 87.718 131.084 83.1547 131.182 77.136C130.344 78.3693 129.16 79.356 127.63 80.096C126.101 80.7867 124.547 81.132 122.968 81.132C120.206 81.132 117.714 80.5153 115.494 79.282C113.324 77.9993 111.597 76.2233 110.314 73.954C109.081 71.6353 108.464 68.8973 108.464 65.74C108.464 62.5333 109.056 59.7213 110.24 57.304C111.424 54.8373 113.102 52.9133 115.272 51.532C117.443 50.1013 119.959 49.386 122.82 49.386C124.991 49.386 127.038 49.756 128.962 50.496C130.936 51.1867 132.662 52.4447 134.142 54.27C135.672 56.046 136.856 58.5867 137.694 61.892C138.582 65.1973 138.977 69.44 138.878 74.62C138.681 84.3387 137.078 91.4673 134.068 96.006C131.108 100.495 126.841 102.74 121.266 102.74ZM123.042 74.028C125.361 74.028 127.162 73.2633 128.444 71.734C129.727 70.1553 130.319 68.1327 130.22 65.666C130.122 62.854 129.456 60.708 128.222 59.228C127.038 57.6987 125.41 56.934 123.338 56.934C121.217 56.934 119.54 57.748 118.306 59.376C117.122 61.004 116.53 63.1253 116.53 65.74C116.53 68.2067 117.122 70.2047 118.306 71.734C119.54 73.2633 121.118 74.028 123.042 74.028Z" fill="#00BE8A"/>
<path d="M79.728 16.872H87.104V18.536H79.728V16.872ZM76.864 20.472H91.184V22.232H76.864V20.472ZM83.024 19.432H84.992V24.376C84.992 24.8667 84.9227 25.2507 84.784 25.528C84.6453 25.8053 84.384 26.0133 84 26.152C83.616 26.2907 83.168 26.376 82.656 26.408C82.144 26.44 81.5467 26.456 80.864 26.456C80.8 26.1787 80.688 25.8587 80.528 25.496C80.3787 25.144 80.2293 24.84 80.08 24.584C80.4213 24.5947 80.768 24.6053 81.12 24.616C81.472 24.6267 81.7813 24.632 82.048 24.632C82.3253 24.632 82.5173 24.6267 82.624 24.616C82.784 24.616 82.8907 24.5947 82.944 24.552C82.9973 24.5093 83.024 24.4347 83.024 24.328V19.432ZM86.496 16.872H86.96L87.376 16.776L88.576 17.704C88.224 18.0987 87.8133 18.4933 87.344 18.888C86.8747 19.2827 86.384 19.656 85.872 20.008C85.36 20.3493 84.8427 20.648 84.32 20.904C84.2027 20.7333 84.0373 20.5413 83.824 20.328C83.6213 20.104 83.4507 19.9227 83.312 19.784C83.728 19.5707 84.1387 19.3147 84.544 19.016C84.96 18.7173 85.3387 18.4133 85.68 18.104C86.0213 17.784 86.2933 17.496 86.496 17.24V16.872ZM77.072 13.944H91.008V17.864H89.12V15.64H78.864V17.864H77.072V13.944ZM88.144 11.512L90.224 12.12C89.8613 12.6533 89.4827 13.176 89.088 13.688C88.6933 14.2 88.336 14.632 88.016 14.984L86.432 14.408C86.6453 14.1307 86.8533 13.8267 87.056 13.496C87.2693 13.1653 87.472 12.8293 87.664 12.488C87.856 12.136 88.016 11.8107 88.144 11.512ZM78.144 12.296L79.776 11.56C80.064 11.88 80.3467 12.2373 80.624 12.632C80.9013 13.016 81.104 13.3627 81.232 13.672L79.504 14.488C79.3867 14.1893 79.1947 13.8373 78.928 13.432C78.672 13.016 78.4107 12.6373 78.144 12.296ZM82.16 11.944L83.856 11.32C84.112 11.6613 84.3573 12.0507 84.592 12.488C84.8373 12.9253 85.0133 13.3093 85.12 13.64L83.312 14.344C83.2267 14.024 83.072 13.64 82.848 13.192C82.6347 12.7333 82.4053 12.3173 82.16 11.944ZM113.184 13.64H122.064V15.4H113.184V13.64ZM116.64 11.4H118.528V14.424H116.64V11.4ZM115.04 15.544L116.768 16.264C116.416 16.9573 115.995 17.6293 115.504 18.28C115.013 18.92 114.507 19.4587 113.984 19.896C113.845 19.7147 113.643 19.5067 113.376 19.272C113.109 19.0267 112.875 18.824 112.672 18.664C113.152 18.2907 113.6 17.8213 114.016 17.256C114.443 16.68 114.784 16.1093 115.04 15.544ZM118.368 16.328L119.856 15.48C120.176 15.8213 120.496 16.1893 120.816 16.584C121.147 16.9787 121.445 17.3733 121.712 17.768C121.989 18.152 122.203 18.5093 122.352 18.84L120.736 19.768C120.608 19.448 120.416 19.0907 120.16 18.696C119.904 18.3013 119.616 17.896 119.296 17.48C118.987 17.0533 118.677 16.6693 118.368 16.328ZM116.224 18.536C116.576 19.4747 117.04 20.3547 117.616 21.176C118.203 21.9867 118.896 22.7013 119.696 23.32C120.496 23.928 121.397 24.408 122.4 24.76C122.261 24.8987 122.101 25.0693 121.92 25.272C121.749 25.4747 121.584 25.6827 121.424 25.896C121.275 26.1093 121.152 26.3013 121.056 26.472C120 26.0347 119.061 25.4533 118.24 24.728C117.419 23.992 116.704 23.144 116.096 22.184C115.488 21.2133 114.976 20.152 114.56 19L116.224 18.536ZM118.544 18.44L120.48 18.824C120.117 19.976 119.627 21.048 119.008 22.04C118.4 23.032 117.637 23.9067 116.72 24.664C115.803 25.4107 114.699 26.0187 113.408 26.488C113.344 26.3387 113.253 26.168 113.136 25.976C113.019 25.784 112.896 25.5973 112.768 25.416C112.651 25.2347 112.539 25.08 112.432 24.952C113.595 24.568 114.587 24.0507 115.408 23.4C116.229 22.7493 116.896 22.0027 117.408 21.16C117.931 20.3067 118.309 19.4 118.544 18.44ZM107.44 14.712H112.992V16.488H107.44V14.712ZM109.472 11.4H111.248V26.424H109.472V11.4ZM109.456 15.944L110.544 16.312C110.427 16.952 110.277 17.6133 110.096 18.296C109.925 18.9787 109.728 19.6507 109.504 20.312C109.28 20.9627 109.035 21.576 108.768 22.152C108.512 22.7173 108.235 23.2027 107.936 23.608C107.851 23.352 107.717 23.0587 107.536 22.728C107.365 22.3973 107.205 22.1147 107.056 21.88C107.323 21.528 107.573 21.1173 107.808 20.648C108.053 20.1787 108.283 19.6827 108.496 19.16C108.709 18.6267 108.896 18.088 109.056 17.544C109.216 16.9893 109.349 16.456 109.456 15.944ZM111.184 17.208C111.28 17.3253 111.424 17.528 111.616 17.816C111.808 18.0933 112.016 18.3973 112.24 18.728C112.464 19.0587 112.667 19.368 112.848 19.656C113.04 19.944 113.173 20.1467 113.248 20.264L112.208 21.688C112.112 21.4427 111.984 21.1547 111.824 20.824C111.664 20.4933 111.488 20.152 111.296 19.8C111.115 19.4373 110.939 19.1013 110.768 18.792C110.597 18.4827 110.453 18.2267 110.336 18.024L111.184 17.208ZM142.384 17.816H152.768V19.64H142.384V17.816ZM143.184 13.704H152V15.544H143.184V13.704ZM146.528 11.4H148.512V19.144H146.528V11.4ZM142.4 23.848C143.115 23.816 143.941 23.7787 144.88 23.736C145.829 23.6933 146.832 23.64 147.888 23.576C148.955 23.512 150.016 23.4533 151.072 23.4L151.056 25.144C150.064 25.2187 149.061 25.2987 148.048 25.384C147.045 25.4693 146.08 25.544 145.152 25.608C144.235 25.672 143.397 25.736 142.64 25.8L142.4 23.848ZM148.528 21.64L150.176 20.76C150.581 21.2293 150.976 21.7413 151.36 22.296C151.755 22.8507 152.112 23.4 152.432 23.944C152.752 24.488 152.992 24.9893 153.152 25.448L151.328 26.44C151.189 26.0027 150.971 25.5067 150.672 24.952C150.373 24.3973 150.037 23.832 149.664 23.256C149.291 22.6693 148.912 22.1307 148.528 21.64ZM145.28 19.112L147.424 19.672C147.189 20.28 146.933 20.904 146.656 21.544C146.389 22.184 146.117 22.792 145.84 23.368C145.573 23.944 145.317 24.456 145.072 24.904L143.36 24.344C143.531 23.992 143.707 23.6027 143.888 23.176C144.069 22.7387 144.245 22.2853 144.416 21.816C144.597 21.3467 144.757 20.8827 144.896 20.424C145.045 19.9547 145.173 19.5173 145.28 19.112ZM138.816 12.888L139.872 11.464C140.224 11.592 140.592 11.7467 140.976 11.928C141.36 12.1093 141.728 12.3013 142.08 12.504C142.432 12.7067 142.72 12.904 142.944 13.096L141.824 14.664C141.611 14.472 141.333 14.2693 140.992 14.056C140.661 13.832 140.304 13.6187 139.92 13.416C139.536 13.2027 139.168 13.0267 138.816 12.888ZM137.904 17.24L138.896 15.784C139.237 15.9013 139.605 16.0453 140 16.216C140.395 16.3867 140.768 16.568 141.12 16.76C141.483 16.9413 141.776 17.1173 142 17.288L140.944 18.904C140.731 18.7227 140.448 18.5307 140.096 18.328C139.755 18.1253 139.392 17.928 139.008 17.736C138.624 17.544 138.256 17.3787 137.904 17.24ZM138.336 24.984C138.613 24.5787 138.912 24.0987 139.232 23.544C139.563 22.9893 139.893 22.4027 140.224 21.784C140.565 21.1653 140.885 20.5467 141.184 19.928L142.624 21.16C142.368 21.7147 142.091 22.2853 141.792 22.872C141.504 23.448 141.205 24.0187 140.896 24.584C140.597 25.1493 140.299 25.6933 140 26.216L138.336 24.984ZM174.816 11.784H177.024C177.003 12.232 176.965 12.808 176.912 13.512C176.859 14.216 176.757 15 176.608 15.864C176.469 16.7173 176.256 17.6133 175.968 18.552C175.68 19.4907 175.285 20.4293 174.784 21.368C174.293 22.296 173.664 23.1867 172.896 24.04C172.139 24.8827 171.216 25.6347 170.128 26.296C169.957 26.0507 169.723 25.7893 169.424 25.512C169.136 25.2347 168.832 24.984 168.512 24.76C169.579 24.1627 170.475 23.48 171.2 22.712C171.925 21.944 172.517 21.1387 172.976 20.296C173.435 19.4427 173.787 18.5893 174.032 17.736C174.277 16.872 174.453 16.056 174.56 15.288C174.667 14.52 174.731 13.832 174.752 13.224C174.773 12.616 174.795 12.136 174.816 11.784ZM176.944 12.216C176.955 12.4187 176.976 12.7387 177.008 13.176C177.04 13.6133 177.104 14.136 177.2 14.744C177.296 15.352 177.44 16.0133 177.632 16.728C177.835 17.432 178.101 18.1573 178.432 18.904C178.763 19.6507 179.173 20.3813 179.664 21.096C180.155 21.8107 180.747 22.472 181.44 23.08C182.144 23.688 182.965 24.216 183.904 24.664C183.595 24.888 183.307 25.1493 183.04 25.448C182.784 25.7467 182.576 26.0293 182.416 26.296C181.435 25.8053 180.576 25.224 179.84 24.552C179.115 23.8693 178.491 23.1333 177.968 22.344C177.456 21.544 177.029 20.7333 176.688 19.912C176.347 19.0907 176.069 18.2853 175.856 17.496C175.653 16.696 175.499 15.9547 175.392 15.272C175.285 14.5893 175.211 13.9973 175.168 13.496C175.136 12.9947 175.109 12.632 175.088 12.408L176.944 12.216ZM202.256 21.048H211.328V22.2H202.256V21.048ZM202.256 19.048H212.448V24.184H202.256V22.904H210.544V20.344H202.256V19.048ZM205.792 19.768H207.632V24.232C207.632 24.5307 207.701 24.7227 207.84 24.808C207.989 24.8827 208.304 24.92 208.784 24.92C208.88 24.92 209.024 24.92 209.216 24.92C209.419 24.92 209.643 24.92 209.888 24.92C210.144 24.92 210.395 24.92 210.64 24.92C210.896 24.92 211.131 24.92 211.344 24.92C211.557 24.92 211.723 24.92 211.84 24.92C212.107 24.92 212.309 24.8827 212.448 24.808C212.587 24.7333 212.688 24.5787 212.752 24.344C212.816 24.1093 212.864 23.768 212.896 23.32C213.088 23.448 213.339 23.5707 213.648 23.688C213.968 23.8053 214.251 23.8853 214.496 23.928C214.421 24.568 214.299 25.064 214.128 25.416C213.957 25.7787 213.701 26.0293 213.36 26.168C213.029 26.3173 212.571 26.392 211.984 26.392C211.888 26.392 211.723 26.392 211.488 26.392C211.264 26.392 211.008 26.392 210.72 26.392C210.443 26.392 210.16 26.392 209.872 26.392C209.584 26.392 209.328 26.392 209.104 26.392C208.88 26.392 208.715 26.392 208.608 26.392C207.883 26.392 207.312 26.328 206.896 26.2C206.491 26.072 206.203 25.8533 206.032 25.544C205.872 25.2347 205.792 24.8027 205.792 24.248V19.768ZM201.296 19.048H203.136V24.904H201.296V19.048ZM200.928 11.976H212.8V13.4H200.928V11.976ZM202.16 15.816H205.328V16.856H202.16V15.816ZM201.856 17.4H205.328V18.456H201.856V17.4ZM208.368 17.4H211.888V18.456H208.368V17.4ZM208.368 15.816H211.504V16.856H208.368V15.816ZM205.888 12.552H207.776V18.616H205.888V12.552ZM199.824 13.992H213.952V17.272H212.176V15.272H201.536V17.272H199.824V13.992ZM230.224 18.408H244.992V20.344H230.224V18.408ZM236.608 15.864H238.624V24.2C238.624 24.744 238.549 25.1653 238.4 25.464C238.261 25.7627 237.995 25.9867 237.6 26.136C237.216 26.2853 236.747 26.3813 236.192 26.424C235.637 26.4667 234.992 26.4827 234.256 26.472C234.224 26.28 234.16 26.0613 234.064 25.816C233.968 25.5813 233.867 25.3413 233.76 25.096C233.653 24.8613 233.547 24.6587 233.44 24.488C233.813 24.4987 234.181 24.5093 234.544 24.52C234.917 24.5307 235.248 24.536 235.536 24.536C235.835 24.536 236.043 24.536 236.16 24.536C236.331 24.536 236.448 24.5093 236.512 24.456C236.576 24.4027 236.608 24.3067 236.608 24.168V15.864ZM231.904 12.392H241.984V14.28H231.904V12.392ZM241.344 12.392H241.856L242.304 12.28L243.76 13.384C243.269 13.9067 242.704 14.4293 242.064 14.952C241.435 15.4747 240.779 15.976 240.096 16.456C239.413 16.9253 238.747 17.3307 238.096 17.672C238 17.5333 237.877 17.3787 237.728 17.208C237.579 17.0373 237.424 16.872 237.264 16.712C237.104 16.5413 236.96 16.3973 236.832 16.28C237.408 15.992 237.989 15.6453 238.576 15.24C239.173 14.8347 239.717 14.4187 240.208 13.992C240.699 13.5653 241.077 13.176 241.344 12.824V12.392ZM264.048 16.872H271.424V18.536H264.048V16.872ZM261.184 20.472H275.504V22.232H261.184V20.472ZM267.344 19.432H269.312V24.376C269.312 24.8667 269.243 25.2507 269.104 25.528C268.965 25.8053 268.704 26.0133 268.32 26.152C267.936 26.2907 267.488 26.376 266.976 26.408C266.464 26.44 265.867 26.456 265.184 26.456C265.12 26.1787 265.008 25.8587 264.848 25.496C264.699 25.144 264.549 24.84 264.4 24.584C264.741 24.5947 265.088 24.6053 265.44 24.616C265.792 24.6267 266.101 24.632 266.368 24.632C266.645 24.632 266.837 24.6267 266.944 24.616C267.104 24.616 267.211 24.5947 267.264 24.552C267.317 24.5093 267.344 24.4347 267.344 24.328V19.432ZM270.816 16.872H271.28L271.696 16.776L272.896 17.704C272.544 18.0987 272.133 18.4933 271.664 18.888C271.195 19.2827 270.704 19.656 270.192 20.008C269.68 20.3493 269.163 20.648 268.64 20.904C268.523 20.7333 268.357 20.5413 268.144 20.328C267.941 20.104 267.771 19.9227 267.632 19.784C268.048 19.5707 268.459 19.3147 268.864 19.016C269.28 18.7173 269.659 18.4133 270 18.104C270.341 17.784 270.613 17.496 270.816 17.24V16.872ZM261.392 13.944H275.328V17.864H273.44V15.64H263.184V17.864H261.392V13.944ZM272.464 11.512L274.544 12.12C274.181 12.6533 273.803 13.176 273.408 13.688C273.013 14.2 272.656 14.632 272.336 14.984L270.752 14.408C270.965 14.1307 271.173 13.8267 271.376 13.496C271.589 13.1653 271.792 12.8293 271.984 12.488C272.176 12.136 272.336 11.8107 272.464 11.512ZM262.464 12.296L264.096 11.56C264.384 11.88 264.667 12.2373 264.944 12.632C265.221 13.016 265.424 13.3627 265.552 13.672L263.824 14.488C263.707 14.1893 263.515 13.8373 263.248 13.432C262.992 13.016 262.731 12.6373 262.464 12.296ZM266.48 11.944L268.176 11.32C268.432 11.6613 268.677 12.0507 268.912 12.488C269.157 12.9253 269.333 13.3093 269.44 13.64L267.632 14.344C267.547 14.024 267.392 13.64 267.168 13.192C266.955 12.7333 266.725 12.3173 266.48 11.944ZM294.528 16.248H303.472V17.336H294.528V16.248ZM295.296 14.6H302.8V15.64H295.296V14.6ZM298.096 13.928H299.84V16.888H298.096V13.928ZM297.92 20.616H299.6V23.784H297.92V20.616ZM299.68 20.312C299.957 20.6427 300.315 20.9627 300.752 21.272C301.189 21.5707 301.669 21.832 302.192 22.056C302.725 22.28 303.269 22.4613 303.824 22.6C303.664 22.7387 303.488 22.9307 303.296 23.176C303.104 23.4107 302.949 23.6187 302.832 23.8C302.256 23.6187 301.691 23.3787 301.136 23.08C300.592 22.7707 300.091 22.4187 299.632 22.024C299.173 21.6187 298.784 21.2027 298.464 20.776L299.68 20.312ZM298.928 19.656L300.368 20.168C299.963 20.6373 299.472 21.08 298.896 21.496C298.331 21.912 297.728 22.2853 297.088 22.616C296.448 22.9467 295.813 23.2293 295.184 23.464C295.12 23.3573 295.024 23.2293 294.896 23.08C294.768 22.92 294.64 22.7653 294.512 22.616C294.384 22.4667 294.267 22.344 294.16 22.248C294.768 22.0667 295.371 21.848 295.968 21.592C296.576 21.3253 297.136 21.032 297.648 20.712C298.171 20.3813 298.597 20.0293 298.928 19.656ZM302.416 20.088L303.568 20.824C303.227 21.1013 302.859 21.3573 302.464 21.592C302.08 21.8267 301.728 22.0293 301.408 22.2L300.464 21.544C300.667 21.416 300.891 21.2667 301.136 21.096C301.381 20.9253 301.616 20.7547 301.84 20.584C302.064 20.4027 302.256 20.2373 302.416 20.088ZM296.944 18.792V19.592H301.072V18.792H296.944ZM295.344 17.816H302.752V20.568H295.344V17.816ZM292.176 12.024H305.888V26.44H304.016V13.736H293.984V26.44H292.176V12.024ZM293.328 24.136H305.024V25.864H293.328V24.136ZM324.224 12.376H335.392V26.216H333.328V14.312H326.192V26.248H324.224V12.376ZM325.568 17.752H334.176V19.64H325.568V17.752ZM325.568 23.256H334.192V25.192H325.568V23.256ZM353.424 14.52H367.568V16.472H353.424V14.52ZM356.704 21.768H364.144V23.72H356.704V21.768ZM359.456 11.416H361.488V26.44H359.456V11.416ZM358.88 15.224L360.64 15.784C360.181 16.936 359.627 18.0347 358.976 19.08C358.325 20.1253 357.595 21.0747 356.784 21.928C355.984 22.7707 355.12 23.4907 354.192 24.088C354.085 23.928 353.947 23.752 353.776 23.56C353.605 23.3573 353.435 23.16 353.264 22.968C353.104 22.7653 352.944 22.6053 352.784 22.488C353.445 22.1253 354.08 21.6827 354.688 21.16C355.296 20.6373 355.861 20.056 356.384 19.416C356.917 18.776 357.392 18.104 357.808 17.4C358.235 16.6853 358.592 15.96 358.88 15.224ZM362.08 15.272C362.464 16.2107 362.965 17.1333 363.584 18.04C364.213 18.936 364.928 19.752 365.728 20.488C366.528 21.224 367.371 21.8267 368.256 22.296C368.096 22.424 367.92 22.5893 367.728 22.792C367.547 22.9947 367.371 23.208 367.2 23.432C367.029 23.6453 366.885 23.8427 366.768 24.024C365.84 23.448 364.971 22.744 364.16 21.912C363.36 21.0693 362.64 20.1307 362 19.096C361.36 18.0613 360.805 16.9787 360.336 15.848L362.08 15.272ZM386.576 21.048H395.648V22.2H386.576V21.048ZM386.576 19.048H396.768V24.184H386.576V22.904H394.864V20.344H386.576V19.048ZM390.112 19.768H391.952V24.232C391.952 24.5307 392.021 24.7227 392.16 24.808C392.309 24.8827 392.624 24.92 393.104 24.92C393.2 24.92 393.344 24.92 393.536 24.92C393.739 24.92 393.963 24.92 394.208 24.92C394.464 24.92 394.715 24.92 394.96 24.92C395.216 24.92 395.451 24.92 395.664 24.92C395.877 24.92 396.043 24.92 396.16 24.92C396.427 24.92 396.629 24.8827 396.768 24.808C396.907 24.7333 397.008 24.5787 397.072 24.344C397.136 24.1093 397.184 23.768 397.216 23.32C397.408 23.448 397.659 23.5707 397.968 23.688C398.288 23.8053 398.571 23.8853 398.816 23.928C398.741 24.568 398.619 25.064 398.448 25.416C398.277 25.7787 398.021 26.0293 397.68 26.168C397.349 26.3173 396.891 26.392 396.304 26.392C396.208 26.392 396.043 26.392 395.808 26.392C395.584 26.392 395.328 26.392 395.04 26.392C394.763 26.392 394.48 26.392 394.192 26.392C393.904 26.392 393.648 26.392 393.424 26.392C393.2 26.392 393.035 26.392 392.928 26.392C392.203 26.392 391.632 26.328 391.216 26.2C390.811 26.072 390.523 25.8533 390.352 25.544C390.192 25.2347 390.112 24.8027 390.112 24.248V19.768ZM385.616 19.048H387.456V24.904H385.616V19.048ZM385.248 11.976H397.12V13.4H385.248V11.976ZM386.48 15.816H389.648V16.856H386.48V15.816ZM386.176 17.4H389.648V18.456H386.176V17.4ZM392.688 17.4H396.208V18.456H392.688V17.4ZM392.688 15.816H395.824V16.856H392.688V15.816ZM390.208 12.552H392.096V18.616H390.208V12.552ZM384.144 13.992H398.272V17.272H396.496V15.272H385.856V17.272H384.144V13.992ZM414.544 18.408H429.312V20.344H414.544V18.408ZM420.928 15.864H422.944V24.2C422.944 24.744 422.869 25.1653 422.72 25.464C422.581 25.7627 422.315 25.9867 421.92 26.136C421.536 26.2853 421.067 26.3813 420.512 26.424C419.957 26.4667 419.312 26.4827 418.576 26.472C418.544 26.28 418.48 26.0613 418.384 25.816C418.288 25.5813 418.187 25.3413 418.08 25.096C417.973 24.8613 417.867 24.6587 417.76 24.488C418.133 24.4987 418.501 24.5093 418.864 24.52C419.237 24.5307 419.568 24.536 419.856 24.536C420.155 24.536 420.363 24.536 420.48 24.536C420.651 24.536 420.768 24.5093 420.832 24.456C420.896 24.4027 420.928 24.3067 420.928 24.168V15.864ZM416.224 12.392H426.304V14.28H416.224V12.392ZM425.664 12.392H426.176L426.624 12.28L428.08 13.384C427.589 13.9067 427.024 14.4293 426.384 14.952C425.755 15.4747 425.099 15.976 424.416 16.456C423.733 16.9253 423.067 17.3307 422.416 17.672C422.32 17.5333 422.197 17.3787 422.048 17.208C421.899 17.0373 421.744 16.872 421.584 16.712C421.424 16.5413 421.28 16.3973 421.152 16.28C421.728 15.992 422.309 15.6453 422.896 15.24C423.493 14.8347 424.037 14.4187 424.528 13.992C425.019 13.5653 425.397 13.176 425.664 12.824V12.392ZM445.36 21.096H459.936V22.712H445.36V21.096ZM445.744 12.472H459.536V14.056H445.744V12.472ZM454.576 20.088H456.464V24.584C456.464 25.0427 456.4 25.3947 456.272 25.64C456.155 25.8853 455.931 26.072 455.6 26.2C455.269 26.3173 454.864 26.3867 454.384 26.408C453.904 26.44 453.339 26.456 452.688 26.456C452.645 26.1893 452.565 25.9013 452.448 25.592C452.341 25.2827 452.224 25.0107 452.096 24.776C452.384 24.776 452.672 24.7813 452.96 24.792C453.259 24.8027 453.52 24.808 453.744 24.808C453.979 24.808 454.139 24.808 454.224 24.808C454.363 24.7973 454.453 24.776 454.496 24.744C454.549 24.7013 454.576 24.6267 454.576 24.52V20.088ZM451.632 11.416H453.52V19.56H451.632V11.416ZM447.648 23.512L449.088 22.504C449.376 22.696 449.669 22.92 449.968 23.176C450.277 23.432 450.565 23.688 450.832 23.944C451.109 24.1893 451.328 24.424 451.488 24.648L449.936 25.784C449.797 25.56 449.6 25.3147 449.344 25.048C449.088 24.7813 448.811 24.5147 448.512 24.248C448.224 23.9707 447.936 23.7253 447.648 23.512ZM448.704 18.12V18.936H456.576V18.12H448.704ZM448.704 16.072V16.888H456.576V16.072H448.704ZM446.896 14.776H458.464V20.248H446.896V14.776ZM477.584 14.44H481.584V15.8H477.584V14.44ZM484.976 14.44H489.008V15.8H484.976V14.44ZM488.24 12.04H490.192V24.104C490.192 24.6587 490.123 25.0853 489.984 25.384C489.845 25.6933 489.605 25.9227 489.264 26.072C488.912 26.232 488.464 26.328 487.92 26.36C487.376 26.4027 486.715 26.424 485.936 26.424C485.915 26.2427 485.867 26.0293 485.792 25.784C485.717 25.5493 485.632 25.3093 485.536 25.064C485.451 24.8293 485.355 24.6267 485.248 24.456C485.589 24.4773 485.936 24.4933 486.288 24.504C486.64 24.504 486.949 24.504 487.216 24.504C487.493 24.504 487.685 24.504 487.792 24.504C487.963 24.504 488.08 24.472 488.144 24.408C488.208 24.344 488.24 24.2373 488.24 24.088V12.04ZM477.728 12.04H482.768V18.264H477.728V16.712H480.976V13.592H477.728V12.04ZM489.28 12.04V13.592H485.696V16.76H489.28V18.296H483.872V12.04H489.28ZM476.64 12.04H478.544V26.44H476.64V12.04ZM509.808 16.872H517.184V18.536H509.808V16.872ZM506.944 20.472H521.264V22.232H506.944V20.472ZM513.104 19.432H515.072V24.376C515.072 24.8667 515.003 25.2507 514.864 25.528C514.725 25.8053 514.464 26.0133 514.08 26.152C513.696 26.2907 513.248 26.376 512.736 26.408C512.224 26.44 511.627 26.456 510.944 26.456C510.88 26.1787 510.768 25.8587 510.608 25.496C510.459 25.144 510.309 24.84 510.16 24.584C510.501 24.5947 510.848 24.6053 511.2 24.616C511.552 24.6267 511.861 24.632 512.128 24.632C512.405 24.632 512.597 24.6267 512.704 24.616C512.864 24.616 512.971 24.5947 513.024 24.552C513.077 24.5093 513.104 24.4347 513.104 24.328V19.432ZM516.576 16.872H517.04L517.456 16.776L518.656 17.704C518.304 18.0987 517.893 18.4933 517.424 18.888C516.955 19.2827 516.464 19.656 515.952 20.008C515.44 20.3493 514.923 20.648 514.4 20.904C514.283 20.7333 514.117 20.5413 513.904 20.328C513.701 20.104 513.531 19.9227 513.392 19.784C513.808 19.5707 514.219 19.3147 514.624 19.016C515.04 18.7173 515.419 18.4133 515.76 18.104C516.101 17.784 516.373 17.496 516.576 17.24V16.872ZM507.152 13.944H521.088V17.864H519.2V15.64H508.944V17.864H507.152V13.944ZM518.224 11.512L520.304 12.12C519.941 12.6533 519.563 13.176 519.168 13.688C518.773 14.2 518.416 14.632 518.096 14.984L516.512 14.408C516.725 14.1307 516.933 13.8267 517.136 13.496C517.349 13.1653 517.552 12.8293 517.744 12.488C517.936 12.136 518.096 11.8107 518.224 11.512ZM508.224 12.296L509.856 11.56C510.144 11.88 510.427 12.2373 510.704 12.632C510.981 13.016 511.184 13.3627 511.312 13.672L509.584 14.488C509.467 14.1893 509.275 13.8373 509.008 13.432C508.752 13.016 508.491 12.6373 508.224 12.296ZM512.24 11.944L513.936 11.32C514.192 11.6613 514.437 12.0507 514.672 12.488C514.917 12.9253 515.093 13.3093 515.2 13.64L513.392 14.344C513.307 14.024 513.152 13.64 512.928 13.192C512.715 12.7333 512.485 12.3173 512.24 11.944ZM543.264 13.64H552.144V15.4H543.264V13.64ZM546.72 11.4H548.608V14.424H546.72V11.4ZM545.12 15.544L546.848 16.264C546.496 16.9573 546.075 17.6293 545.584 18.28C545.093 18.92 544.587 19.4587 544.064 19.896C543.925 19.7147 543.723 19.5067 543.456 19.272C543.189 19.0267 542.955 18.824 542.752 18.664C543.232 18.2907 543.68 17.8213 544.096 17.256C544.523 16.68 544.864 16.1093 545.12 15.544ZM548.448 16.328L549.936 15.48C550.256 15.8213 550.576 16.1893 550.896 16.584C551.227 16.9787 551.525 17.3733 551.792 17.768C552.069 18.152 552.283 18.5093 552.432 18.84L550.816 19.768C550.688 19.448 550.496 19.0907 550.24 18.696C549.984 18.3013 549.696 17.896 549.376 17.48C549.067 17.0533 548.757 16.6693 548.448 16.328ZM546.304 18.536C546.656 19.4747 547.12 20.3547 547.696 21.176C548.283 21.9867 548.976 22.7013 549.776 23.32C550.576 23.928 551.477 24.408 552.48 24.76C552.341 24.8987 552.181 25.0693 552 25.272C551.829 25.4747 551.664 25.6827 551.504 25.896C551.355 26.1093 551.232 26.3013 551.136 26.472C550.08 26.0347 549.141 25.4533 548.32 24.728C547.499 23.992 546.784 23.144 546.176 22.184C545.568 21.2133 545.056 20.152 544.64 19L546.304 18.536ZM548.624 18.44L550.56 18.824C550.197 19.976 549.707 21.048 549.088 22.04C548.48 23.032 547.717 23.9067 546.8 24.664C545.883 25.4107 544.779 26.0187 543.488 26.488C543.424 26.3387 543.333 26.168 543.216 25.976C543.099 25.784 542.976 25.5973 542.848 25.416C542.731 25.2347 542.619 25.08 542.512 24.952C543.675 24.568 544.667 24.0507 545.488 23.4C546.309 22.7493 546.976 22.0027 547.488 21.16C548.011 20.3067 548.389 19.4 548.624 18.44ZM537.52 14.712H543.072V16.488H537.52V14.712ZM539.552 11.4H541.328V26.424H539.552V11.4ZM539.536 15.944L540.624 16.312C540.507 16.952 540.357 17.6133 540.176 18.296C540.005 18.9787 539.808 19.6507 539.584 20.312C539.36 20.9627 539.115 21.576 538.848 22.152C538.592 22.7173 538.315 23.2027 538.016 23.608C537.931 23.352 537.797 23.0587 537.616 22.728C537.445 22.3973 537.285 22.1147 537.136 21.88C537.403 21.528 537.653 21.1173 537.888 20.648C538.133 20.1787 538.363 19.6827 538.576 19.16C538.789 18.6267 538.976 18.088 539.136 17.544C539.296 16.9893 539.429 16.456 539.536 15.944ZM541.264 17.208C541.36 17.3253 541.504 17.528 541.696 17.816C541.888 18.0933 542.096 18.3973 542.32 18.728C542.544 19.0587 542.747 19.368 542.928 19.656C543.12 19.944 543.253 20.1467 543.328 20.264L542.288 21.688C542.192 21.4427 542.064 21.1547 541.904 20.824C541.744 20.4933 541.568 20.152 541.376 19.8C541.195 19.4373 541.019 19.1013 540.848 18.792C540.677 18.4827 540.533 18.2267 540.416 18.024L541.264 17.208Z" fill="black"/>
<path d="M42.1409 0V21.3933L19.7751 39.8693C13.5518 46.4818 17.1821 55.5901 19.7751 59.3177C-2.0071 50.7604 -3.14488 36.0177 4.2164 30.1451L42.1409 0Z" fill="#00BE8A"/>
<path d="M-0.000232697 108.891V87.4976L22.3655 69.0216C28.5888 62.4091 24.9585 53.3007 22.3655 49.5731C44.1477 58.1304 45.2855 72.8732 37.9242 78.7458L-0.000232697 108.891Z" fill="#00BE8A"/>
</svg>
